<svg id="Layer_1" data-name="Layer 1" xmlns="http://www.w3.org/2000/svg" viewBox="0 0 2000 2000"><defs><style>.cls-1{fill:#fdebdc;}.cls-2{fill:#583515;}.cls-3{fill:#efa96e;}</style></defs><title>Artboard 1</title><rect class="cls-1" x="348.04" y="651.08" width="126.92" height="265.55" rx="34.57" transform="translate(1195.36 372.35) rotate(90)"/><rect class="cls-1" x="348.04" y="1083.37" width="126.92" height="265.55" rx="34.57" transform="translate(1627.65 804.64) rotate(90)"/><path class="cls-2" d="M736.64,1107.22l-3.18-.68a25.53,25.53,0,0,1-5.94-2,25.06,25.06,0,0,1-5.16-3.38l4.3-5.28a19.38,19.38,0,0,0,6.19,3.65,21.39,21.39,0,0,0,7.35,1.22c3.56,0,6.33-.66,8.29-2a6.37,6.37,0,0,0,2.94-5.6v0a5.91,5.91,0,0,0-1.33-4.08,8,8,0,0,0-3.45-2.24,40.17,40.17,0,0,0-5.47-1.34.78.78,0,0,0-.22,0,.78.78,0,0,1-.22,0l-.51-.11a52.11,52.11,0,0,1-8-1.91,11.38,11.38,0,0,1-5.3-3.89q-2.21-2.84-2.2-8v0a14.27,14.27,0,0,1,2-7.81,12.89,12.89,0,0,1,6-4.92,25.74,25.74,0,0,1,14.64-1.12,25.27,25.27,0,0,1,5,1.71,29.21,29.21,0,0,1,4.89,2.86l-3.93,5.48a23.17,23.17,0,0,0-5.6-3.09,16,16,0,0,0-5.6-1c-3.36,0-6,.67-7.84,2a6.61,6.61,0,0,0-2.79,5.7v0a5.42,5.42,0,0,0,1.44,4,8.65,8.65,0,0,0,3.59,2.15,55.22,55.22,0,0,0,6,1.44l.26,0,.25.05.37.07.37.06a41.41,41.41,0,0,1,7.47,2.17,11.67,11.67,0,0,1,5,4,12.82,12.82,0,0,1,2,7.63v.07a13.57,13.57,0,0,1-2.13,7.7,13.31,13.31,0,0,1-6.18,4.88,25.59,25.59,0,0,1-9.76,1.67Z"/><path class="cls-2" d="M796.1,1057.49H802l18.15,49.22h-7.45L799.05,1067l-13.65,39.71H778Zm-9.78,31.86h25.9v6.56h-25.9Z"/><path class="cls-2" d="M879.6,1057.49h6.47v49.22h-6.74v-36.86l.34,2.16-12.12,27.86h-4.81l-12.12-27.18.34-2.84v36.86h-6.73v-49.22h6.46l14.46,32.5Z"/><path class="cls-2" d="M914.89,1057.49h6.87v49.22h-6.87Zm4.06,42.83h13.34q5.25,0,7.65-2a6.92,6.92,0,0,0,2.41-5.62v-.1a9.76,9.76,0,0,0-.87-4.3,5.91,5.91,0,0,0-2.72-2.76,10.27,10.27,0,0,0-4.77-1H919v-6.22h15a8.24,8.24,0,0,0,5.77-1.8,8.18,8.18,0,0,0-.22-10.83q-2.17-1.83-6.5-1.83H919v-6.4h15.34a17.52,17.52,0,0,1,8,1.63,10.88,10.88,0,0,1,4.81,4.6,14.93,14.93,0,0,1,1.59,7.11,11.56,11.56,0,0,1-1,4.76,9.84,9.84,0,0,1-3,3.79,11.2,11.2,0,0,1-5,2.11,10.86,10.86,0,0,1,5.14,2.12,11.12,11.12,0,0,1,3.32,4.18,12.79,12.79,0,0,1,1.15,5.42v.1a13.86,13.86,0,0,1-1.76,7,11.82,11.82,0,0,1-5,4.7,16.72,16.72,0,0,1-7.66,1.66H919Z"/><path class="cls-2" d="M988.67,1057.49h5.89l18.15,49.22h-7.45L991.62,1067,978,1106.71h-7.45Zm-9.78,31.86h25.9v6.56h-25.9Z"/><path class="cls-2" d="M1036.8,1057.49h6.9v49.22h-6.9Zm3.45,42.66h28.16v6.56h-28.16Z"/><path class="cls-2" d="M1128.44,1057.49h6.9v49.22h-6.9Zm5.41,27.63,21.74-27.63h8.49l-31.24,38Zm8.19-4.68,5.45-5,18.66,31.31h-8.47Z"/><path class="cls-2" d="M1190.23,1057.49h6.91v49.22h-6.91Zm3.35,0h28.27v6.57h-28.27Zm0,21.5h24.55v6.57h-24.55Zm0,21.16h28.27v6.56h-28.27Z"/><path class="cls-2" d="M1259.31,1107.22l-3.88-2.27a15.36,15.36,0,0,1-6-6.43,20.79,20.79,0,0,1-2.14-9.65v-13.51a20.75,20.75,0,0,1,2.14-9.64,15.47,15.47,0,0,1,6-6.45,17.42,17.42,0,0,1,9-2.29,17,17,0,0,1,7.79,1.81,16.45,16.45,0,0,1,5.94,5.13,19.28,19.28,0,0,1,3.23,7.69h-7.07a11,11,0,0,0-2.15-4.11,10.69,10.69,0,0,0-3.54-2.8,9.53,9.53,0,0,0-13,4.56,14,14,0,0,0-1.25,6.1v13.51a14.14,14.14,0,0,0,1.25,6.1,9.43,9.43,0,0,0,3.52,4.07,9.55,9.55,0,0,0,5.28,1.45,10.12,10.12,0,0,0,4.22-.92,10,10,0,0,0,3.52-2.71,10.79,10.79,0,0,0,2.15-4.26h7.07a19.06,19.06,0,0,1-3.25,7.68,16.64,16.64,0,0,1-6,5.13,16.85,16.85,0,0,1-7.76,1.81Z"/><path class="cls-2" d="M1319.21,1057.49h5.89l18.15,49.22h-7.45L1322.16,1067l-13.65,39.71h-7.44Zm-9.78,31.86h25.9v6.56h-25.9Z"/><path class="cls-2" d="M1367.33,1057.49h6.91v49.22h-6.91Zm3.56,23.56h15.74a7.31,7.31,0,0,0,3.93-1,7,7,0,0,0,2.62-3,10.05,10.05,0,0,0,.93-4.43,10.2,10.2,0,0,0-.93-4.47,7,7,0,0,0-6.55-4.06h-15.74v-6.57h15.5a15.58,15.58,0,0,1,7.75,1.88,13,13,0,0,1,5.2,5.3,17.84,17.84,0,0,1,0,15.82,12.94,12.94,0,0,1-5.2,5.27,15.67,15.67,0,0,1-7.75,1.86h-15.5Z"/><path class="cls-2" d="M1462.66,1105.63a14,14,0,0,1-5.35-4.47l5.66-4.06a6.43,6.43,0,0,0,2.74,2.57,9,9,0,0,0,4.16.92,7.91,7.91,0,0,0,6.25-2.51q2.22-2.5,2.22-7v-33.55h6.9v33.58a19.63,19.63,0,0,1-1.79,8.74,12.52,12.52,0,0,1-5.25,5.52,17.12,17.12,0,0,1-8.33,1.89A16.35,16.35,0,0,1,1462.66,1105.63Z"/><path class="cls-2" d="M1525.78,1057.49h5.89l18.15,49.22h-7.45L1528.73,1067l-13.65,39.71h-7.44Zm-9.78,31.86h25.89v6.56H1516Z"/><path class="cls-2" d="M1573.9,1057.49h6.27l24.07,38-.82.88v-38.93h6.84v49.19h-6.33l-24-37.47.81-.89v38.36h-6.84Z"/><path class="cls-2" d="M1646,1106.71h-6.9v-49.22h6.9Z"/><path class="cls-3" d="M247,1003.42H363.24a48.27,48.27,0,0,1,48.27,48.27v116.19a48.27,48.27,0,0,1-48.27,48.27h-93.5a70.95,70.95,0,0,1-70.95-70.95v-93.5A48.27,48.27,0,0,1,247,1003.42Z"/><path class="cls-3" d="M459.77,1003.42H576a48.27,48.27,0,0,1,48.27,48.27v93.5a70.95,70.95,0,0,1-70.95,70.95h-93.5a48.27,48.27,0,0,1-48.27-48.27V1051.69a48.27,48.27,0,0,1,48.27-48.27Z"/><path class="cls-3" d="M269.73,791.7h93.5A48.27,48.27,0,0,1,411.5,840V956.15a48.27,48.27,0,0,1-48.27,48.27H247a48.27,48.27,0,0,1-48.27-48.27v-93.5a70.95,70.95,0,0,1,70.95-70.95Z"/><path class="cls-3" d="M459.77,791.7h93.5a70.95,70.95,0,0,1,70.95,70.95v93.5A48.27,48.27,0,0,1,576,1004.42H459.77a48.27,48.27,0,0,1-48.27-48.27V840A48.27,48.27,0,0,1,459.77,791.7Z"/><rect class="cls-1" x="348.04" y="731.96" width="126.92" height="542.93" rx="49.44"/><path class="cls-3" d="M723.2,924.82a3,3,0,0,1-1.82,1.53,8.37,8.37,0,0,1-2.66.42,5.17,5.17,0,0,1-3.35-1.12q-1.39-1.11-.84-3.63L719,905.54q.84-4.2,5-4.2h88.86c2.8,0,4.47,1.4,5,4.2l3.35,15.92a3.08,3.08,0,0,1-1,3.36,5.08,5.08,0,0,1-3.5,1.39,4.24,4.24,0,0,1-3.35-1.67,30,30,0,0,0-10.76-8.8,109.49,109.49,0,0,0-14.11-6q-.55,3.63-1.26,11.18t-1,17.18q-.29,9.64-.28,20t.56,19.7a120.81,120.81,0,0,0,2,16.34q1.39,7,3.63,9.79a8.05,8.05,0,0,1,2,5.86q-.28,3.07-3.07,3.08h-45a3.42,3.42,0,0,1-2.52-.84,2.67,2.67,0,0,1-.83-2,6.27,6.27,0,0,1,.41-2.23,4.77,4.77,0,0,1,1-1.68q2.24-1.95,3.5-8.66a152.23,152.23,0,0,0,2-16.07q.69-9.36.7-20T750,940.88q-.28-9.92-1-18a121.23,121.23,0,0,0-1.53-12.29c-2.62.55-5,1.11-7.13,1.67a29.44,29.44,0,0,0-6.15,2.38,27.69,27.69,0,0,0-5.59,3.91A38,38,0,0,0,723.2,924.82Z"/><path class="cls-3" d="M833.29,989.08c-.75,1.5-1.35,2.62-1.82,3.36s-.83,1.39-1.11,1.95a5.83,5.83,0,0,0-.56,1.68c-.1.56-.24,1.31-.42,2.24a11.18,11.18,0,0,0,1.4,6.28,9.79,9.79,0,0,0,4.75,4.61c1.49.75,2,1.54,1.67,2.38a2.19,2.19,0,0,1-2.23,1.26H806.75c-1.5,0-2.43-.56-2.8-1.68s.09-2,1.4-2.51a27.57,27.57,0,0,0,9.5-6.43,32.66,32.66,0,0,0,5.87-8.94l41.63-91.66a14.17,14.17,0,0,1,4.47-5.59,9.09,9.09,0,0,1,5-1.67,10,10,0,0,1,6.15,2.09,13.33,13.33,0,0,1,4.19,5.17q4.2,9.51,9.08,20.68t10.06,22.64q5.17,11.44,10.2,22.21t9.5,19.42q4.47,8.67,8.11,14.25t5.59,6.71a3.13,3.13,0,0,1,1.67,3.07,2,2,0,0,1-2.23,2.24H885.82q-4.47,0-1.39-4.75a9.33,9.33,0,0,0,1-8,127.42,127.42,0,0,0-4.33-12.43,7.21,7.21,0,0,0-7.26-5c-2,0-5.13-.09-9.22-.28s-8.24-.18-12.44,0a51.41,51.41,0,0,0-11.73,1.82Q835,985.73,833.29,989.08ZM871,973.16q5.6,0,3.08-4.75-4.76-10.06-9.64-18.72t-7.13-13.14l-1.67,3.35c-.94,1.87-2.1,4.29-3.5,7.27s-3,6.29-4.75,9.92-3.59,7.4-5.45,11.32q-2.24,4.76,3.08,4.75Z"/><path class="cls-3" d="M987.81,965.89a178.7,178.7,0,0,0,1.4,24.31q1.39,10.06,4.47,13.7a8.05,8.05,0,0,1,2,5.86q-.28,3.07-3.08,3.08h-45a3.41,3.41,0,0,1-2.51-.84,2.68,2.68,0,0,1-.84-2,6.29,6.29,0,0,1,.42-2.23,4.62,4.62,0,0,1,1-1.68q2.24-2.24,3.63-9.5a148.05,148.05,0,0,0,2.1-17.18q.69-9.93.55-21.24t-1-21.38q-.84-10.05-2.24-17.74t-3.63-10.2a7,7,0,0,1-2-4.61,2.81,2.81,0,0,1,2.52-2.94h43.59q3.91,0,4.75,2.24t-1.4,5.87q-1.95,2.79-3.35,14.53a221.75,221.75,0,0,0-1.4,26.26c0,.38.6.7,1.82,1s2.79.56,4.75.84,4.09.51,6.43.7,4.61.28,6.84.28a42.14,42.14,0,0,0,8.24-.7c2.33-.46,3.5-1.16,3.5-2.1q-.28-7.26-.7-14.25t-1.26-12.57a84.31,84.31,0,0,0-1.95-9.64,16,16,0,0,0-2.52-5.73,5.35,5.35,0,0,1-1.68-4.19c.19-1.3,1.12-2.14,2.8-2.52h43.59a4.37,4.37,0,0,1,3.63,1.82q1.4,1.82-.84,5.45-1.39,2-2.37,9.22t-1.68,17q-.71,9.78-.84,21t.56,21.24q.7,10,2,17.6t3.49,10.34a8.71,8.71,0,0,1,2.24,5.31c0,1.68-.94,2.52-2.8,2.52h-43.87c-2.42,0-3.68-.65-3.77-2a5.53,5.53,0,0,1,.7-3.35q2.5-3.91,3.91-15.23a218.76,218.76,0,0,0,1.4-26.41c0-.56-.61-1-1.82-1.4s-2.7-.74-4.47-1.11a50.34,50.34,0,0,0-6-.84c-2.23-.18-4.47-.28-6.7-.28a40.91,40.91,0,0,0-8.81.84Q987.82,963.94,987.81,965.89Z"/><path class="cls-3" d="M1183.41,906.37a19.73,19.73,0,0,0-5.73,4.06q-2.65,2.66-2.65,11,0,15.09.42,31.3a113,113,0,0,1-2.94,29.9,45.62,45.62,0,0,1-12.43,22.49q-9.09,8.8-27.8,8.8a129,129,0,0,1-19.7-1.53,49.52,49.52,0,0,1-17.75-6.15,34.45,34.45,0,0,1-12.71-13.55q-4.89-8.94-4.89-23.48,0-9.76-.28-19.42t-1-18a122.9,122.9,0,0,0-2-14.39c-.84-4-1.92-6.84-3.22-8.52a7,7,0,0,1-2-4.61,2.81,2.81,0,0,1,2.51-2.94h45c2.05,0,3.07.8,3.07,2.38a18.51,18.51,0,0,1-1.12,5.73,73.67,73.67,0,0,0-2.51,13,170.08,170.08,0,0,0-1.26,19.28,188.24,188.24,0,0,0,1,21.52,86.06,86.06,0,0,0,4.33,20.12,41,41,0,0,0,8.66,14.81,18.29,18.29,0,0,0,13.84,5.73,14.08,14.08,0,0,0,11.31-5.17,36.49,36.49,0,0,0,6.71-13.14,88.81,88.81,0,0,0,3.21-17.6q.84-9.65.84-18.86t-.28-16.63q-.29-7.39-.28-11,0-8.38-2.65-11a18.83,18.83,0,0,0-6-4.06,2.22,2.22,0,0,1-1.4-2.93,2.61,2.61,0,0,1,2.8-2.1H1182a2.61,2.61,0,0,1,2.8,2A2.49,2.49,0,0,1,1183.41,906.37Z"/><path class="cls-3" d="M1277,901.34a89.57,89.57,0,0,1,16.91,1.54,48.8,48.8,0,0,1,14.11,4.89,26.51,26.51,0,0,1,9.64,8.66,22.88,22.88,0,0,1,3.5,12.86q0,7.83-6.85,13.69a47.17,47.17,0,0,1-16.35,8.94,60.72,60.72,0,0,1,12.86,3.63,44.92,44.92,0,0,1,10.89,6.29,30.27,30.27,0,0,1,7.55,8.66,21.37,21.37,0,0,1,2.79,10.76q0,14-11.45,22.77t-32.14,8.81H1227a3.59,3.59,0,0,1-3.36-2.24,3,3,0,0,1,.84-3.91,16.29,16.29,0,0,0,5.17-8.52,49.4,49.4,0,0,0,1-10.2,98.25,98.25,0,0,1,.56-10.76,28.11,28.11,0,0,1,2.79-9.64,24,24,0,0,1,6.57-8,37.92,37.92,0,0,1,11.87-6,27.76,27.76,0,0,1-11-4.61,21.84,21.84,0,0,1-6.57-7.55,31.59,31.59,0,0,1-3.07-9.22,53.89,53.89,0,0,1-.84-9.08,27.5,27.5,0,0,0-1-8.1,22.55,22.55,0,0,0-4.61-7.27,4.26,4.26,0,0,1-.84-4.33q.84-2.1,3.63-2.1Zm-1.67,7c-2.43-1.12-4.47-.84-6.15.84a14.64,14.64,0,0,0-3.63,7.12,49.24,49.24,0,0,0-1.26,10.48,53.46,53.46,0,0,0,.84,11.18,31.55,31.55,0,0,0,2.79,8.8c1.21,2.33,2.66,3.49,4.33,3.49a9.32,9.32,0,0,0,6.43-2.23,15.66,15.66,0,0,0,3.91-5.31,29.7,29.7,0,0,0,2.1-6.85,37.19,37.19,0,0,0,.7-6.56,34.07,34.07,0,0,0-.56-5.73,28,28,0,0,0-1.82-6.15A28.45,28.45,0,0,0,1280,912,10.41,10.41,0,0,0,1275.34,908.33Zm-.28,48.34q-3.07,0-5.31,3.77a32.11,32.11,0,0,0-3.49,9.36,54.66,54.66,0,0,0-1.26,12,48.9,48.9,0,0,0,1.4,12,24.69,24.69,0,0,0,4.19,9.23,9,9,0,0,0,7.54,3.63,12.56,12.56,0,0,0,7.69-2.38,19.31,19.31,0,0,0,5.3-6,28.46,28.46,0,0,0,3.08-8,37.49,37.49,0,0,0,1-8.24,39.81,39.81,0,0,0-1.12-9.36,26.46,26.46,0,0,0-3.49-8.25,17.38,17.38,0,0,0-6.15-5.72A19.05,19.05,0,0,0,1275.06,956.67Z"/><path class="cls-3" d="M1357.49,989.08c-.75,1.5-1.35,2.62-1.82,3.36a21.92,21.92,0,0,0-1.11,1.95,5.83,5.83,0,0,0-.56,1.68c-.1.56-.24,1.31-.42,2.24a11.18,11.18,0,0,0,1.4,6.28,9.79,9.79,0,0,0,4.75,4.61c1.48.75,2,1.54,1.67,2.38a2.19,2.19,0,0,1-2.23,1.26h-28.23q-2.24,0-2.79-1.68c-.38-1.12.09-2,1.4-2.51a27.66,27.66,0,0,0,9.5-6.43,32.4,32.4,0,0,0,5.86-8.94l41.64-91.66A14.09,14.09,0,0,1,1391,896a9.06,9.06,0,0,1,5-1.67,10.07,10.07,0,0,1,6.15,2.09,13.33,13.33,0,0,1,4.19,5.17q4.18,9.51,9.08,20.68t10.06,22.64q5.16,11.44,10.2,22.21t9.5,19.42q4.47,8.67,8.1,14.25t5.59,6.71a3.12,3.12,0,0,1,1.68,3.07,2,2,0,0,1-2.24,2.24H1410q-4.47,0-1.4-4.75a9.33,9.33,0,0,0,1-8,130.19,130.19,0,0,0-4.33-12.43,7.21,7.21,0,0,0-7.26-5q-3.09,0-9.22-.28t-12.44,0a51.41,51.41,0,0,0-11.73,1.82Q1359.16,985.73,1357.49,989.08Zm37.72-15.92q5.6,0,3.08-4.75-4.76-10.06-9.64-18.72t-7.13-13.14l-1.68,3.35q-1.39,2.8-3.49,7.27t-4.75,9.92q-2.65,5.45-5.45,11.32-2.24,4.76,3.08,4.75Z"/><path class="cls-3" d="M1579.91,906.65a124.51,124.51,0,0,0-18,8.39,75.82,75.82,0,0,0-11.18,8q-4.61,4.05-8.94,8.52a151,151,0,0,1-11.32,10.34q11.17,15.93,21.38,29.2t22.77,26.69a34.86,34.86,0,0,0,5.45,4.61q2.37,1.53,6.29,3.77a4,4,0,0,1,2,4c-.19,1.78-1.12,2.66-2.8,2.66h-51.13q-4.2,0-3.64-5.59c.19-1.68-.42-3.87-1.81-6.57a62.77,62.77,0,0,0-5.17-8.24q-3.07-4.2-6.71-8.38t-6.43-7.27a132.3,132.3,0,0,0,2,17q1.4,7.27,3.63,10.07a8.05,8.05,0,0,1,2,5.86q-.29,3.07-3.07,3.08h-45a3.42,3.42,0,0,1-2.52-.84,2.68,2.68,0,0,1-.84-2,6.29,6.29,0,0,1,.42-2.23,4.77,4.77,0,0,1,1-1.68q2.23-2.24,3.63-9.5a148.05,148.05,0,0,0,2.1-17.18q.69-9.93.56-21.24t-1-21.38q-.84-10.05-2.23-17.74t-3.64-10.2a7,7,0,0,1-1.95-4.61,2.81,2.81,0,0,1,2.51-2.94h43.59q3.91,0,4.75,2.24c.56,1.49.09,3.45-1.39,5.87q-1.68,2.5-2.94,12.71t-1.81,23.61c3-2,6.37-4.61,10.19-7.68a133.32,133.32,0,0,0,10.76-9.64q5-5,8.66-9.36t3.92-6.57a9.5,9.5,0,0,0-.14-3.77,6.54,6.54,0,0,0-1.12-2.1q-.7-.84-1.26-1.53a2,2,0,0,1-.28-1.82,2,2,0,0,1,1.54-1.68,11.38,11.38,0,0,1,2.37-.28h34.37a2.29,2.29,0,0,1,2.52,2.24A2.67,2.67,0,0,1,1579.91,906.65Z"/><path class="cls-3" d="M1600,973.72q9.23,0,13.27,5.31a56.19,56.19,0,0,1,6.85,11.73,64.19,64.19,0,0,0,6.57,11.74q3.77,5.31,12.15,5.31a20.67,20.67,0,0,0,12.16-4.06,12.8,12.8,0,0,0,5.72-11q0-4.2-5-7.55a85.89,85.89,0,0,0-12.58-6.7q-7.55-3.36-16.21-7.27a98.12,98.12,0,0,1-16.2-9.22,52.93,52.93,0,0,1-12.58-12.29,28,28,0,0,1-5-16.77,26.65,26.65,0,0,1,3.91-14.39,35.81,35.81,0,0,1,10.2-10.62,48.84,48.84,0,0,1,13.84-6.57,52.87,52.87,0,0,1,15.08-2.23,60.78,60.78,0,0,1,12.3,1.54,66.14,66.14,0,0,1,14,4.61,37.34,37.34,0,0,1,11.32,7.82,15.54,15.54,0,0,1,4.61,11.18,12.86,12.86,0,0,1-4.61,9.78,15.19,15.19,0,0,1-10.48,4.19,12.25,12.25,0,0,1-7.68-2.24,18.62,18.62,0,0,1-4.89-5.59,48.28,48.28,0,0,1-3.5-7.4,49.22,49.22,0,0,0-3.49-7.4,18.88,18.88,0,0,0-4.89-5.59,12.35,12.35,0,0,0-7.68-2.24,17.24,17.24,0,0,0-8,2.1,7.13,7.13,0,0,0-4.05,6.84q0,5.6,4.89,9.78a63.92,63.92,0,0,0,12.15,8q7.27,3.76,15.79,8a99.46,99.46,0,0,1,15.79,9.64,52.37,52.37,0,0,1,12.16,12.72q4.88,7.26,4.89,17.6a25.05,25.05,0,0,1-4.34,14.81,34.27,34.27,0,0,1-11.17,10.06,50.67,50.67,0,0,1-15,5.59,77.8,77.8,0,0,1-15.65,1.67q-6.15,0-15-.7a77.12,77.12,0,0,1-16.91-3.21,39.94,39.94,0,0,1-13.83-7.26q-5.73-4.76-5.72-12.86,0-7.54,4.33-12.15T1600,973.72Z"/><path class="cls-3" d="M1686.09,957a56.68,56.68,0,0,1,4.47-22.49,57.21,57.21,0,0,1,30.6-30.6,56,56,0,0,1,22.22-4.47,57.93,57.93,0,0,1,40.79,16.76,59.59,59.59,0,0,1,12.44,18.31,55.25,55.25,0,0,1,4.61,22.49,56.23,56.23,0,0,1-4.61,22.63A59.05,59.05,0,0,1,1784.17,998a57.93,57.93,0,0,1-40.79,16.76,56,56,0,0,1-22.22-4.47A57.56,57.56,0,0,1,1686.09,957Zm34.65,3.35a103.82,103.82,0,0,0,5.31,15.65,92.07,92.07,0,0,0,8.52,15.93,50,50,0,0,0,10.62,11.73q5.73,4.49,11.32,3.08,5.31-1.4,8.1-7.27a42.43,42.43,0,0,0,3.64-13.83,96.88,96.88,0,0,0,.28-16.48,112.08,112.08,0,0,0-2-15.23A107.16,107.16,0,0,0,1752.88,922a43.33,43.33,0,0,0-10.48-11.45q-5.73-4.2-11.32-2.8-5.31,1.4-8.1,7.27a44.64,44.64,0,0,0-3.77,13.69,84.86,84.86,0,0,0-.42,16.34A110.41,110.41,0,0,0,1720.74,960.3Z"/></svg>