<svg id="Layer_1" data-name="Layer 1" xmlns="http://www.w3.org/2000/svg" viewBox="0 0 2000 2000"><defs><style>.cls-1{fill:#fdebdc;}.cls-2{fill:#efa96e;}</style></defs><title>Artboard 1 copy 7</title><rect class="cls-1" x="936.54" y="651.08" width="126.92" height="265.55" rx="34.57" transform="translate(1783.86 -216.14) rotate(90)"/><rect class="cls-1" x="936.54" y="1083.37" width="126.92" height="265.55" rx="34.57" transform="translate(2216.14 216.14) rotate(90)"/><path class="cls-2" d="M835.55,1000H951.73a48.27,48.27,0,0,1,48.27,48.27v116.19a48.27,48.27,0,0,1-48.27,48.27h-93.5a70.95,70.95,0,0,1-70.95-70.95v-93.5A48.27,48.27,0,0,1,835.55,1000Z"/><path class="cls-2" d="M1048.27,1000h116.19a48.27,48.27,0,0,1,48.27,48.27v93.5a70.95,70.95,0,0,1-70.95,70.95h-93.5a48.27,48.27,0,0,1-48.27-48.27V1048.27a48.27,48.27,0,0,1,48.27-48.27Z"/><path class="cls-2" d="M858.23,788.28h93.5A48.27,48.27,0,0,1,1000,836.54V952.73A48.27,48.27,0,0,1,951.73,1001H835.55a48.27,48.27,0,0,1-48.27-48.27v-93.5A70.95,70.95,0,0,1,858.23,788.28Z"/><path class="cls-2" d="M1048.27,788.28h93.5a70.95,70.95,0,0,1,70.95,70.95v93.5a48.27,48.27,0,0,1-48.27,48.27H1048.27A48.27,48.27,0,0,1,1000,952.73V836.54A48.27,48.27,0,0,1,1048.27,788.28Z"/><rect class="cls-1" x="936.54" y="728.54" width="126.92" height="542.93" rx="49.44"/></svg>