<svg id="Layer_1" data-name="Layer 1" xmlns="http://www.w3.org/2000/svg" viewBox="0 0 2000 2000"><defs><style>.cls-1{fill:#583515;}.cls-2{fill:#feecdd;}.cls-3{fill:#fdebdd;}.cls-4{fill:#feecde;}.cls-5{fill:#fceadb;}.cls-6{fill:#eea96e;}.cls-7{fill:#c57a3a;}.cls-8{fill:#f3e1c2;}.cls-9{fill:#f4d4b7;}.cls-10{fill:#f4d3b7;}.cls-11{fill:#f5d4b7;}.cls-12{fill:#c57a3b;}.cls-13{fill:#e7bd75;}.cls-14{fill:#f4e2c3;}.cls-15{fill:#f4d2b5;}.cls-16{fill:#f3e0c2;}.cls-17{fill:#f2e0c1;}.cls-18{fill:#f4d3b6;}.cls-19{fill:#e5bc74;}.cls-20{fill:#fdfdfc;}.cls-21{fill:#573414;}.cls-22{fill:#593616;}</style></defs><title>Artboard 1 copy 5</title><path class="cls-1" d="M692.35,696.35c1-7,1.49-14.1,3-21s4-13.35,6.09-20a168.6,168.6,0,0,1,28.74-38.13c11-10.9,17.7-23.39,19.3-38.9,1.23-11.93,7-21.7,16.33-29.39a7.25,7.25,0,0,0,2.52-4c1.33-8.9,6.87-13.66,15.06-16,3.83.77,8.2.62,11.38,2.49,8.38,4.92,15,2.12,21.58-3.2,7-1.65,14-4.63,21-4.58,6.74.05,13.61,2.79,20.14,5.13,12.42,4.43,24.91,7.13,38.18,5.15A100.85,100.85,0,0,1,935,535.31a25.22,25.22,0,0,0,3.56.29c-.21-13.65,7.84-20.89,18.83-25.94,4.06-1.86,8.12-3.76,12.17-5.65,8.79-2.7,11.61-6.25,10.5-18.6,1.05-8.62,3.05-16.9,8.71-23.84,5.29-4.89,11.42-8.65,18.65-8.37a108.38,108.38,0,0,1,22,3.34c5.25,1.31,10,4.54,15.2,6.19a12.61,12.61,0,0,0,7.84-.58c4.46-1.75,8.49-4.6,12.94-6.39,14.24-5.72,28.6-5,42.92-.13,19.69,9.85,32.93,24.84,37.7,46.77a5.55,5.55,0,0,0,3.55,3.36c5.64,1.38,11.39,2.36,17.12,3.37,5.21.92,9.74-.19,13.67-4.12A35,35,0,0,1,1208,494.73c10.74.67,21.39,2.71,32.12,3.84,4.37.47,8.83.14,13.26.17,3.36-.84,6.84-1.37,10.06-2.58,9.26-3.49,18.58-4.94,28.37-2.49a10.29,10.29,0,0,0,5.7-.69c16.6-6.23,30.89-.63,37.45,16,4.06,10.24,9.9,18,19.64,23.36,12.89,7.15,20.71,18.92,26.51,32.16,2,4.56,4.22,9,6.2,13.62,3.2,7.43,8.81,11.87,16.57,13.83,2.58.65,5.09,1.58,7.65,2.3,12.76,3.63,21,11.12,21.7,25.15,0,2,0,4-.07,6l.57,10.92c2.26,4.13,3.9,8.8,6.92,12.25,3.68,4.21,8.49,7.43,12.87,11,13.1,10.69,21.36,23.25,16.64,41.21-.41,1.55.45,3.89,1.5,5.27,3.61,4.72,7.57,9.17,11.4,13.73,7,14.53,1.08,25.23-9,36.06-14.12,15.13-26.92,31.5-40.28,47.35-8.11,8.85-11.62,19.22-10.24,31.19-.08,2-.28,4-.2,5.95A74.81,74.81,0,0,1,1409,888c-2.4,3.36-4.74,6.77-7.11,10.16-4.41,5.6-9.49,10.81-13,16.92-3.43,5.91-6.58,12.55-7.55,19.2-1.91,13.07-3.93,25.92-10.11,37.77l-8.71,13.8c1.38,1.09,2.27,1.8,3.17,2.49q21.73,16.71,43.48,33.39a19.84,19.84,0,0,1,8.18,15.25c.71,10.43,1.64,20.85,2.48,31.27a14.47,14.47,0,0,0-.2,2c.8,39.11,1.67,78.22,2.34,117.33.07,3.9,1.1,6,5.13,6.16,8.2,4.65,17.05,8.47,24.46,14.15,10.92,8.37,17.81,23.18,9.32,39.15-.41.78-.79,2.07-.44,2.7,7,12.6,8.59,26.69,9.21,40.45,1.15,25.74.88,51.56.51,77.34-.1,7.18-2.05,14.51-4.16,21.47-4.35,14.35-14.47,23.7-28.16,29.07-9.1,3.57-17.64,1.54-25.16-4.42-27,18.77-42.44,13.46-51.49.2-4.36,1.5-8.64,3.36-13.1,4.43-12,2.88-22.52,0-30.54-9.67-2.18-2.64-4.25-3.37-7.24-2.13h-1l-7-.49c-4-2-8.44-3.41-11.84-6.14-13.61-11-18.24-25.33-14.48-42.32.72-3.24.42-5.29-2.27-7.71a37,37,0,0,1-11.65-21.56c-1.72-9.7,1.34-18.39,5.29-26.93,3.77-5,7.17-10.41,11.37-15.06,10.35-11.45,21.12-22.53,31.58-33.9,1.19-1.29,2.5-4,1.94-5.16a39.3,39.3,0,0,1-.73-32.84c5.6-9.32,14.16-14.2,24.49-16.52,2.43-.55,4.77-1.5,7.2-2.07,3.9-.91,5.51-2.76,5.28-7.23-1.43-27.77-2.51-55.56-3.7-83.35l-1.2-27.9c-.31-2.38.27-5.82-1.08-7-5.22-4.4-11.06-8.07-17.14-12.33-1.18,4-2.12,7.13-3.06,10.28-8.31,13.2-16.14,26.74-25,39.52-9.8,14-17.88,28.59-22.58,45.27-2.65,9.42-7.42,18.51-12.7,26.82-4,6.32-10.27,11.26-15.69,16.65-2.79,2.78-4.46,5.74-3.55,9.76-.47,10.69-5.18,19.44-12.3,27.13a70.24,70.24,0,0,0-6.83,7.93,7.3,7.3,0,0,0-.9,5.36c1.7,6.24,3.85,12.36,5.82,18.52a3.36,3.36,0,0,0-.17,1c3,20.42-8,33.74-22.82,45.1-1.26,1-3.12,2.12-4.47,1.88-6.18-1.08-11.56,2-17.33,2.94a7.34,7.34,0,0,0-4.68,3.19c-7,12.31-19.74,19.63-32.09,17.89-2.93-.42-5.8-1.32-8.7-2l-.17-.21-.26.07-1.55-.77c-5.72-3-11.37-6.21-17.18-9.06-11.56-5.68-22.44-6-32.82,3.25-11.17,10-23.8,11.27-36.95,3.92-7.62-4.27-15.18-4.07-23.58-2.37a141.18,141.18,0,0,1-28.6,2.4c-4.33,0-6.2.44-8,4.52-10.53,23.41-39.71,35.9-60.29,26.23-1.24-.58-3.37.74-6.45,1.53,7.28,5.54,13.14,9.88,18.87,14.39q19.59,15.44,39.07,31c4.33,3.81,8.56,7.75,13.09,11.32,1.06.84,3.31.9,4.71.44,9.82-3.26,19.57-6.75,29.34-10.17l.34.18.32-.22h2.2c13,1.37,23.55,6.43,28.78,19.42a3.5,3.5,0,0,0,2.25,1.61c11.61,2.65,23.24,5.2,34.86,7.77,13.59,4.17,27.13,8.5,40.79,12.41,5.55,1.59,8.94,4.7,10.37,10.19q6,23.1,12,46.19c3.29,25.49-6.43,47.21-20.66,67.06-25.23,35.21-52.11,69.07-85.06,97.64-19.57,17-41.62,28.73-67.34,32.64-17.85,2.72-34.08-1.82-47.92-13.63-8.21-7-12.47-16.47-15.11-26.74-1.42-11.74-.08-23.28,2.61-34.71,10.53-34.31,36.53-55.55,64.93-75.76-5.51-7-10.57-13.72-16-20.09-1-1.17-3.69-1.13-5.62-1.2-8.5-.31-16.51-2-23.49-7.24-10.38-7.72-14.43-18.47-10.64-30.81,2.23-7.25,5.68-14.13,8.87-21.88-2.55-1.53-5.48-3.32-8.44-5.07-20.9-12.41-42.36-24-62.47-37.54-10.7-7.22-19.46-17.54-28.34-27.16-6.17-6.7-9.27-15.29-10.51-24.47a7.55,7.55,0,0,0-3-4.66c-14.91-10-29.52-20.71-47.59-24.71-1.09-.24-2.54-.79-3-1.64-2.94-5.39-7.08-3.31-11-1.91a106.8,106.8,0,0,1-46.67,6c-5.72-.56-12.06,1.8-17.62,4.06-6.43,2.62-12.27,6.69-18.44,10-18.27,9.7-35.9,10.57-52.86-4.77l-23.37,35.16c10,4.4,19.94,8.49,29.63,13.15q37.4,17.92,74.57,36.32c3.4,1.67,5.37,1.9,8.36-1.33a63.59,63.59,0,0,1,29.24-18.41c16.79-4.84,30.43,1.47,37.82,17.36.76,1.64,2.16,3.74,3.67,4.16,28.4,7.87,54.62,21.23,81.71,32.36,3.55,1.46,6.6,4.29,9.61,6.81a9.43,9.43,0,0,1,2.8,4.62c4.7,18.37,9.78,36.67,13.68,55.21,3.06,14.53-1.27,28.2-10.59,39.3a334.85,334.85,0,0,1-32.84,34.11,678.79,678.79,0,0,1-96.24,72.14c-11.09,6.85-23,11.51-36.36,10.6-17.41-1.19-32.08-8.44-44-21.07-8.21-8.71-10.73-19.51-9.18-31.08,4.72-35.15,16-67.1,45.33-89.86a16.3,16.3,0,0,0,1.52-1.64c-5.21-3.87-9.62-7.48-17.12-7-14.67,1-23.67-6.24-28-20.47-3.13-10.2-2.53-20.36,1.13-30.88-2.21-1-4.24-2-6.36-2.78-32-12-64-23.78-95.85-36.1-8.17-3.16-15.8-7.79-23.48-12.11-27.19-15.31-28.53-48.59-17.62-67.22,16.39-28,32.65-56.15,54.85-80.19,1-1.08,1.92-2.23,3.07-3.58-2.23-2.67-4.38-5.16-6.43-7.73-9.18-11.52-13.11-25.3-16.91-39.16-1.32-4.81-2.82-9.58-4.43-14.3a38.53,38.53,0,0,0-14.42-19.31c-5.15-3.67-10.35-7.28-15.49-11-15.11-10.87-27.91-23.7-34.65-41.55-.6-5-1.45-9.88-1.69-14.85-.11-2.19.29-5.33,1.72-6.51,4.06-3.34,3.34-6.93,1.89-10.9-.91-2.5-1.72-5-2.86-7.43-4.26-9-5.64-18.47-1.62-27.59,3.53-8,7.78-16,13.25-22.71,11.09-13.62,19.56-27.89,20.86-46,1.13-15.66,6.59-30.26,14.22-43.91,5.1-9.14,10.86-17.91,16.32-26.84,3.9-5.38,7.74-10.81,11.73-16.13,10.5-14,16.53-29.31,16.37-47.18a69.29,69.29,0,0,1,12.7-40.4c6.43-9.3,13.64-18,20.23-27.24,4.92-6.87,9.41-14,14.09-21.08,3-8,6.78-15.83,8.84-24.08,4.38-17.51,9.78-34.41,21.16-48.81l15.8-16.75C687.13,712.66,692.21,705.8,692.35,696.35Zm-129,300.88-1.43,2.07a95.37,95.37,0,0,0-11.51,36.79c-1.82,16-6.17,30.9-16.61,43.57a17.3,17.3,0,0,0-1.74,3.53c-4.92,6.56-10.14,12.92-14.67,19.74-4.1,6.18-3.32,12.55,1.06,18.57a11.48,11.48,0,0,1,2.47,5.35c.29,3.52,2.51,4.75,5.24,5.86,9,3.66,17.35,1.19,25.37-3,14.86-7.73,30.19-9.3,46.39-4.81,9.1,2.52,18.44,4.27,27.75,5.92,9.74,1.73,19,.53,26.43-6.86,10.86-10.81,23.87-15.25,39.07-13.72,8.59.86,17.2,1.48,25.8,2.19,3.08.25,5.65-.45,6.76-3.76,2.29-1.29,4.58-3.63,6.89-3.65,5.44,0,8-3.29,9.27-7.44,2.27-7.21,5-14.58,5.41-22,.54-9.38-.75-18.91-1.78-28.32-.55-5,1-7.63,5.87-8.37,1.32.16,2.64.29,4,.48,9.07,1.36,12.1,4.75,12.92,13.86,1.36,15.28,1.93,30.5-2.49,45.46-3.56,6.36-7.25,12.66-10.58,19.14a5.81,5.81,0,0,0,.13,5c5.8,8.18,8.31,17.4,8.78,27.19.32,6.81.24,13.66-.11,20.47a31.12,31.12,0,0,0,8.14,23.29,75.94,75.94,0,0,1,11.4,17.4c5.3,11.25,2.37,22.87-.35,34.24-1.81,7.56-1.38,14.54,2.2,21.74,6.75,13.57,11.2,27.88,8.89,43.33-.94,6.3-2.85,12.46-4.19,18.14,8.83,3.57,17.83,6.62,26.27,10.81s16.28,9.49,25,14.68c13.61-30.92,36.41-55.18,56.64-82-2.41-1.38-4.25-2.93-6.37-3.57-10.67-3.22-16.38-10.62-17.59-21.32a66.33,66.33,0,0,1,.06-17.86,313,313,0,0,1,6.79-31.17c2.16-8.09,2-15.51-1.42-23.3-2.55-5.88-3.63-12.39-5.36-18.63a102.74,102.74,0,0,1,5.65-38.28c2.92-8.7,3.61-17.44,3-26.75-.68-10,1.09-20.15,1.83-30.23.2-2.69,1.52-3.89,4.35-3,4.44,1.35,8.92,2.59,13.38,3.88,3.46,1.57,3.6,4.09,3.11,7.62-1,7.08-1.2,14.27-1.76,21.83h11.66c7,2.65,13.88,5.39,20.88,7.92a16.81,16.81,0,0,0,16.6-2.36c12.59-9.7,26.42-11.27,41.53-8,7.61,1.67,15.52,2.28,22.84-1.69,1.49-.81,3.54-2.18,3.75-3.53,1.89-12.36,9.69-20.8,18.21-28.94,12.7-12.13,18.64-27.55,21.14-44.56,2.3-6.76,3.58-14.13,7.14-20.15a211.61,211.61,0,0,1,19.66-27.5c8.64-10.37,17.09-20.61,18.32-34.71,2.07-23.7,11.69-43.6,29.92-59,11.61-9.79,17.11-22,17.37-37.11.32-18,6.34-34.24,16.88-48.82,3.91-5.4,10.26-6.84,15.3-3.4,5.22,3.56,6.44,9.76,3,15.37-1.73,2.84-3.48,5.68-5.27,8.49-6.53,10.25-7.68,21.87-8.33,33.55-1,17-6.85,31.75-19.59,43.45-3.07,2.81-5.91,5.88-8.93,8.74-10.19,9.7-16.23,21.54-17.56,35.5-1.88,19.69-9.9,36.27-23.29,50.75-6,6.52-10.73,14.27-16,21.47-1.87,4.54-4.52,8.93-5.48,13.66-5,24.82-13.6,47.72-33.67,64.61-11,9.3-8.83,28.9.67,35.92,1.74,1.29,2.95,3.58,3.84,5.65,3.11,7.18,6.77,14.14,7.26,22.26a13.65,13.65,0,0,0,3.17,7.21c6.32,7.68,12.86,15.18,19.49,22.6,8.21,9.18,17.31,17.9,19.53,30.66a126,126,0,0,1,1.54,22.31c-.11,14-.73,19.75,19.49,26.51,1.25.42,2.56.7,3.83,1.09,7.62,2.35,15.61,3.92,22.76,7.27,11.3,5.29,15.75,16.08,19,27.39,1.16,4.06,2.52,8.84,7.07,9.49,5.69.81,12.37,1.7,17.29-.47,10.72-4.7,15.2-14.64,13.56-26.23-.52-3.71-2.09-7.33-3.51-10.86-4.19-10.44-3.78-20.11,4.18-28.76a66.42,66.42,0,0,0,6.83-7.92c2.53-3.79,6.32-7.9,6.41-12,.26-12.3,5.2-21.6,14.11-29.61,4.79-4.29,10.26-8.87,12.73-14.5,6-13.62,10.34-27.93,15.35-42l2.94-5,.76-1.07c8.35-12,16.74-23.94,25-36,6.45-9.36,11.79-19.23,14.07-30.56.87-4.31.38-7.56-3.71-10.22-10.7-7-21.19-14.26-31.76-21.42-1.44-1.34-2.88-2.67-4.31-4-10.85-10.24-22.47-19.79-32.34-30.9-11.62-13.1-17.68-28.76-14.73-46.88,1.8-11,10.62-19.19,21.65-18.88,5.53.16,11,1.81,16.53,2.78L1345,972.35c7.07-10.23,13-21.23,13.55-34.44a87.25,87.25,0,0,1,1.51-10.86c2.49-14.35,11.11-25.34,19.59-36.55a218.66,218.66,0,0,0,17.89-26.92c5.55-10.17,3.89-21.76,3.76-32.88-.16-13.65,3.61-26.06,11.89-36.82,9-11.73,18.51-23.1,27.92-34.53,5.67-6.89,11.56-13.58,17.36-20.36,6.56-3.61,7.27-6.86,2.71-12.48a16.43,16.43,0,0,0-2.44-2.49c-9.67-7.69-12.65-17.64-9.75-29.41a12.59,12.59,0,0,0-4.26-13.45c-5.63-4.93-11.47-9.63-17-14.62-10.7-9.58-16.68-21.36-16.66-36,0-13.62,0-13.86-13-17.55-14.77-4.2-25.21-13-31.24-27.17-1.57-3.67-3.5-7.2-4.94-10.92-4.61-12-12.24-21.22-23.61-27.37-10.29-5.56-17-14.25-21.07-25.06-1.08-2.85-2.47-5.57-3.73-8.35l-1.21.47c.22,1.23.37,2.48.67,3.69,3.93,16.18-.24,30.3-10.94,42.7-3.27,3.78-6.75,7.36-10.14,11-5.33,5.78-8,12.43-7.45,20.47.37,5.62-.07,11.3-.15,17-2.3,10.78-7.88,19.66-15.93,27-15,13.72-22.89,30.84-24.11,51-1.8,29.93-16.37,53.58-36.23,74.71a10.22,10.22,0,0,1-10.38,3.29c-8.91-2.14-11.31-12-4.7-19.13,16.66-18.05,28.42-38.17,29.84-63.63,1.29-23.14,11.2-42.83,27.48-59.31,9.3-7.32,14.29-16.51,12.52-28.68-.17-1.15-.06-2.33-.12-3.49-.61-12.32,3.73-22.86,11.6-32.08,3.35-3.92,7.29-7.38,10.34-11.51,2.91-4,5.83-8.26,7.28-12.86,2-6.4,1.3-13.77-3.28-18.43-4.4-4.48-11-2.05-16.55,0-1.72.63-3.45,1.23-5.19,1.82a59.92,59.92,0,0,1-32,1.73c-6.36-1.29-12.78-2.34-19.21-3.2-8.92-1.2-17-.05-23.86,7-5.87,6-13.88,8.14-22.11,7.36-8.75-.84-17.39-2.82-26.11-4.08-11.17-1.63-22.34-3.51-33.58-4.37-7.83-.6-14.25,2.87-19.44,9.31-3.34,4.15-8.12,7.24-12.57,10.35-2.17,1.53-5.07,2-7.1,2.77,1,3.44,1.93,6.39,2.82,9.35-1.63,3-2.73,6.43-5,8.77-7.92,8.16-12.91,17.54-13.6,29-.42,7.09-.84,14.2-.85,21.3,0,3.65-1.24,5.2-4.84,4.86l-17.55-1.41c.64-10.58.93-21,2-31.39,1.09-10.77,5.79-20.34,11.75-29.11-7.7-7.24-7.94-12.36-1.47-20.12,5.31-6.38,12.15-10,20-12.52a23.14,23.14,0,0,0,10.52-6.73c7.53-9.16,16.91-14.46,28.52-15.71,6.32-.69,12.71-.69,19.38-1-.33-1-.51-1.78-.84-2.51-8.41-18.61-31.27-33.47-56.16-17.76-10.87,6.86-21.38,7.12-32.63,1.61a91.57,91.57,0,0,0-14.34-5.76c-12.3-3.63-16.29-.42-16.13,12.43.83,20-10.09,31.35-27.78,37.78-3.43,1.24-6.69,2.92-10.07,4.32-3.77,1.56-5.06,4-3.07,7.81,2.52,4.87,4.8,9.86,7.36,14.7,2.25,4.25,2.78,9.05-.77,12-4.47,3.71-4.64,8.24-5.42,13.09-.69,4.24-1.29,8.82-3.35,12.44-9.48,16.69-19.46,33.09-29.83,50.55l-3-3.87c-2.45-3.53-4.45-7.53-7.47-10.48-4.07-4-3.08-7-.3-11.09,6.2-9.18,11.89-18.71,17.8-28.1,5.45-7.93,5.36-16.93,4.77-26a4.3,4.3,0,0,0-2.65-2.86c-11.12-3-22.38-5.51-34-3.7-20.24,3.15-39.82,1.52-58.55-7.35-7.47-3.53-14.55-3.19-21.73,1.58-8.39,5.58-17.66,8.51-28,6.09-1.14-.27-2.72.55-3.86,1.25-1.67,1-3,2.64-4.72,3.58-10.33,5.68-16.47,13.81-17.67,26-1.56,15.91-8.31,29.64-19.63,41.11-4.44,4.49-8.45,9.41-12.67,14.13-13.35,14.93-22.6,31.58-22.93,52.3-.28,18-8.83,32.19-21.73,43.94a85.69,85.69,0,0,0-27,47.31c-3.33,16.1-8.67,31.52-18.48,45-7.07,9.67-14.49,19.09-21.92,28.49-10.66,13.5-16.85,28.41-16.64,46a69.67,69.67,0,0,1-10.68,38c-5.86,9.47-12.47,18.48-18.5,27.85-5.73,8.92-11.12,18.06-16.67,27.1ZM517.8,1153.74c.53,8.1,3.38,15,8.8,20.1,8.68,8.15,17.53,16.36,27.34,23,16.82,11.42,27.88,26.26,32.6,46.05a218.89,218.89,0,0,0,7,22.91c2.4,6.71,5.81,13,11.82,17.69,1.35-1.25,2.47-2.2,3.5-3.25,7.42-7.65,14.89-15.25,22.17-23a39.17,39.17,0,0,0,5-7.22c2.44-4.17,5.66-7.54,10.72-6.6,5.79,1.08,12,2.16,16.95,5.08,12.64,7.47,21.53,18.7,27.76,32,2.83,6,.31,12.11-5.76,14.92-1.47.68-3.19,1.41-4.09,2.64-10.68,14.63-21.18,29.4-31.87,44-1.87,2.56-1.15,4.16.84,5.94,5.06,4.51,11.06,5.91,17.19,3.57a123.29,123.29,0,0,0,19.22-9.38c13.22-7.9,27.1-13.06,42.7-10.61,9.24,1.45,17.74-.93,26.5-2.91,6.92-1.57,10.34-6,12.42-12.23,4.18-12.43,2.6-24.71-3.3-35.83-7.73-14.59-9.14-29.33-4.42-44.79,3.32-10.89.65-19.76-7.11-27.81-9.28-9.63-14.09-21.17-13.53-34.8a188.25,188.25,0,0,0,0-21,45.32,45.32,0,0,0-3.16-13.46c-2.52-6.21-4.75-6.88-11.21-5.16a14.55,14.55,0,0,1-4.4.7c-8.46-.45-16.92-.84-25.35-1.64-11-1.06-21.19-1-30,8-9.08,9.28-21,14-34,12.51-13.65-1.6-27.21-4.25-40.65-7.16-9.64-2.09-18.58-2-27.64,2.4-9.73,4.72-19.71,9.25-31,7.91C527.89,1155.66,523.05,1154.63,517.8,1153.74Zm501.35-44.25c-9.55,3.74-20.24,3.15-31,.92-9.32-1.93-17.78-1.29-25.85,5a31.79,31.79,0,0,1-25.45,6.62,129.71,129.71,0,0,1-22.32-6.75c-8.48-3.23-12.82-1.57-15.36,7-1.18,4-2.42,8-3.3,12-2.48,11.41-3.12,22.72,2.22,33.66a42.53,42.53,0,0,1,4.12,24.76c-.72,5.24-2.44,10.34-3.37,15.57-2,11.08-3.86,22.18-5.43,33.32-.25,1.75.85,4.62,2.24,5.5,5.15,3.22,10.69,5.82,16.37,8.81.39-.34,1.15-1,1.87-1.63,11.41-10.69,22.73-21.49,34.28-32,2.72-2.47,6-5.22,9.42-5.86,20-3.75,36.62,3.13,50.44,17.4,5.58,5.76,5.64,14.87,1,21.2-9,12.2-17.81,24.47-26.68,36.72-2.19,3-4.3,6.11-6.45,9.19,14.52,9,29.11,13.39,45.54,8,11.49-3.79,23.14-3.8,33.79,2.42,8.44,4.94,14.76,3.06,21.84-2.83,11.07-9.21,24.24-11.92,38-7.55,9.13,2.9,17.75,7.38,26.61,11.13,2.6,1.11,5.28,3.12,7.81,3,2.77-.16,5.52-2.2,8-3.81.44-.28.14-3-.62-3.66-5.75-5.35-8.69-12.28-10.41-19.58-2.08-8.8-7.54-12.81-16-14.9a159.16,159.16,0,0,1-26.85-8.9c-12-5.41-20.21-14.69-21.56-28.41a224.32,224.32,0,0,1-.68-22.91c0-8.67-3.17-15.86-9-22s-11.79-12.2-17.53-18.45c-10.23-11.13-18.06-23.45-18.72-39.2a8.52,8.52,0,0,0-1.41-4.69C1029.91,1122.29,1024.8,1116.3,1019.15,1109.49Zm-10.48,433.77c.86-.29,1.49-.46,2.08-.72,12.44-5.61,24.84-11.34,37.37-16.75a14.35,14.35,0,0,1,7.7-.88c4.76.79,8.14,5.23,8.38,9.95.25,5-2.56,9.17-8.24,11.18-33.94,12-62.81,32-88.14,57.14-13.25,13.19-21.37,29.15-23.11,48.11-1.55,17,6.93,29.62,23.66,32.81a55,55,0,0,0,20.7-.34c21.53-4.32,39.1-16,55.25-30.55,21.32-19.13,39.82-40.75,57-63.45,10.54-13.89,20.37-28.39,29.58-43.2a48.06,48.06,0,0,0,6.43-35.14c-2-10.28-5.15-20.34-7-30.64-1.38-7.59-6.27-10.43-12.79-12-18-4.41-35.92-8.73-53.84-13.27-3.18-.81-4.22.37-5.6,3-3.55,6.77-7.46,13.37-11.53,19.84-2.65,4.23-6.83,5.78-11.72,4.64-4.52-1-7.56-4.16-7.93-8.61-.25-2.9.83-6.19,2.17-8.88,2.83-5.64,6.67-10.79,9.27-16.51,3.11-6.86.45-13.48-5.36-14.69-7.48-1.56-13.68,1.94-20.27,4.79,9.06,14.45,10.08,21.34,2.07,32.41-6,8.25-13.57,15.42-21.07,22.41-4.54,4.23-10.41,3.8-15.89.85-4.8-2.59-9.6-5.16-15-8-2.17,4.67-4.37,8.76-6,13.07-2.5,6.59-.45,11.11,6.62,11.94,11.65,1.37,23.53,2.83,34.8-2.64,5.94-2.88,12.1-.85,15,4.65s.68,11.68-5.08,14.83c-2.4,1.31-4.87,2.46-7.57,3.81Zm-269-84.7c6.92,8.63,9.7,16.79,6.34,26-5.82,15.87-26.18,28.86-43,27.77-8.63-.55-9.32.13-8.71,9.21a31,31,0,0,0,1.15,5.85c1,3.58,3.34,5.57,7,4.61,7.5-2,15.05-3.86,22.3-6.55,5.51-2.05,10.68-1.72,14.11,2.36s3.46,9.48-.12,14.21c-.58.76-1.23,1.47-1.93,2.31,2.69,3.31,5,1.09,7.09-.12a196.28,196.28,0,0,1,61.71-22.39c7.65-1.43,13.5,2.33,14.35,9.28.74,6-3.26,10.83-10.56,12.21-21.19,4-40.8,11.8-59.47,22.59-33.16,19.15-50.47,48.15-55.47,85.49C693,1661.7,696.28,1669,705,1674.63c13.8,8.87,27.75,10.72,42.34,2.22,3.17-1.85,6.45-3.54,9.41-5.68,21.86-15.79,44.3-30.87,65.28-47.77,17.18-13.85,33-29.53,48.65-45.1,8.56-8.49,12.05-19.42,8.92-31.73-3.49-13.71-6.74-27.48-10.5-41.11-.59-2.12-3-4.37-5.15-5.32q-19.14-8.58-38.58-16.51c-10.27-4.22-20.67-8.11-31.41-12.29a35.56,35.56,0,0,1-1.33,5.22c-3.38,7.55-6.42,15.3-10.48,22.47-2.78,4.91-9,5.78-13.71,3.21a10.81,10.81,0,0,1-5.18-13.22,26.47,26.47,0,0,1,2.78-4.71c5.58-8.35,7.07-17.51,5.22-27.25-1.58-8.32-5.8-11.16-13.57-8.12C751.63,1451.32,746.1,1455.05,739.64,1458.56Zm610.53-241.94c-3.65,1-6.85,1.82-10,2.74-10.33,3-13,10-7.39,19.4,5.06,8.56,12.85,12.61,22.35,14.3,6.52,1.16,10.2,6.56,9.16,12.66a10.39,10.39,0,0,1-13,8.54c-6.88-1.69-13.44-4.63-20.21-6.82-1.43-.47-3.89-.74-4.62,0-12.77,13.8-25.51,27.63-37.81,41.84-2.58,3-3.92,7.35-4.88,11.32-1.37,5.65,3,13.51,7.2,14.43,10.2,2.19,13.24,8.15,9.51,17.87a55.36,55.36,0,0,0-3.76,13.39c-1.34,11.92,7.11,19.17,18.28,16.18,5.83-1.56,11.63.76,15.12,6,6.85,10.36,9.66,11.11,20.74,5.51,1-.53,2.05-1.11,3.09-1.64,12.24-6.25,19.41-4,25.53,8.4,1.44,2.94,3.34,3.84,5.87,2.5,4.91-2.61,10.11-5.06,14.24-8.66,4.37-3.8,8.73-7.49,14.51-6,3.94,1,7.48,4,10.84,6.61,2.29,1.77,4.18,3.16,7.1,1.61,6.43-3.42,11.55-8,13.47-15.29,1.27-4.81,2.77-9.77,2.8-14.67.17-25.46.27-50.94-.44-76.39-.25-9-2.87-17.87-4.48-27.19-4,1.31-7,2.35-10,3.26-7.33,2.22-13.42-.58-15.28-7-1.81-6.23,1.63-11.5,8.8-13.92a54.29,54.29,0,0,0,10.07-4.27c6.39-3.77,7.33-9.41,2.59-15s-11.47-8.77-18.87-11.54c-.62,3.46-1.25,6.35-1.65,9.27a20.08,20.08,0,0,1-11.38,16c-12.8,6.46-26.18,7-39.91,3.78-9.52-2.21-14.93-7.91-15.7-17.89C1351.85,1223,1350.87,1220,1350.17,1216.62Zm-110-280a64.71,64.71,0,0,0-.74,7.24c.19,7.57,2.49,14.66,7.34,20.32,7.22,8.45,14.46,17.13,23,24.18,11.11,9.22,23.65,16.69,35.24,25.37,16.38,12.27,32.2,25.31,48.76,37.33,7.73,5.61,11.51,12.11,11.87,21.61,1.05,28,2.71,55.89,4,83.84.78,17.46.85,35,2,52.41,1,15.58,4.56,17.71,20.07,14.21.65-.15,1.27-.42,1.92-.53,2.87-.46,4.35-2.07,4.58-5,.66-8.13,1.92-16.24,2-24.36q.22-26.48-.56-53c-1-32.28-2.22-64.56-3.58-96.83a10.19,10.19,0,0,0-3.24-6.71c-43.27-35.18-89.59-65.88-138-93.54C1250.52,940.73,1245.79,939.1,1240.16,936.6ZM989.67,1245.21c-5.15-2.58-9.11-5-13.37-6.58-6.89-2.6-12.68-1.32-18.53,4-24.63,22.54-48,46.13-68.14,72.89-11,14.57-21.15,29.44-29.61,45.58-6.53,12.45-5,23.69,4.43,33.46,7.57,7.89,15.3,16.16,24.43,21.91,28.73,18.11,58.09,35.2,87.34,52.48,8.69,5.13,8.88,4.81,15.67-2.72,7.71-8.54,8-10.26-.85-17.61-25.1-20.87-50.73-41.11-75.68-62.15-6.55-5.52-12-8.65-19.4-2.54a7.84,7.84,0,0,1-2.3.94c-7.33,2.82-13.57.71-15.92-5.37-2.43-6.28.42-11.86,7.86-14.85a62.21,62.21,0,0,0,23.75-16.2c8.83-10,17.54-20.08,25.64-30.64C953.13,1294.21,970.86,1270.25,989.67,1245.21ZM725.3,1476.38c-6.92-3.34-13.48-6.58-20.09-9.69q-51.74-24.35-103.49-48.68c-6.08-2.87-11.82-4.08-17.61.65-1.48,1.21-3.59,1.74-5.48,2.35-6,1.91-11.86-.87-13.89-6.46-1.92-5.32.48-11.63,6-13.7,12.67-4.78,21-14.29,28.5-24.89q29.85-42.21,59.79-84.33c8.75-12.25,8.89-12-2.62-21.88-2.69-2.3-4.44-2.49-7,.21-12.07,12.65-24.51,25-36.46,37.71-17.34,18.51-33.6,37.88-45.48,60.53-1.83,3.49-4.53,6.53-6.51,10-4.06,7-8.72,13.89-11.67,21.39-4.74,12.08-.45,24.89,10.3,32a113.29,113.29,0,0,0,21.07,11.28c39.27,15.26,78.71,30,118,45.09C710.13,1492.27,720,1488.15,725.3,1476.38ZM971,1322.46c-3.5-.54-8.7-2.78-10.11-1.32-6.64,6.83-12.23,14.67-18.43,22.43C954,1346.17,968,1336,971,1322.46Z"/><path class="cls-2" d="M783.41,528.93c-8.19,2.34-13.73,7.1-15.06,16a7.25,7.25,0,0,1-2.52,4c-9.29,7.69-15.1,17.46-16.33,29.39-1.6,15.51-8.32,28-19.3,38.9a168.6,168.6,0,0,0-28.74,38.13c-5.63-5.1-11.46-10-16.86-15.36a114.94,114.94,0,0,1-33.13-63.9c-2.47-14.47-2.34-29,2-43.14C656.6,523,663,515.11,671,508.6a108.27,108.27,0,0,1,35.4-18.93,79,79,0,0,1,19.5-3.13c4.5-.25,7.52-1.41,9.7-5.41,1.48-2.73,3.66-5.08,5.35-7.35-3.91-5.71-8.4-10.94-11.4-16.92-8.87-17.7-20-34.47-23.36-54.54-1.82-11-.84-21.8,1.19-32.62,3-15.95,8.3-30.91,21.09-41.71,12.57-10.6,27.37-17.24,43-22.2,13.65-4.34,27.51-8,41.83-7.18a99.51,99.51,0,0,1,27.49,5.27c18.1,6.45,32.44,19,47,31.24,11.08,9.34,22.78,18.41,38.5,17.12,9.6-.78,18.76-.41,27.57,3.76a4,4,0,0,0,2.39-.07c14.07-3.59,28-.88,41.95,1,7.36,1,14.69,2.37,22,4,14.19,3.13,25.46,11.62,36.6,20.36,8.59,6.76,17,14.19,28.45,15.46,6.7.74,13.54.16,20.32.15,8.21,0,16.62-1.18,24.58.23,12.53,2.22,20.34,11.33,24,22.93,3.09,9.68,4.32,20,6.17,30,1.4,7.58,3.26,14.75,8.75,20.72,5.85,6.38,13.08,5.2,20,4.1,13.69-2.18,27.19-4.26,40.57,1.44,9.79,4.17,17.35,10.91,23.32,19.56.5.73.35,1.92.5,2.9-4.43,0-8.89.3-13.26-.17-10.73-1.13-21.38-3.17-32.12-3.84A35,35,0,0,0,1180.3,505c-3.93,3.93-8.46,5-13.67,4.12-5.73-1-11.48-2-17.12-3.37a5.55,5.55,0,0,1-3.55-3.36c-4.77-21.93-18-36.92-37.7-46.77a29,29,0,0,0,.59-4.41c-.08-5.26.78-10.85-.71-15.7-2.86-9.29-10.68-13.09-19.88-14.12-13.75-1.54-26.33-5.13-36.41-15.72-7.54-7.93-16.2-15.11-26.72-18.7-16.82-5.74-34-10.57-52.23-16.18,1.05,2.08,1.43,2.74,1.72,3.43,2.58,6.08,5.91,12,7.54,18.31,3.34,13-.69,25-6,36.94-2.18,4.9-3.52,10.93-2.89,16.17,1,8.5,7.8,13,15.45,15.92-5.66,6.94-7.66,15.22-8.71,23.84-7.93-6.21-16-12.29-23.73-18.69a78.4,78.4,0,0,1-11-10.71c-6.53-8-4-17.9-3.43-26.71.41-6.33-1.36-10.44-4.86-14.74-.94-1.15-1.84-2.34-2.82-3.47-9.58-11.06-19.79-21.14-35.26-23.4-5-.73-10.22-1.37-15-3.07-14.33-5.16-28.3-8.34-43.3-1.63-13.11,5.86-20.86,13.64-20.38,29.47.34,10.79,7.53,17.28,18.4,15.82,6.71-.91,13.39-2.07,20.07-3.19a46.41,46.41,0,0,1,36.2,8.6,171,171,0,0,1,17.56,15.42c15.69,15.14,31.17,30.49,46.79,45.69,3.28,3.2,6.8,6.15,10.21,9.21-4,1.89-8.11,3.79-12.17,5.65-11,5.05-19,12.29-18.83,25.94a25.22,25.22,0,0,1-3.56-.29,100.85,100.85,0,0,0-39.23-1.39c-13.27,2-25.76-.72-38.18-5.15-6.53-2.34-13.4-5.08-20.14-5.13-7,0-14,2.93-21,4.58-4.77-3.58-9.52-7.18-14.34-10.69-.41-.3-1.3-.06-1.93.09-3.37.78-6.72,1.68-10.1,2.4C785.13,521.06,782.24,523.47,783.41,528.93Z"/><path class="cls-2" d="M692.35,696.35c-.14,9.45-5.22,16.31-11.69,22.46-.49-1-.72-2.34-1.49-3.08-8.87-8.44-19.31-13.4-31.62-10.77-13.32,2.84-26.48,6-40.25,5.5-4.07-.14-8.18,1-12.28,1.52q-17.71,2.21-35.43,4.36c-11.15,1.35-22.5,1.78-33.4,4.21-22.39,5-35.44,20.3-41.68,41.7-2.76,9.49-2.35,19.34-.88,29.06.84,5.54,2.16,11,3.26,16.49a6,6,0,0,0,1.5-4.32c0-7.66-.56-15.38.24-23,.46-4.36,2.92-8.61,5-12.61.53-1,3.34-1.53,4.8-1.14.93.24,1.65,2.53,1.84,4,.15,1.2-.94,2.52-.93,3.79.07,7.2-.54,14.56.75,21.55,1,5.65,8.45,9.37,12.19,7.64,6.94-3.19,12.15-7.93,14.07-15.68s4-15.72,6-23.57c2.34-9.12,10.22-17.5,17.93-18,6.25-.38,12.58.35,18.87.61,9.91.43,19.54-.58,27.9-6.46,10.44-7.34,21.81-12.35,34.63-11.08,11.13,1.1,22.1,3.93,33.14,6-11.38,14.4-16.78,31.3-21.16,48.81-2.06,8.25-5.84,16.07-8.84,24.08-2-.65-4.09-1.24-6.1-2-9.44-3.38-19.21-6.36-29.16-4.81-14.16,2.22-28.13,5.76-42.15,8.86a8.63,8.63,0,0,0-3.84,2.19c-8.88,8.43-15.52,18.56-20.92,29.41-5.33,10.68-10.2,21.61-14.73,32.65-1.48,3.6-5.32,7.48-.64,12,9.53,9.16,14.77,21.09,20.29,32.8,5.8,12.32,11.51,24.68,17.5,36.9.83,1.68,3,2.68,4.63,4-5.46,8.93-11.22,17.7-16.32,26.84-7.63,13.65-13.09,28.25-14.22,43.91-1.3,18.09-9.77,32.36-20.86,46-5.47,6.73-9.72,14.72-13.25,22.71-4,9.12-2.64,18.58,1.62,27.59,1.14,2.39,2,4.93,2.86,7.43,1.45,4,2.17,7.56-1.89,10.9-1.43,1.18-1.83,4.32-1.72,6.51.24,5,1.09,9.9,1.69,14.85-9.38-4.19-15.66-11.63-20.13-20.44-7.49-14.73-9-30.25-5.41-46.47a173,173,0,0,0,3.23-24.57c1-12.57-4.5-23.23-11.3-33.25-9.87-14.54-23.54-25.11-37.64-35.16-9.85-7-18-15.82-21.28-27.4a103.64,103.64,0,0,1-3.39-29.43c.24-12.17,4.58-23.63,9.87-34.66,4.42-9.21,11.79-15.84,18.66-23a39.67,39.67,0,0,0,5.46-8.1c4.46-7.81,9.49-15,16.42-21A223.89,223.89,0,0,0,471.88,844c1.15-1.28.6-5-.34-7.11-3.46-7.68-6.82-15.52-11.3-22.62-9.66-15.31-10.06-31.54-5.69-48.22,3.36-12.85,8.1-25.24,15.65-36.39s18-18.81,29.17-25.79c13.47-8.38,27.86-14.49,43.7-15.19,8.95-.4,18,1.81,27,3.08,9.64,1.36,19.22,3.9,28.89,4.25,7.46.27,15-1.8,22.5-3.29,9.4-1.88,18.63-4.9,28.1-6.22a51.89,51.89,0,0,1,32.24,5.5A108.84,108.84,0,0,0,692.35,696.35Z"/><path class="cls-3" d="M1138.32,1335.2c2.9.69,5.77,1.59,8.7,2,12.35,1.74,25.12-5.58,32.09-17.89a7.34,7.34,0,0,1,4.68-3.19c5.77-.91,11.15-4,17.33-2.94,1.35.24,3.21-.91,4.47-1.88,14.82-11.36,25.86-24.68,22.82-45.1a3.36,3.36,0,0,1,.17-1c5.63,3.88,11.37,7.62,16.86,11.69a81.26,81.26,0,0,1,22,24.39c-4,8.54-7,17.23-5.29,26.93a37,37,0,0,0,11.65,21.56c2.69,2.42,3,4.47,2.27,7.71-3.76,17,.87,31.36,14.48,42.32,3.4,2.73,7.87,4.13,11.84,6.14-1.58,25.82-4.6,51.43-14.14,75.7-6.18,15.73-14.78,30.2-28.06,41-10.76,8.77-23.91,11.36-37.48,12.58-21.85,2-39-7.66-55-21-2.44-2-5.5-3.35-8.26-5q-6-23.09-12-46.19c-1.43-5.49-4.82-8.6-10.37-10.19-13.66-3.91-27.2-8.24-40.79-12.41,3.19-1.71,6.23-3.87,9.61-5,7.81-2.7,15.87-4.73,23.69-7.4,6.76-2.31,13.54-10.66,13.91-16.79-11.52,8.25-23.9,8.39-36.73,4.7-10-2.88-19.9-6-30-8.51a76.77,76.77,0,0,0-37.38.1c-3.16.78-6,2.73-9,4.14h-2.2a.8.8,0,0,0-.66,0c-9.77,3.42-19.52,6.91-29.34,10.17-1.4.46-3.65.4-4.71-.44-4.53-3.57-8.76-7.51-13.09-11.32,7-4.1,14.28-7.71,20.82-12.41,8.72-6.28,17.36-12.44,27.38-16.61,15.22-6.35,30-5.82,45.27.21a396.92,396.92,0,0,0,41,13.47c12.79,3.49,24.47-2.77,26.75-14.67,1.72-9,1.57-18.47,1.07-27.67C1142.34,1346.62,1139.84,1340.94,1138.32,1335.2Z"/><path class="cls-2" d="M1423.54,834.35c-1.38-12,2.13-22.34,10.24-31.19,2,3.12,4.33,6.09,6,9.39,8.08,16.18,21.59,27,35.94,37.06,8.11,5.69,16.67,10.9,21.1,20.58,5.06,11,4.12,21.84.16,32.85-4.64,12.91-15.41,20-25.65,27.65-15.58,11.65-19.06,24.8-11.14,42.3a145.62,145.62,0,0,0,28.46,41.16c8,8.24,14.46,17.34,16.76,28.86,2.67,13.41.89,26.5-8.34,36.45-7.87,8.48-9.3,18.13-10.8,28.41-.78,5.35-2.18,10.61-3.33,16,9.65,7.19,28.94,3.51,35.84-9.79a88.27,88.27,0,0,0,6.59-17.06c2.63-9.55,9-16.18,16.16-22.2,4.55-3.83,9.65-7,14.54-10.44,14.71-10.29,16.3-30.83,4.06-41.85-9.38-8.45-18.76-16.91-27.72-25.79s-16-18.92-17.49-31.65c-.74-6.24-.1-12.75.76-19,.5-3.65,3.49-5.89,7.93-5.6,0,4.83-.45,9.6.09,14.26,1.48,12.87,9.82,21.71,19.24,29.18,14.27,11.31,29.38,21.55,43.77,32.71,9.75,7.57,12.87,18.28,11.15,30.24-1.73,12.13-8,22-16.38,30.69-7.26,7.51-14.62,14.93-22.18,22.13a47.09,47.09,0,0,0-14.77,32.28c-1.41,26-26.18,32.78-43.08,30.93-9.63-1.06-19.43-2.28-29-1.57-11.38.85-20.84,7.2-29.31,14.67-4.49,4-8.92,8-13.11,12.22-1.4,1.41-2,3.64-2.91,5.49-4-.13-5.06-2.26-5.13-6.16-.67-39.11-1.54-78.22-2.34-117.33a14.47,14.47,0,0,1,.2-2c1.22-2.06,3-4,3.59-6.2,4.36-15.34,1.74-30.3-7.79-42.31-8.5-10.72-19.95-19.12-30.24-28.38-6.09-5.48-11.51-11.35-14.16-19.31,6.18-11.85,8.2-24.7,10.11-37.77,1-6.65,4.12-13.29,7.55-19.2,3.54-6.11,8.62-11.32,13-16.92,2.41,2,4.72,4.16,7.24,6,11.46,8.46,13.82,19.77,7.16,32.32-3.48,6.57-7,13.31-9.08,20.4-1.93,6.72-2.86,14.05,3.77,19.78,3,2.56,4.91,6.26,7.65,9.12,7.59,7.88,14.95,16.08,23.22,23.19,4.93,4.23,11.43,6.66,17.22,9.9l1.2-1.53c-.9-1.44-1.71-2.94-2.72-4.3-9.44-12.54-17.93-25.59-22.18-40.93-4.17-15.1-2.69-29.18,7.36-41.87,4.83-6.1,9.53-12.34,13.75-18.86,10.78-16.64,11.17-39.86-.72-51.62C1446.1,850.24,1434.36,842.76,1423.54,834.35Z"/><path class="cls-4" d="M872.89,298.75c7-3.95,14-1.3,20.82-.05a35.3,35.3,0,0,1,7.62,2.24c5.25,2.29,9.64,1.57,14.74-1.39,7.15-4.15,15.16-2.45,22.7-.13,10.43,3.21,20.75,6.79,31.16,10,6.22,1.94,12.2.21,17.8-2.33,8.72-4,17.08-8.77,25.94-12.36a29.43,29.43,0,0,1,13.95-1.94c15.88,1.89,29.71,8.86,41.81,19.19,9.69,8.28,21.23,12.67,33.08,16.62,8.48,2.83,16.92,5.95,22.94,13.71-4.43,4.44-10,3.83-14.61,2.79a290.92,290.92,0,0,1-36.15-10.37c-5.88-2.16-10.9-6.84-16.07-10.7-8-6-15.76-8.13-25.57-2.9-7.6,4.06-16.22,6.95-25.31,6.19a33.59,33.59,0,0,0-18.63,4.05A44.23,44.23,0,0,1,967,336.47c-5.07-.17-8.69-1.78-11.55-6.26-6.78-10.64-15-13.94-27-10.46-3.58,1-7.12,3.88-9.56,6.82-5.29,6.38-15.34,6.41-21-.05C889.81,317.31,881.5,308.28,872.89,298.75Z"/><path class="cls-4" d="M1311.69,474.56c.74-11,14.87-19.71,23.58-20.32,16.37-1.13,27.79,7.29,37.82,18.51,12.27,13.76,17.62,30.24,17,48.45a29.42,29.42,0,0,1-4.45,13.88c-4.62,7.46-13.45,6.95-17.27-1.05-2.58-5.39-3.08-11.73-5.11-17.44-3.58-10.1-7.14-20.27-11.6-30-4.13-9-13-10.6-21.82-11.19C1323.81,475,1317.75,474.83,1311.69,474.56Z"/><path class="cls-3" d="M926,1631.5c-2.69,11.43-4,23-2.61,34.71-6.72-.27-11.49,3.53-16.15,7.63-4.1,3.6-8.09,7.39-12.48,10.61-4.8,3.53-9.86,2-12.27-3.28-5-10.83-.44-29.12,9-36.42q4.13-3.18,8.21-6.42C907.47,1632.2,916.42,1630.68,926,1631.5Z"/><path class="cls-5" d="M1483.08,719.75c-3.83-4.56-7.79-9-11.4-13.73-1-1.38-1.91-3.72-1.5-5.27,4.72-18-3.54-30.52-16.64-41.21-4.38-3.57-9.19-6.79-12.87-11-3-3.45-4.66-8.12-6.92-12.25,7.67,7,16.21,13.32,22.79,21.24,7.65,9.22,14,19.59,20.13,30,5,8.48,6.59,18.26,7.49,28C1484.29,716.87,1483.46,718.33,1483.08,719.75Z"/><path class="cls-5" d="M1433.18,625.37c0-2,0-4,.07-6C1433.23,621.36,1433.2,623.37,1433.18,625.37Z"/><path class="cls-3" d="M1309.33,1406.47h0Z"/><path class="cls-6" d="M1250.22,623.4c-16.28,16.48-26.19,36.17-27.48,59.31-1.42,25.46-13.18,45.58-29.84,63.63-6.61,7.15-4.21,17,4.7,19.13a10.22,10.22,0,0,0,10.38-3.29c19.86-21.13,34.43-44.78,36.23-74.71,1.22-20.16,9.09-37.28,24.11-51,8-7.35,13.63-16.23,15.93-27a15.78,15.78,0,0,0,2.65-1.27c8.52-6.26,12-7,19.74,0,9.45,8.54,19.84,12.22,32.44,12.49,6.72.15,13.83,2.33,20,5.26,13.29,6.33,22.61,16.62,26.69,31.17a29.14,29.14,0,0,0,12.83,17.24c8.58,5.31,17.44,10.24,26.48,14.71a26.32,26.32,0,0,1,14.2,16.4c4,12.53,8.47,24.85,19.24,33.52-5.8,6.78-11.69,13.47-17.36,20.36-9.41,11.43-18.9,22.8-27.92,34.53-8.28,10.76-12,23.17-11.89,36.82.13,11.12,1.79,22.71-3.76,32.88a218.66,218.66,0,0,1-17.89,26.92c-8.48,11.21-17.1,22.2-19.59,36.55a87.25,87.25,0,0,0-1.51,10.86c-.59,13.21-6.48,24.21-13.55,34.44l-88.56-53.25c-3.25-4.29-6.18-8.87-9.82-12.79-4.75-5.1-10.39-9-17.76-9.51-10.7-7-18.63-3.64-20.08,8.46-1.36,1.13-3.31,2-4,3.46-1.82,4-3.1,8.24-4.59,12.39-5.48,1.17-8.37,4.72-9.8,10-2.83,10.39-2.08,20.59.89,30.8,2.45,8.43,5.14,10.69,14,11.22,2.44,11.9,10.76,19.43,19.73,26.44,13.13,10.24,28.37,15.12,44.6,17.43,10.57,7.16,21.06,14.46,31.76,21.42,4.09,2.66,4.58,5.91,3.71,10.22-2.28,11.33-7.62,21.2-14.07,30.56-8.3,12-16.69,24-25,36-.25.36-.5.72-.76,1.07l-2.94,5c-1.46,1-3.17,1.76-4.33,3-4.61,5-8.52,10.79-13.67,15.1a280.85,280.85,0,0,1-24.88,18.13c-21.94,14.61-46.23,18.53-71.94,14.7-19.3-2.87-35.08-18.69-33-39.87a147,147,0,0,1,4.39-22.87c2.57-9.83,1.08-18.19-5-26.7a271.7,271.7,0,0,1-21.52-35.23c-3.52-7-5-15.41-5.77-23.35-.87-9,.11-18.19.29-27.3,5.3-7.2,10-14.95,16-21.47,13.39-14.48,21.41-31.06,23.29-50.75,1.33-14,7.37-25.8,17.56-35.5,3-2.86,5.86-5.93,8.93-8.74,12.74-11.7,18.63-26.41,19.59-43.45.65-11.68,1.8-23.3,8.33-33.55,1.79-2.81,3.54-5.65,5.27-8.49,3.43-5.61,2.21-11.81-3-15.37-5-3.44-11.39-2-15.3,3.4-10.54,14.58-16.56,30.82-16.88,48.82-.26,15.12-5.76,27.32-17.37,37.11-18.23,15.38-27.85,35.28-29.92,59-1.23,14.1-9.68,24.34-18.32,34.71a211.61,211.61,0,0,0-19.66,27.5c-3.56,6-4.84,13.39-7.14,20.15-10.89,5.15-21.65,10.58-32.69,15.35-9.56,4.13-15.17,10.82-16.52,21.16-1.91,14.61-11.27,22.66-24.36,27.33-4.21,1.5-8.39,3.14-12.68,4.34-14.15,3.93-27.47,10.9-42.65,11.07-5.35.06-10.7,1.21-16,1.86H901.67c.56-7.56.77-14.75,1.76-21.83.49-3.53.35-6-3.11-7.62q-.39-13.41-.79-26.81c2.16.13,4.32.2,6.47.39,30,2.66,59.28-.35,87.1-12.44,21-9.11,38.52-22.31,48.41-43.93,15-32.87-1.44-69-36.24-78.5-14.65-4-29.49-2.49-44.06.54-11,2.3-21.85,5.74-32.77,8.67.4-1.4.8-2.8,1.19-4.2l6.8-24.17c4.46.14,9,.69,13.38.34,15.49-1.22,27.13-9.44,36.32-21.34,16.15-20.92,32-42.07,48.08-63.07,11.43-14.92,23.23-29.56,34.38-44.68,6.17-8.36,3.28-17.19-6.13-21.69-3.76-1.8-7.49-3.65-11.91-5.8,6.91-3.45,13.13-5.74,18.35-9.44,4-2.81,8.62-7,9.61-11.3a287.69,287.69,0,0,0,6.13-39.83c1.29-15.23-7-27-21.5-32.4-4.81-1.79-9.86-2.94-14.8-4.39q.51-4.77,1-9.54c3.6.34,4.84-1.21,4.84-4.86,0-7.1.43-14.21.85-21.3.69-11.45,5.68-20.83,13.6-29,2.27-2.34,3.37-5.81,5-8.77,2.34-.74,4.87-1.12,7-2.28,9.51-5.2,19.83-7.66,30.45-8.65,21.91-2,42.88,1.64,63.22,10.23,13.93,5.88,28.8,8.26,43.77,5.4,8.15-1.56,13.81,1.17,18.27,7,3,3.85,5.87,8.43,6.77,13.07,1.82,9.38,2,19.07,3.35,28.56C1247.19,613,1248.93,618.17,1250.22,623.4Zm83.46,188c18,.06,29-15.39,23.07-31.61-.87-2.39-1.14-6.11.14-7.92a56.42,56.42,0,0,1,10.61-11c7.59-6.14,7.62-16.81-.67-22.1-2.87-1.84-4.24-3.87-4.57-7.05-.25-2.46-.79-4.9-1.13-7.36-.57-4.24-3.38-6.27-7.21-5.86a30.9,30.9,0,0,0-10.87,3.1c-5.64,3-7.68,9.34-5.66,15.39,1,3.15,2.32,6.22,3.41,9.36a7.82,7.82,0,0,1-2.26,9.06c-7.42,6.56-7.38,6.53-2.84,15.64,4,8.12,4.08,11.27-4,19.26-.82.81-2.06,1.22-2.79,2.07-3.24,3.79-6.68,7.54-4.38,13.22C1326.26,810,1329.45,811.73,1333.68,811.4Z"/><path class="cls-6" d="M749.41,1038.9c-4.88.74-6.42,3.38-5.87,8.37,1,9.41,2.32,18.94,1.78,28.32-.43,7.42-3.14,14.79-5.41,22-1.31,4.15-3.83,7.41-9.27,7.44-2.31,0-4.6,2.36-6.89,3.65-4.59-.67-9.16-1.44-13.76-2-11-1.26-22.08-3-33.08.24-10.15,3-20.21,6.46-30.47,9a32.24,32.24,0,0,1-13.65.39c-6.13-1.22-12-3.84-18-5.77-13.27-4.29-26.45-8.44-40.81-5.11-14.2,3.29-25.73-1.59-34.57-13.08-2.4-3.12-4.9-6.15-7.36-9.23a17.3,17.3,0,0,1,1.74-3.53c10.44-12.67,14.79-27.59,16.61-43.57a95.37,95.37,0,0,1,11.51-36.79l1.43-2.07-.09,0c3.32-2.63,6.73-5.15,9.94-7.91,9.16-7.85,18.73-15.32,27.2-23.88,6.36-6.42,11.79-14,13.52-23.39,1.84-9.93,3.9-19.83,5.31-29.81,3.17-22.5,11.81-42,27.93-58.55,9.56-9.79,17.73-21,26.05-31.92,8.77-11.51,12-24.92,12.39-39.26a25.35,25.35,0,0,1,3.5-11.11c3-5.32,7-10,10.26-15.24,4.54-7.34,8.39-15.12,13.13-22.33a149.69,149.69,0,0,0,19.82-45.33c1.2-4.63,1.52-9.49,2.64-14.14,1.91-7.89,8.44-11.48,14.77-15.21C771,646.63,786,629.3,791.58,604.69c1.29-5.66,1.94-11.81,8.09-15.16,6.93-3.77,13.35-8.64,20.56-11.71,6.47-2.76,13.83-3.37,20.59-5.56,16.65-5.41,32.7-6,48.61,2.93,8,4.46,16.59,7.89,26,2.8,1.24-.67,3.89.87,5.72,1.75,5.15,2.47,10.21,5.14,15.31,7.73-5.91,9.39-11.6,18.92-17.8,28.1-2.78,4.11-3.77,7.12.3,11.09,3,3,5,7,7.48,10.48-5,4.92-10.18,9.72-15,14.81-2.78,2.91-5.07,6.29-7.57,9.46-.24-5.49-.24-11-.77-16.45-.73-7.41-1.16-15-6.29-21.14-11-13.27-25.15-19.14-42.05-16.64-15.83,2.34-31,7.88-43.23,18.21-13.42,11.34-26.95,23.21-37.59,37a291.1,291.1,0,0,0-55.61,122.49c-3.64,18.38-3.32,36.33,2.12,54.23,3.73,12.28,10.43,22.22,22,28.41,9.53,5.1,19.65,5.72,30.08,3.89-.66,12.08-1.51,24.13-6.6,35.39-2.29-6.17-6.76-9.23-13.31-9.32-4.59-5.68-8.72-7.33-14.06-4.72-13.61,6.65-22.43,23.46-18.35,38.71,2.94,10.93,9.47,21.68,3,33.5-3.11,2.55-7.47,4.54-8.92,7.82-1.23,2.75.1,7.48,1.8,10.48,2.35,4.14,6.93,4.71,11.52,3.65,9.79-2.24,16.94-8.88,24.57-14.71,6,13.53,6.49,27.31,2.63,41.54C752.55,1022,751.18,1030.52,749.41,1038.9Z"/><path class="cls-7" d="M517.8,1153.74c5.25.89,10.09,1.92,15,2.5,11.3,1.34,21.28-3.19,31-7.91,9.06-4.39,18-4.49,27.64-2.4,13.44,2.91,27,5.56,40.65,7.16,13.09,1.53,25-3.23,34-12.51,8.78-9,19-9,30-8,8.43.8,16.89,1.19,25.35,1.64a14.55,14.55,0,0,0,4.4-.7c6.46-1.72,8.69-1,11.21,5.16a45.32,45.32,0,0,1,3.16,13.46,188.25,188.25,0,0,1,0,21c-.56,13.63,4.25,25.17,13.53,34.8,7.76,8,10.43,16.92,7.11,27.81-4.72,15.46-3.31,30.2,4.42,44.79,5.9,11.12,7.48,23.4,3.3,35.83-2.08,6.18-5.5,10.66-12.42,12.23-8.76,2-17.26,4.36-26.5,2.91-15.6-2.45-29.48,2.71-42.7,10.61a123.29,123.29,0,0,1-19.22,9.38c-6.13,2.34-12.13.94-17.19-3.57-2-1.78-2.71-3.38-.84-5.94,10.69-14.62,21.19-29.39,31.87-44,.9-1.23,2.62-2,4.09-2.64,6.07-2.81,8.59-8.89,5.76-14.92-6.23-13.25-15.12-24.48-27.76-32-4.94-2.92-11.16-4-16.95-5.08-5.06-.94-8.28,2.43-10.72,6.6a39.17,39.17,0,0,1-5,7.22c-7.28,7.78-14.75,15.38-22.17,23-1,1-2.15,2-3.5,3.25-6-4.73-9.42-11-11.82-17.69a218.89,218.89,0,0,1-7-22.91c-4.72-19.79-15.78-34.63-32.6-46.05-9.81-6.65-18.66-14.86-27.34-23C521.18,1168.75,518.33,1161.84,517.8,1153.74Zm167.5,75.59c-2.92,2.33-6.59,4.21-8.69,7.19-2.53,3.6-2,8,1.06,11.58,9.6,11.24,19.42,22.08,23,37.32,1.79,7.61,11.19,8.58,17.09,3.17,5.31-4.87,3.33-10.34,1.83-15.73-4.43-15.95-15.19-27.82-26.21-39.41C691.72,1231.68,688.81,1231.06,685.3,1229.33Zm-29.41,9.94c6.38.12,10.16-2.47,11.81-7.53,1.43-4.36.23-10.35-3.78-11.81-5.25-1.91-11.25-3.33-16.69-2.75-6.65.7-9.46,8.8-6.49,15C644.08,1239.07,650.87,1238,655.89,1239.27Z"/><path class="cls-7" d="M1019.15,1109.49c5.65,6.81,10.76,12.8,15.63,19a8.52,8.52,0,0,1,1.41,4.69c.66,15.75,8.49,28.07,18.72,39.2,5.74,6.25,11.7,12.29,17.53,18.45s9.06,13.36,9,22a224.32,224.32,0,0,0,.68,22.91c1.35,13.72,9.52,23,21.56,28.41a159.16,159.16,0,0,0,26.85,8.9c8.44,2.09,13.9,6.1,16,14.9,1.72,7.3,4.66,14.23,10.41,19.58.76.71,1.06,3.38.62,3.66-2.51,1.61-5.26,3.65-8,3.81-2.53.15-5.21-1.86-7.81-3-8.86-3.75-17.48-8.23-26.61-11.13-13.77-4.37-26.94-1.66-38,7.55-7.08,5.89-13.4,7.77-21.84,2.83-10.65-6.22-22.3-6.21-33.79-2.42-16.43,5.43-31,1-45.54-8,2.15-3.08,4.26-6.16,6.45-9.19,8.87-12.25,17.72-24.52,26.68-36.72,4.65-6.33,4.59-15.44-1-21.2-13.82-14.27-30.47-21.15-50.44-17.4-3.4.64-6.7,3.39-9.42,5.86-11.55,10.53-22.87,21.33-34.28,32-.72.67-1.48,1.29-1.87,1.63-5.68-3-11.22-5.59-16.37-8.81-1.39-.88-2.49-3.75-2.24-5.5,1.57-11.14,3.45-22.24,5.43-33.32.93-5.23,2.65-10.33,3.37-15.57a42.53,42.53,0,0,0-4.12-24.76c-5.34-10.94-4.7-22.25-2.22-33.66.88-4,2.12-8,3.3-12,2.54-8.58,6.88-10.24,15.36-7a129.71,129.71,0,0,0,22.32,6.75,31.79,31.79,0,0,0,25.45-6.62c8.07-6.27,16.53-6.91,25.85-5C998.91,1112.64,1009.6,1113.23,1019.15,1109.49Zm7.56,135.75c7,.12,12.55-6,11.07-12.79-4.26-19.56-16-33.18-34.06-41.38a10.32,10.32,0,0,0-13.64,5.65c-2.62,6-.34,11.66,6.52,15.15,10.56,5.39,17.22,13.7,19.89,25.27A11.16,11.16,0,0,0,1026.71,1245.24Zm-42.23-54.8c-.06-7-5.13-11.33-13.06-11.21a10.82,10.82,0,0,0-11,11.12c.13,6.46,5.45,10.93,13,11C980.08,1201.32,984.53,1196.93,984.48,1190.44Z"/><path class="cls-8" d="M903.88,661.41c2.5-3.17,4.79-6.55,7.57-9.46,4.85-5.09,10-9.89,15-14.81l2.95,3.87c10.37-17.46,20.35-33.86,29.83-50.55,2.06-3.62,2.66-8.2,3.35-12.44.78-4.85.95-9.38,5.42-13.09,3.55-2.95,3-7.75.77-12-2.56-4.84-4.84-9.83-7.36-14.7-2-3.86-.7-6.25,3.07-7.81,3.38-1.4,6.64-3.08,10.07-4.32,17.69-6.43,28.61-17.77,27.78-37.78,5.3,1,11.22.87,15.77,3.28,12.33,6.54,19.38,23.15,15.48,36.83-3.44,12.09-8.26,23.79-12.68,35.57-6.23,16.6-6.29,32.67,3.22,48.2a8.25,8.25,0,0,1,.9,4.25c-.1,3.46-.48,6.92-.74,10.39-1.15.16-2.3.37-3.46.47-21.9,1.85-40.89,10.26-58.17,23.88-30.17,23.78-50.63,54.42-65.23,89.37-10.85,26-14.64,52.82-9,80.7,3.13,15.46,6.94,30.64,18.13,42.61,8.19,8.75,17.95,15,29.85,17.58l-6.8,24.17c-.39,1.4-.79,2.8-1.19,4.19-4.84,2.13-9.6,4.51-14.56,6.33-16.37,6-32.51,13-49.31,17.44-30.29,8-61.16,4.31-91.83,1.53-.91-.08-2.22-1.72-2.42-2.81-1.59-8.47-3-17-4.39-25.47,5.09-11.26,5.94-23.31,6.6-35.39,14-5.22,25-14.24,33.94-26.06,28.46-37.6,50.73-78.66,68.58-122.21,7.23-7.67,13.19-16,14.27-27a20.23,20.23,0,0,1,2.87-2c8.12-3.7,11.38-10.2,11.25-18.87C903.38,670.73,903.72,666.06,903.88,661.41ZM872.51,824.15c-1.15-7.39-2.11-13.63-3.08-19.86-1.08-6.88-2.09-13.78-3.3-20.64-.24-1.36-1.29-2.59-2-3.88-1.21.82-2.76,1.39-3.56,2.5-3.5,4.84-6.47,10.09-10.23,14.71-2.93,3.6-3.68,6.91-2.47,11.4,2.37,8.76,3.15,17.66.44,26.6-1,3.26-2.44,4.86-6.29,4.75a45.61,45.61,0,0,0-26.86,7.94c-18.89,12.43-26.53,37.55-17.69,58.21,2.2,5.15,6.2,7.9,11.2,7.5,4.8-.38,8.44-2.92,9.47-7.53a18.26,18.26,0,0,0-.88-9.13c-3.59-11-.63-22.45,8-29.35,12-9.62,27.89-7.4,37.83,5.28,4.51,5.74,11,6.89,16.13,2.85,4.92-3.84,5.68-10.52,1.24-16A85.32,85.32,0,0,0,869.93,849c-2-1.68-2.35-2.86-1.68-5.39C870,836.9,871.25,830,872.51,824.15Z"/><path class="cls-9" d="M1008.67,1543.26l-8.07-10.93c2.7-1.35,5.17-2.5,7.57-3.81,5.76-3.15,7.89-9.45,5.08-14.83s-9-7.53-15-4.65c-11.27,5.47-23.15,4-34.8,2.64-7.07-.83-9.12-5.35-6.62-11.94,1.63-4.31,3.83-8.4,6-13.07,5.39,2.89,10.19,5.46,15,8,5.48,3,11.35,3.38,15.89-.85,7.5-7,15.11-14.16,21.07-22.41,8-11.07,7-18-2.07-32.41,6.59-2.85,12.79-6.35,20.27-4.79,5.81,1.21,8.47,7.83,5.36,14.69-2.6,5.72-6.44,10.87-9.27,16.51-1.34,2.69-2.42,6-2.17,8.88.37,4.45,3.41,7.56,7.93,8.61,4.89,1.14,9.07-.41,11.72-4.64,4.07-6.47,8-13.07,11.53-19.84,1.38-2.62,2.42-3.8,5.6-3,17.92,4.54,35.89,8.86,53.84,13.27,6.52,1.6,11.41,4.44,12.79,12,1.88,10.3,5,20.36,7,30.64a48.06,48.06,0,0,1-6.43,35.14c-9.21,14.81-19,29.31-29.58,43.2-17.22,22.7-35.72,44.32-57,63.45-16.15,14.5-33.72,26.23-55.25,30.55a55,55,0,0,1-20.7.34c-16.73-3.19-25.21-15.85-23.66-32.81,1.74-19,9.86-34.92,23.11-48.11C993.15,1578,1022,1558.07,1056,1546c5.68-2,8.49-6.17,8.24-11.18-.24-4.72-3.62-9.16-8.38-9.95a14.35,14.35,0,0,0-7.7.88c-12.53,5.41-24.93,11.14-37.37,16.75C1010.16,1542.8,1009.53,1543,1008.67,1543.26Z"/><path class="cls-10" d="M739.64,1458.56c6.46-3.51,12-7.24,18.05-9.62,7.77-3,12-.2,13.57,8.12,1.85,9.74.36,18.9-5.22,27.25a26.47,26.47,0,0,0-2.78,4.71,10.81,10.81,0,0,0,5.18,13.22c4.74,2.57,10.93,1.7,13.71-3.21,4.06-7.17,7.1-14.92,10.48-22.47a35.56,35.56,0,0,0,1.33-5.22c10.74,4.18,21.14,8.07,31.41,12.29q19.41,8,38.58,16.51c2.13.95,4.56,3.2,5.15,5.32,3.76,13.63,7,27.4,10.5,41.11,3.13,12.31-.36,23.24-8.92,31.73-15.7,15.57-31.47,31.25-48.65,45.1-21,16.9-43.42,32-65.28,47.77-3,2.14-6.24,3.83-9.41,5.68-14.59,8.5-28.54,6.65-42.34-2.22-8.72-5.6-12-12.93-10.58-23.28,5-37.34,22.31-66.34,55.47-85.49,18.67-10.79,38.28-18.61,59.47-22.59,7.3-1.38,11.3-6.17,10.56-12.21-.85-7-6.7-10.71-14.35-9.28a196.28,196.28,0,0,0-61.71,22.39c-2.13,1.21-4.4,3.43-7.09.12.7-.84,1.35-1.55,1.93-2.31,3.58-4.73,3.61-10,.12-14.21s-8.6-4.41-14.11-2.36c-7.25,2.69-14.8,4.59-22.3,6.55-3.69,1-6.07-1-7-4.61a31,31,0,0,1-1.15-5.85c-.61-9.08.08-9.76,8.71-9.21,16.86,1.09,37.22-11.9,43-27.77C749.34,1475.35,746.56,1467.19,739.64,1458.56Z"/><path class="cls-11" d="M1350.17,1216.62c.7,3.39,1.68,6.42,1.91,9.49.77,10,6.18,15.68,15.7,17.89,13.73,3.19,27.11,2.68,39.91-3.78a20.08,20.08,0,0,0,11.38-16c.4-2.92,1-5.81,1.65-9.27,7.4,2.77,14,5.8,18.87,11.54s3.8,11.24-2.59,15a54.29,54.29,0,0,1-10.07,4.27c-7.17,2.42-10.61,7.69-8.8,13.92,1.86,6.39,7.95,9.19,15.28,7,3-.91,6-2,10-3.26,1.61,9.32,4.23,18.22,4.48,27.19.71,25.45.61,50.93.44,76.39,0,4.9-1.53,9.86-2.8,14.67-1.92,7.24-7,11.87-13.47,15.29-2.92,1.55-4.81.16-7.1-1.61-3.36-2.59-6.9-5.58-10.84-6.61-5.78-1.53-10.14,2.16-14.51,6-4.13,3.6-9.33,6-14.24,8.66-2.53,1.34-4.43.44-5.87-2.5-6.12-12.4-13.29-14.65-25.53-8.4-1,.53-2,1.11-3.09,1.64-11.08,5.6-13.89,4.85-20.74-5.51-3.49-5.29-9.29-7.61-15.12-6-11.17,3-19.62-4.26-18.28-16.18a55.36,55.36,0,0,1,3.76-13.39c3.73-9.72.69-15.68-9.51-17.87-4.25-.92-8.57-8.78-7.2-14.43,1-4,2.3-8.35,4.88-11.32,12.3-14.21,25-28,37.81-41.84.73-.79,3.19-.52,4.62,0,6.77,2.19,13.33,5.13,20.21,6.82a10.39,10.39,0,0,0,13-8.54c1-6.1-2.64-11.5-9.16-12.66-9.5-1.69-17.29-5.74-22.35-14.3-5.56-9.42-2.94-16.4,7.39-19.4C1343.32,1218.44,1346.52,1217.62,1350.17,1216.62Z"/><path class="cls-12" d="M1086.88,996.89c-.18,9.11-1.16,18.29-.29,27.3.76,7.94,2.25,16.34,5.77,23.35a271.7,271.7,0,0,0,21.52,35.23c6,8.51,7.54,16.87,5,26.7a147,147,0,0,0-4.39,22.87c-2,21.18,13.74,37,33,39.87,25.71,3.83,50-.09,71.94-14.7a280.85,280.85,0,0,0,24.88-18.13c5.15-4.31,9.06-10.1,13.67-15.1,1.16-1.27,2.87-2,4.33-3-5,14-9.39,28.35-15.35,42-2.47,5.63-7.94,10.21-12.73,14.5-8.91,8-13.85,17.31-14.11,29.61-.09,4.05-3.88,8.16-6.41,12a66.42,66.42,0,0,1-6.83,7.92c-8,8.65-8.37,18.32-4.18,28.76,1.42,3.53,3,7.15,3.51,10.86,1.64,11.59-2.84,21.53-13.56,26.23-4.92,2.17-11.6,1.28-17.29.47-4.55-.65-5.91-5.43-7.07-9.49-3.24-11.31-7.69-22.1-19-27.39-7.15-3.35-15.14-4.92-22.76-7.27-1.27-.39-2.58-.67-3.83-1.09-20.22-6.76-19.6-12.53-19.49-26.51a126,126,0,0,0-1.54-22.31c-2.22-12.76-11.32-21.48-19.53-30.66-6.63-7.42-13.17-14.92-19.49-22.6a13.65,13.65,0,0,1-3.17-7.21c-.49-8.12-4.15-15.08-7.26-22.26-.89-2.07-2.1-4.36-3.84-5.65-9.5-7-11.7-26.62-.67-35.92,20.07-16.89,28.64-39.79,33.67-64.61C1082.36,1005.82,1085,1001.43,1086.88,996.89Z"/><path class="cls-13" d="M872.13,1156.3c1.73,6.24,2.81,12.75,5.36,18.63,3.38,7.79,3.58,15.21,1.42,23.3a313,313,0,0,0-6.79,31.17,66.33,66.33,0,0,0-.06,17.86c1.21,10.7,6.92,18.1,17.59,21.32,2.12.64,4,2.19,6.37,3.57-20.23,26.78-43,51-56.64,82-8.73-5.19-16.59-10.5-25-14.68s-17.44-7.24-26.27-10.81c1.34-5.68,3.25-11.84,4.19-18.14,2.31-15.45-2.14-29.76-8.89-43.33-3.58-7.2-4-14.18-2.2-21.74,2.72-11.37,5.65-23,.35-34.24a75.94,75.94,0,0,0-11.4-17.4,31.12,31.12,0,0,1-8.14-23.29c.35-6.81.43-13.66.11-20.47-.47-9.79-3-19-8.78-27.19a5.81,5.81,0,0,1-.13-5c3.33-6.48,7-12.78,10.58-19.14.56,2.25,1.22,4.48,1.66,6.76,2.67,14.07,6.48,27.48,18.53,36.93,6,4.71,11.29,10.78,20.11,6.1,6.85-3.65,14.14-2.92,20.76-.06C840,1155,856.06,1155.58,872.13,1156.3Z"/><path class="cls-14" d="M872.13,1156.3c-16.07-.72-32.09-1.31-47.28-7.87-6.62-2.86-13.91-3.59-20.76.06-8.82,4.68-14.09-1.39-20.11-6.1-12.05-9.45-15.86-22.86-18.53-36.93-.44-2.28-1.1-4.51-1.66-6.76,4.42-15,3.85-30.18,2.49-45.46-.82-9.11-3.85-12.5-12.92-13.86-1.31-.19-2.63-.32-4-.48,1.77-8.38,3.14-16.86,5.38-25.12,3.86-14.23,3.37-28-2.63-41.54l7.38-8.54c6.31,4.83,12,9.15,17.64,13.52,25,19.27,51,37,81.15,47.14,13.41,4.53,27.44,7.21,41.2,10.73q.39,13.41.79,26.81c-4.46-1.29-8.94-2.53-13.38-3.88-2.83-.87-4.15.33-4.35,3-.74,10.08-2.51,20.24-1.83,30.23.63,9.31-.06,18-3,26.75A102.74,102.74,0,0,0,872.13,1156.3Z"/><path class="cls-15" d="M936.5,587.47c-5.1-2.59-10.16-5.26-15.31-7.73-1.83-.88-4.48-2.42-5.72-1.75-9.45,5.09-18.08,1.66-26-2.8-15.91-8.91-32-8.34-48.61-2.93-6.76,2.19-14.12,2.8-20.59,5.56-7.21,3.07-13.63,7.94-20.56,11.71-6.15,3.35-6.8,9.5-8.09,15.16C786,629.3,771,646.63,749.74,659.17c-6.33,3.73-12.86,7.32-14.77,15.21-1.12,4.65-1.44,9.51-2.64,14.14a149.69,149.69,0,0,1-19.82,45.33c-4.74,7.21-8.59,15-13.13,22.33-3.22,5.21-7.26,9.92-10.26,15.24a25.35,25.35,0,0,0-3.5,11.11c-.41,14.34-3.62,27.75-12.39,39.26-8.32,10.93-16.49,22.13-26.05,31.92-16.12,16.51-24.76,36-27.93,58.55-1.41,10-3.47,19.88-5.31,29.81-1.73,9.37-7.16,17-13.52,23.39-8.47,8.56-18,16-27.2,23.88-3.21,2.76-6.62,5.28-9.94,7.91,5.55-9,10.94-18.18,16.67-27.1,6-9.37,12.64-18.38,18.5-27.85a69.67,69.67,0,0,0,10.68-38c-.21-17.55,6-32.46,16.64-46,7.43-9.4,14.85-18.82,21.92-28.49,9.81-13.43,15.15-28.85,18.48-45a85.69,85.69,0,0,1,27-47.31c12.9-11.75,21.45-26,21.73-43.94.33-20.72,9.58-37.37,22.93-52.3,4.22-4.72,8.23-9.64,12.67-14.13,11.32-11.47,18.07-25.2,19.63-41.11,1.2-12.18,7.34-20.31,17.67-26,1.72-.94,3-2.56,4.72-3.58,1.14-.7,2.72-1.52,3.86-1.25,10.34,2.42,19.61-.51,28-6.09,7.18-4.77,14.26-5.11,21.73-1.58,18.73,8.87,38.31,10.5,58.55,7.35,11.62-1.81,22.88.66,34,3.7a4.3,4.3,0,0,1,2.65,2.86C941.86,570.54,942,579.54,936.5,587.47Z"/><path class="cls-16" d="M1240.16,936.6c5.63,2.5,10.36,4.13,14.63,6.58,48.37,27.66,94.69,58.36,138,93.54a10.19,10.19,0,0,1,3.24,6.71c1.36,32.27,2.61,64.55,3.58,96.83q.79,26.48.56,53c-.07,8.12-1.33,16.23-2,24.36-.23,2.93-1.71,4.54-4.58,5-.65.11-1.27.38-1.92.53-15.51,3.5-19,1.37-20.07-14.21-1.16-17.44-1.23-35-2-52.41-1.25-28-2.91-55.88-4-83.84-.36-9.5-4.14-16-11.87-21.61-16.56-12-32.38-25.06-48.76-37.33-11.59-8.68-24.13-16.15-35.24-25.37-8.51-7.05-15.75-15.73-23-24.18-4.85-5.66-7.15-12.75-7.34-20.32A64.71,64.71,0,0,1,1240.16,936.6Z"/><path class="cls-17" d="M989.67,1245.21c-18.81,25-36.54,49-54.68,72.64-8.1,10.56-16.81,20.67-25.64,30.64a62.21,62.21,0,0,1-23.75,16.2c-7.44,3-10.29,8.57-7.86,14.85,2.35,6.08,8.59,8.19,15.92,5.37a7.84,7.84,0,0,0,2.3-.94c7.43-6.11,12.85-3,19.4,2.54,24.95,21,50.58,41.28,75.68,62.15,8.86,7.35,8.56,9.07.85,17.61-6.79,7.53-7,7.85-15.67,2.72-29.25-17.28-58.61-34.37-87.34-52.48-9.13-5.75-16.86-14-24.43-21.91-9.39-9.77-11-21-4.43-33.46,8.46-16.14,18.63-31,29.61-45.58,20.17-26.76,43.51-50.35,68.14-72.89,5.85-5.36,11.64-6.64,18.53-4C980.56,1240.23,984.52,1242.63,989.67,1245.21Z"/><path class="cls-17" d="M725.3,1476.38c-5.32,11.77-15.17,15.89-26.62,11.52-39.34-15-78.78-29.83-118-45.09a113.29,113.29,0,0,1-21.07-11.28c-10.75-7.1-15-19.91-10.3-32,3-7.5,7.61-14.35,11.67-21.39,2-3.42,4.68-6.46,6.51-10,11.88-22.65,28.14-42,45.48-60.53,12-12.76,24.39-25.06,36.46-37.71,2.58-2.7,4.33-2.51,7-.21,11.51,9.84,11.37,9.63,2.62,21.88q-30.06,42-59.79,84.33c-7.5,10.6-15.83,20.11-28.5,24.89-5.51,2.07-7.91,8.38-6,13.7,2,5.59,7.91,8.37,13.89,6.46,1.89-.61,4-1.14,5.48-2.35,5.79-4.73,11.53-3.52,17.61-.65q51.71,24.42,103.49,48.68C711.82,1469.8,718.38,1473,725.3,1476.38Z"/><path class="cls-5" d="M1242.79,1206.3c-.91-4,.76-7,3.55-9.76,5.42-5.39,11.67-10.33,15.69-16.65,5.28-8.31,10-17.4,12.7-26.82,4.7-16.68,12.78-31.22,22.58-45.27,8.91-12.78,16.74-26.32,25-39.52,1.35.5,2.73.94,4.06,1.51,5.75,2.48,11.48,5,17.22,7.5l1.2,27.9c1.19,27.79,2.27,55.58,3.7,83.35.23,4.47-1.38,6.32-5.28,7.23-2.43.57-4.77,1.52-7.2,2.07-10.33,2.32-18.89,7.2-24.49,16.52-13.58,0-27.24-.93-40.72.23-9.51.81-17-2-24.5-6.86A20.21,20.21,0,0,0,1242.79,1206.3Z"/><path class="cls-18" d="M1458.49,739c-10.77-8.67-15.22-21-19.24-33.52a26.32,26.32,0,0,0-14.2-16.4c-9-4.47-17.9-9.4-26.48-14.71a29.14,29.14,0,0,1-12.83-17.24c-4.08-14.55-13.4-24.84-26.69-31.17-6.14-2.93-13.25-5.11-20-5.26-12.6-.27-23-4-32.44-12.49-7.73-7-11.22-6.27-19.74,0a15.78,15.78,0,0,1-2.65,1.27c.08-5.66.52-11.34.15-17-.53-8,2.12-14.69,7.45-20.47,3.39-3.68,6.87-7.26,10.14-11,10.7-12.4,14.87-26.52,10.94-42.7-.3-1.21-.45-2.46-.67-3.69l1.21-.47c1.26,2.78,2.65,5.5,3.73,8.35,4.12,10.81,10.78,19.5,21.07,25.06,11.37,6.15,19,15.41,23.61,27.37,1.44,3.72,3.37,7.25,4.94,10.92,6,14.12,16.47,23,31.24,27.17,13,3.69,13,3.93,13,17.55,0,14.63,6,26.41,16.66,36,5.58,5,11.42,9.69,17,14.62a12.59,12.59,0,0,1,4.26,13.45c-2.9,11.77.08,21.72,9.75,29.41a16.43,16.43,0,0,1,2.44,2.49C1465.76,732.13,1465.05,735.38,1458.49,739Z"/><path class="cls-18" d="M1250.22,623.4c-1.29-5.23-3-10.4-3.78-15.71-1.35-9.49-1.53-19.18-3.35-28.56-.9-4.64-3.8-9.22-6.77-13.07-4.46-5.8-10.12-8.53-18.27-7-15,2.86-29.84.48-43.77-5.4-20.34-8.59-41.31-12.26-63.22-10.23-10.62,1-20.94,3.45-30.45,8.65-2.11,1.16-4.64,1.54-7,2.28-.89-3-1.79-5.91-2.82-9.35,2-.75,4.93-1.24,7.1-2.77,4.45-3.11,9.23-6.2,12.57-10.35,5.19-6.44,11.61-9.91,19.44-9.31,11.24.86,22.41,2.74,33.58,4.37,8.72,1.26,17.36,3.24,26.11,4.08,8.23.78,16.24-1.34,22.11-7.36,6.85-7,14.94-8.18,23.86-7,6.43.86,12.85,1.91,19.21,3.2a59.92,59.92,0,0,0,32-1.73c1.74-.59,3.47-1.19,5.19-1.82,5.58-2.07,12.15-4.5,16.55,0,4.58,4.66,5.28,12,3.28,18.43-1.45,4.6-4.37,8.9-7.28,12.86-3,4.13-7,7.59-10.34,11.51-7.87,9.22-12.21,19.76-11.6,32.08.06,1.16,0,2.34.12,3.49C1264.51,606.89,1259.52,616.08,1250.22,623.4Z"/><path class="cls-19" d="M1024.31,626.84c.26-3.47.64-6.93.74-10.39a8.25,8.25,0,0,0-.9-4.25c-9.51-15.53-9.45-31.6-3.22-48.2,4.42-11.78,9.24-23.48,12.68-35.57,3.9-13.68-3.15-30.29-15.48-36.83-4.55-2.41-10.47-2.26-15.77-3.28-.16-12.85,3.83-16.06,16.13-12.43a91.57,91.57,0,0,1,14.34,5.76c11.25,5.51,21.76,5.25,32.63-1.61,24.89-15.71,47.75-.85,56.16,17.76.33.73.51,1.52.84,2.51-6.67.32-13.06.32-19.38,1-11.61,1.25-21,6.55-28.52,15.71a23.14,23.14,0,0,1-10.52,6.73c-7.84,2.52-14.68,6.14-20,12.52-6.47,7.76-6.23,12.88,1.47,20.12-6,8.77-10.66,18.34-11.75,29.11-1,10.37-1.34,20.81-2,31.39l17.55,1.41q-.49,4.77-1,9.54Z"/><path class="cls-7" d="M532.08,1083.19c2.46,3.08,5,6.11,7.36,9.23,8.84,11.49,20.37,16.37,34.57,13.08,14.36-3.33,27.54.82,40.81,5.11,6,1.93,11.84,4.55,18,5.77a32.24,32.24,0,0,0,13.65-.39c10.26-2.58,20.32-6,30.47-9,11-3.27,22.05-1.5,33.08-.24,4.6.53,9.17,1.3,13.76,2-1.11,3.31-3.68,4-6.76,3.76-8.6-.71-17.21-1.33-25.8-2.19-15.2-1.53-28.21,2.91-39.07,13.72-7.44,7.39-16.69,8.59-26.43,6.86-9.31-1.65-18.65-3.4-27.75-5.92-16.2-4.49-31.53-2.92-46.39,4.81-8,4.18-16.36,6.65-25.37,3-2.73-1.11-4.95-2.34-5.24-5.86a11.48,11.48,0,0,0-2.47-5.35c-4.38-6-5.16-12.39-1.06-18.57C521.94,1096.11,527.16,1089.75,532.08,1083.19Z"/><path class="cls-7" d="M913.33,1091.35c5.35-.65,10.7-1.8,16-1.86,15.18-.17,28.5-7.14,42.65-11.07,4.29-1.2,8.47-2.84,12.68-4.34,13.09-4.67,22.45-12.72,24.36-27.33,1.35-10.34,7-17,16.52-21.16,11-4.77,21.8-10.2,32.69-15.35-2.5,17-8.44,32.43-21.14,44.56-8.52,8.14-16.32,16.58-18.21,28.94-.21,1.35-2.26,2.72-3.75,3.53-7.32,4-15.23,3.36-22.84,1.69-15.11-3.32-28.94-1.75-41.53,8a16.81,16.81,0,0,1-16.6,2.36C927.21,1096.74,920.29,1094,913.33,1091.35Z"/><path class="cls-7" d="M1269.66,1017c-16.23-2.31-31.47-7.19-44.6-17.43-9-7-17.29-14.54-19.73-26.44,8.51-5.06,9.2-8.15,7-18.09a48.77,48.77,0,0,1-.54-18c1.62-9.8-1.63-15-11.55-15.91,1.49-4.15,2.77-8.39,4.59-12.39.66-1.46,2.61-2.33,4-3.46,3.28,9.71,11.93,12.86,18.46,6.64,4.74-4.52,3.63-9.79,1.62-15.1,7.37.46,13,4.41,17.76,9.51,3.64,3.92,6.57,8.5,9.82,12.79-5.51-1-11-2.62-16.53-2.78-11-.31-19.85,7.86-21.65,18.88-3,18.12,3.11,33.78,14.73,46.88,9.87,11.11,21.49,20.66,32.34,30.9C1266.78,1014.33,1268.22,1015.66,1269.66,1017Z"/><path class="cls-18" d="M971,1322.46c-3,13.49-17,23.71-28.54,21.11,6.2-7.76,11.79-15.6,18.43-22.43C962.31,1319.68,967.51,1321.92,971,1322.46Z"/><path class="cls-15" d="M563.37,997.23l-1.43,2.07Z"/><path class="cls-3" d="M1137.89,1335.06l-1.55-.77Z"/><path class="cls-20" d="M1027.51,1411.69a.8.8,0,0,1,.66,0l-.32.22Z"/><path class="cls-12" d="M1265.26,1116.24c.26-.35.51-.71.76-1.07Z"/><path class="cls-21" d="M1024.31,626.84l24,1c4.94,1.45,10,2.6,14.8,4.39,14.47,5.4,22.79,17.17,21.5,32.4a287.69,287.69,0,0,1-6.13,39.83c-1,4.33-5.63,8.49-9.61,11.3-5.22,3.7-11.44,6-18.35,9.44,4.42,2.15,8.15,4,11.91,5.8,9.41,4.5,12.3,13.33,6.13,21.69-11.15,15.12-22.95,29.76-34.38,44.68-16.06,21-31.93,42.15-48.08,63.07-9.19,11.9-20.83,20.12-36.32,21.34-4.42.35-8.92-.2-13.38-.34-11.9-2.54-21.66-8.83-29.85-17.58-11.19-12-15-27.15-18.13-42.61-5.64-27.88-1.85-54.74,9-80.7,14.6-34.95,35.06-65.59,65.23-89.37,17.28-13.62,36.27-22,58.17-23.88C1022,627.21,1023.16,627,1024.31,626.84Zm18.15,121.6c-6.74-4.33-13.43-7.85-19.21-12.5-12.22-9.84-10.91-20.92,2.67-26.36,8.81-3.52,17.35-7.67,26.08-11.39,3.18-1.36,5.07-3.26,5.5-6.89,1-8.25,2.57-16.44,3.43-24.71s-1-11-8.85-13.15c-22.12-6.1-43.58-3.78-63,8.3-30,18.7-50.48,45.92-65.28,77.66a8.16,8.16,0,0,0-.23,2c19.71-6.31,37.36-2.22,53.2,10.07s24.47,28.39,24.72,49.48Z"/><path class="cls-1" d="M899.53,1035.09c-13.76-3.52-27.79-6.2-41.2-10.73-30.16-10.18-56.16-27.87-81.15-47.14-5.65-4.37-11.33-8.69-17.64-13.52l-7.38,8.54c-7.63,5.83-14.78,12.47-24.57,14.71-4.59,1.06-9.17.49-11.52-3.65-1.7-3-3-7.73-1.8-10.48,1.45-3.28,5.81-5.27,8.92-7.82a13.58,13.58,0,0,0,2.79-.9c17.83-10.1,27.72-26.22,19.32-48.9-3.63-9.8-1.85-13.71,7.32-17.69,6.55.09,11,3.15,13.31,9.32,1.44,8.5,2.8,17,4.39,25.47.2,1.09,1.51,2.73,2.42,2.81,30.67,2.78,61.54,6.47,91.83-1.53,16.8-4.43,32.94-11.43,49.31-17.44,5-1.82,9.72-4.2,14.56-6.33,10.92-2.92,21.73-6.36,32.77-8.66,14.57-3,29.41-4.55,44.06-.54,34.8,9.54,51.27,45.63,36.24,78.5-9.89,21.62-27.42,34.82-48.41,43.93-27.82,12.09-57.09,15.1-87.1,12.44C903.85,1035.29,901.69,1035.22,899.53,1035.09Zm74.73-28.63c12.24-2.65,30.15-12.65,37.89-22.45a68.22,68.22,0,0,0,11.32-20.17A32,32,0,0,0,1008,925c-15.11-8-30.62-4.37-46.52-1.83C965.82,951.34,970,978.73,974.26,1006.46Zm-33.8-76.59a8.19,8.19,0,0,0-2,.13c-14.37,5.73-28.76,11.41-43,17.39-1.12.46-2.09,3.17-1.88,4.65,2.72,19.1,5.75,38.15,8.48,57.25.46,3.19,1.81,4.23,4.78,4.33,5.81.19,11.63,1,17.42.8,9.4-.27,18.78-1.1,28.87-1.74C948.8,984.3,944.63,957.11,940.46,929.87ZM872,955c-7.85,1.21-15.06,2.23-22.23,3.55a4.07,4.07,0,0,0-2.4,2.93q-1.29,15.18-2.08,30.38c-.07,1.39.73,3.69,1.75,4.12,10.46,4.51,21,8.72,31.6,13l1.21-1.31C877.22,990.29,874.64,972.94,872,955ZM823.9,983.9c.59-8.89,1.07-16.2,1.61-24.45H789.37Z"/><path class="cls-12" d="M1333.68,811.4c-4.23.33-7.42-1.45-9.16-5.75-2.3-5.68,1.14-9.43,4.38-13.22.73-.85,2-1.26,2.79-2.07,8.09-8,8.06-11.14,4-19.26-4.54-9.11-4.58-9.08,2.84-15.64a7.82,7.82,0,0,0,2.26-9.06c-1.09-3.14-2.37-6.21-3.41-9.36-2-6,0-12.4,5.66-15.39a30.9,30.9,0,0,1,10.87-3.1c3.83-.41,6.64,1.62,7.21,5.86.34,2.46.88,4.9,1.13,7.36.33,3.18,1.7,5.21,4.57,7.05,8.29,5.29,8.26,16,.67,22.1a56.42,56.42,0,0,0-10.61,11c-1.28,1.81-1,5.53-.14,7.92C1362.65,796,1351.64,811.46,1333.68,811.4Z"/><path class="cls-1" d="M1200.24,921.11c9.92.87,13.17,6.11,11.55,15.91a48.77,48.77,0,0,0,.54,18c2.2,9.94,1.51,13-7,18.09-8.86-.53-11.55-2.79-14-11.22-3-10.21-3.72-20.41-.89-30.8C1191.87,925.83,1194.76,922.28,1200.24,921.11Z"/><path class="cls-1" d="M1228.88,896.8c2,5.31,3.12,10.58-1.62,15.1-6.53,6.22-15.18,3.07-18.46-6.64C1210.25,893.16,1218.18,889.82,1228.88,896.8Z"/><path class="cls-21" d="M875.05,723.17c-17.85,43.55-40.12,84.61-68.58,122.21-9,11.82-20,20.84-33.94,26.06-10.43,1.83-20.55,1.21-30.08-3.89-11.56-6.19-18.26-16.13-22-28.41-5.44-17.9-5.76-35.85-2.12-54.23A291.1,291.1,0,0,1,774,662.42c10.64-13.82,24.17-25.69,37.59-37,12.22-10.33,27.4-15.87,43.23-18.21,16.9-2.5,31.05,3.37,42.05,16.64,5.13,6.19,5.56,13.73,6.29,21.14.53,5.46.53,11,.77,16.45-.16,4.65-.5,9.32-.44,14,.13,8.67-3.13,15.17-11.25,18.87a20.23,20.23,0,0,0-2.87,2l-23.92,11C873.73,714,874.84,716,875.05,723.17Zm-26.44,4.42c-5.46-2.69-9.79-4.44-13.72-6.84-9-5.49-9.67-15.83-1.62-22.48A36.38,36.38,0,0,1,840,694c11.7-6,23.38-12,35.26-17.66,3.6-1.7,4.92-3.83,4.75-7.6-.36-7.81-.61-15.63-.67-23.44-.05-7.31-4.27-11.53-10.54-13.49-3.85-1.2-8.46-1.9-12.27-1-11.49,2.81-22.67,6.71-32.1,14.32A206.63,206.63,0,0,0,763,726.39a19,19,0,0,0-.69,3.16c15.59-1.56,28.53,3.9,39.77,13.59,11.44,9.85,16.66,22.79,16.78,38l1.57.27Z"/><path class="cls-7" d="M752.62,897.51c-9.17,4-11,7.89-7.32,17.69,8.4,22.68-1.49,38.8-19.32,48.9a13.58,13.58,0,0,1-2.79.9c6.49-11.82,0-22.57-3-33.5-4.08-15.25,4.74-32.06,18.35-38.71C743.9,890.18,748,891.83,752.62,897.51Z"/><path class="cls-21" d="M685.3,1229.33c3.51,1.73,6.42,2.35,8.1,4.12,11,11.59,21.78,23.46,26.21,39.41,1.5,5.39,3.48,10.86-1.83,15.73-5.9,5.41-15.3,4.44-17.09-3.17-3.6-15.24-13.42-26.08-23-37.32-3-3.54-3.59-8-1.06-11.58C678.71,1233.54,682.38,1231.66,685.3,1229.33Z"/><path class="cls-1" d="M655.89,1239.27c-5-1.24-11.81-.2-15.15-7.14-3-6.15-.16-14.25,6.49-15,5.44-.58,11.44.84,16.69,2.75,4,1.46,5.21,7.45,3.78,11.81C666.05,1236.8,662.27,1239.39,655.89,1239.27Z"/><path class="cls-21" d="M1026.71,1245.24a11.16,11.16,0,0,1-10.22-8.1c-2.67-11.57-9.33-19.88-19.89-25.27-6.86-3.49-9.14-9.12-6.52-15.15a10.32,10.32,0,0,1,13.64-5.65c18.09,8.2,29.8,21.82,34.06,41.38C1039.26,1239.23,1033.69,1245.36,1026.71,1245.24Z"/><path class="cls-1" d="M984.48,1190.44c0,6.49-4.4,10.88-11,10.86-7.58,0-12.9-4.49-13-11a10.82,10.82,0,0,1,11-11.12C979.35,1179.11,984.42,1183.46,984.48,1190.44Z"/><path class="cls-22" d="M872.51,824.15c-1.26,5.89-2.48,12.75-4.26,19.46-.67,2.53-.28,3.71,1.68,5.39a85.32,85.32,0,0,1,10.54,10.54c4.44,5.44,3.68,12.12-1.24,16-5.17,4-11.62,2.89-16.13-2.85-9.94-12.68-25.85-14.9-37.83-5.28-8.6,6.9-11.56,18.4-8,29.35a18.26,18.26,0,0,1,.88,9.13c-1,4.61-4.67,7.15-9.47,7.53-5,.4-9-2.35-11.2-7.5-8.84-20.66-1.2-45.78,17.69-58.21a45.61,45.61,0,0,1,26.86-7.94c3.85.11,5.3-1.49,6.29-4.75,2.71-8.94,1.93-17.84-.44-26.6-1.21-4.49-.46-7.8,2.47-11.4,3.76-4.62,6.73-9.87,10.23-14.71.8-1.11,2.35-1.68,3.56-2.5.67,1.29,1.72,2.52,2,3.88,1.21,6.86,2.22,13.76,3.3,20.64C870.4,810.52,871.36,816.76,872.51,824.15Z"/><path class="cls-6" d="M875.05,723.17c-.21-7.22-1.32-9.15-9.65-15.93l23.92-11C888.24,707.14,882.28,715.5,875.05,723.17Z"/><path class="cls-18" d="M1042.46,748.44l-41,52.53c-.25-21.09-8.93-37.22-24.72-49.48s-33.49-16.38-53.2-10.07a8.16,8.16,0,0,1,.23-2c14.8-31.74,35.24-59,65.28-77.66,19.41-12.08,40.87-14.4,63-8.3,7.85,2.16,9.7,5,8.85,13.15s-2.43,16.46-3.43,24.71c-.43,3.63-2.32,5.53-5.5,6.89-8.73,3.72-17.27,7.87-26.08,11.39-13.58,5.44-14.89,16.52-2.67,26.36C1029,740.59,1035.72,744.11,1042.46,748.44Z"/><path class="cls-18" d="M974.26,1006.46c-4.24-27.73-8.44-55.12-12.75-83.27,15.9-2.54,31.41-6.13,46.52,1.83a32,32,0,0,1,15.44,38.82A68.22,68.22,0,0,1,1012.15,984C1004.41,993.81,986.5,1003.81,974.26,1006.46Z"/><path class="cls-18" d="M940.46,929.87c4.17,27.24,8.34,54.43,12.68,82.81-10.09.64-19.47,1.47-28.87,1.74-5.79.16-11.61-.61-17.42-.8-3-.1-4.32-1.14-4.78-4.33-2.73-19.1-5.76-38.15-8.48-57.25-.21-1.48.76-4.19,1.88-4.65,14.26-6,28.65-11.66,43-17.39A8.19,8.19,0,0,1,940.46,929.87Z"/><path class="cls-15" d="M872,955c2.68,18,5.26,35.33,7.85,52.68L878.6,1009c-10.55-4.29-21.14-8.5-31.6-13-1-.43-1.82-2.73-1.75-4.12q.78-15.2,2.08-30.38a4.07,4.07,0,0,1,2.4-2.93C856.9,957.19,864.11,956.17,872,955Z"/><path class="cls-15" d="M823.9,983.9l-34.53-24.45h36.14C825,967.7,824.49,975,823.9,983.9Z"/><path class="cls-18" d="M848.61,727.59l-28.16,53.78-1.57-.27c-.12-15.17-5.34-28.11-16.78-38-11.24-9.69-24.18-15.15-39.77-13.59a19,19,0,0,1,.69-3.16,206.63,206.63,0,0,1,61.39-81.23c9.43-7.61,20.61-11.51,32.1-14.32,3.81-.94,8.42-.24,12.27,1,6.27,2,10.49,6.18,10.54,13.49.06,7.81.31,15.63.67,23.44.17,3.77-1.15,5.9-4.75,7.6C863.36,682,851.68,688,840,694a36.38,36.38,0,0,0-6.71,4.28c-8,6.65-7.36,17,1.62,22.48C838.82,723.15,843.15,724.9,848.61,727.59Z"/></svg>