<svg id="Layer_1" data-name="Layer 1" xmlns="http://www.w3.org/2000/svg" viewBox="0 0 2000 2000"><defs><style>.cls-1{fill:#573414;}.cls-2{fill:#fea11c;}.cls-3{fill:#fda01c;}.cls-4{fill:#fca01c;}.cls-5{fill:#593514;}.cls-6{fill:#fea11d;}.cls-7{fill:#fca01d;}.cls-8{fill:#5c3a1a;}.cls-9{fill:#faa121;}.cls-10{fill:#eea96e;}.cls-11{fill:#d77334;}.cls-12{fill:#c67a3b;}.cls-13{fill:#d87334;}.cls-14{fill:#f4d3b6;}.cls-15{fill:#ab5621;}.cls-16{fill:#f4d2b5;}.cls-17{fill:#d57233;}.cls-18{fill:#f2d1b4;}.cls-19{fill:#fb4223;}.cls-20{fill:#f1d0b3;}.cls-21{fill:#fb6c54;}.cls-22{fill:#f0b35d;}.cls-23{fill:#563313;}.cls-24{fill:#f4d3b7;}</style></defs><title>Artboard 1 copy 6</title><path class="cls-1" d="M594.89,842.56c-6.71-17.64-4.13-34.72,2.61-51.75,4.53-11.44,3.82-23.16.11-34.75-2-6.14-4.21-12.19-6-18.37-4.36-15.29-2.81-30.1,4.11-44.39.92-1.9,1.52-4,2.27-5.94l12.2-15a30.56,30.56,0,0,0,12.13-7c12.38-10.87,27.15-17.2,43.66-17,17.13.24,34.27,1.82,51.35,3.45,12.62,1.21,24.72.26,36.16-5.41,20-9.9,40.42-10,61.73-4.43,16.23,4.25,32.92,6.75,49.43,9.88,3,.56,6.06.4,10.12.63-8.79-9.17-2.85-16.86,1.12-24.72,7.93-9.34,17.4-14.73,30.18-12.12a7.81,7.81,0,0,0,4.64-.81c12.77-6.27,25.76-6.45,39.17-2.17a48.55,48.55,0,0,0,28.51.79c4.89-1.36,11.28-1.58,15.69.49,6.47,3,12.23,2.07,18.59,1.29,15.54-1.93,30.35,0,39.5,14.38,4.24,6.64,9.25,9.19,16.33,9.66,16.37,4.92,32.85,7.07,49.72,2.46,13.57-3.71,26.46-1.52,39.19,4.14,10.91,4.86,22.16,8.85,34.29,9.75,13,1,23.19,7.49,32.55,16.09a140.88,140.88,0,0,0,19.7,15.55c4.18,2.65,9.69,3.19,14.61,4.68,6.19.94,12.43,1.68,18.57,2.87,12,2.33,21.49,9.48,30.77,16.89,4.89,5.61,10.79,9.27,18.35,10.2,10.77,1.32,18.6,7.37,25.58,15.4,11.15,12.82,14.36,28.89,19.39,44.27.66,2,1.19,4.06,2,6.82,1.37-1.69,2.32-2.84,3.24-4,21.47-27.67,33.56-59.43,41-93.28,2.81-12.78,6-25.47,9.39-38.13,2.44-9.22,6.71-13.16,12.91-12.79,6.44.39,11.89,5.7,12.13,14.72.46,17.53.77,35.18-.78,52.6-2,22.47-5.92,44.78-9,67.16-.16,1.16-.16,2.34-.3,4.37,8.33-6.65,17.65-7.12,26.94-8,1.39-.13,3.21-1.76,3.82-3.15,2.61-5.88,4.31-12.21,7.33-17.85,6.28-11.75,16.83-18,29.73-19.82,11.8-1.62,21.29,3.39,28.67,12.41,4-1.28,7.8-2.81,11.76-3.72,14.23-3.29,26.34.29,35.5,11.94,2.12,2.7,4.16,3.45,7.29,2.48,12.49-3.84,23.37-2.12,31.65,9.07.76,1,2.73,1.44,4.21,1.6,23.39,2.55,36.49,16.67,37.28,40.08.51,15-2.7,29.25-8,43.09-9.87,25.91-24.93,48.84-42.15,70.31-5.44,6.77-12.79,12-19.06,18.12-1.24,1.22-2.4,3.51-2.17,5.1,2.28,15.68-3.59,27.18-18.63,32.11-10.75,3.52-22.19,4.94-34.65,7.57-1.33,5.4-3.29,12.64-4.89,20-7.57,34.83-21.13,67.74-32.52,101.35-.75,2.2-1.27,4.47-1.89,6.71-2.57,5.51-4.63,11.34-7.87,16.43-2.71,4.25-6.1,9-10.38,11.14-15.73,7.75-31.7,15.19-48.08,21.43-20.74,7.9-42,14.57-63,21.6a8,8,0,0,0-5.79,6.22c-2.75,10.42-1.3,20.62,1.27,30.8,3.75,14.8,7.42,29.73,5.73,45.09-1.31,11.87-4,23.58-6.14,35.36-4.17,11.38-6.44,22.89-2.21,34.81,1.06,2.82,1.81,5.81,3.23,8.43,7.09,13.07,10.31,26.56,5.12,41.14-9.54,14.07-10.54,29.17-7.92,45.74,2.16,13.67,1.52,27.85,1.28,41.78-.06,3.71-3,7.5-5.07,11-1.3,2.2-3.45,3.88-5.11,5.68l23.34,3.22c.8-2.16,1.61-4.71,2.67-7.13,14.75-33.46,34.82-63.12,63.46-86.27,19.56-15.81,41.67-25.84,67.33-26.6a53.56,53.56,0,0,1,34.35,10.66c11.23,8.48,17,21,18.72,35,2.51,20.27-.66,40.13-5.45,59.7-13.53,55.28-35.82,106.63-69.92,152.5-4.16,5.59-9,10.7-13.68,15.89-15.79,17.48-34.86,24.15-58.52,20-40.31-7.12-72.75-26.27-96.94-59.35-3.17-4.34-3.3-8.42-1.83-13.59,1.42-5,.94-10.57,1.25-15.9.62-10.63.67-10.8-9.19-14.64-21.87-8.52-43.82-16.85-66.39-25.5-.94,2.4-1.72,4.31-2.43,6.25-14.14,38.57-31.78,75.33-56.79,108.18-4.33,5.69-9.22,11-14,16.28-15.71,17.23-34.59,23.9-58.09,19.75-40.31-7.11-72.76-26.21-97-59.25-3.15-4.3-3.53-8.38-2-13.57,1.36-4.65,1.15-9.86.94-14.8,0-1.3-2.48-2.79-4.09-3.72a945.54,945.54,0,0,0-112.25-55.57c-32.84-13.47-65.92-26.36-99-39.22a22.22,22.22,0,0,0-11.26-.79c-15,2.59-27.65-3.12-39-11.64-6.82-5.11-12.65-11.64-18.49-17.93-3.94-4.24-8.27-6.57-14.07-6.58-7,0-14-.22-21-.56a41.46,41.46,0,0,1-30.19-14.47c-2.73-3.09-5.42-6.22-8.17-9.29-6.87-7.66-15.25-12.25-25.66-13.19a112.42,112.42,0,0,1-14.29-2.49c-12.77-2.85-21.74-10.48-27.42-22.17-4.43-9.1-9.94-17.84-9-28.62,1.72-8.36,3.63-16.68,5.07-25.08.74-4.33,1.59-9,.76-13.16-2.78-13.94-3.69-27.69.74-41.45,5.13-16,4.68-32.11,1.5-48.35-3.29-16.79-5.56-33.66-2.34-50.72,2.1-11.09,4.76-22.07,6.83-33.16.32-1.73-.66-5-1.88-5.49-8.94-3.63-18.1-6.73-27.19-10-15.51-6.5-30.75-13.78-46.6-19.27-14.68-5.08-23.82-14.35-28.75-28.75-14-41-30.46-81.25-39.29-123.92-2.23-10.78-2.61-10.1-13.22-11.49a114.79,114.79,0,0,1-26-6.23c-13-5-19-16.6-16.33-30.32.65-3.38-.4-4.86-2.79-6.53-26.73-18.56-66-82.87-68-117.16-.41-6.94-.73-14,.17-20.89,2.41-18.34,15.92-31,34.46-32.66a11.41,11.41,0,0,0,8.49-4.4c6.67-7.88,15.44-10.24,25.26-7.46,5.7,1.62,9.45,1.06,13.72-4,9.58-11.38,25-13.7,40.47-7.45,1.33.53,2.6,1.2,3.62,1.67,3.6-2.93,6.74-6.21,10.51-8.42,15.88-9.29,38.37-2.47,48.24,14.85,3.25,5.7,5.29,12.12,7.49,18.35.9,2.54,1.78,3.81,4.71,3.78,23.21-.22,34.61,11.94,42.36,32.86a116.31,116.31,0,0,1,7.49,45.34c-.61,15.35-5.93,28.64-16.55,39.77-1.12,1.16-2.17,2.38-3.24,3.58-.09.11-.07.32-.16.83,1,.71,2.14,1.52,3.3,2.3,11,7.45,13.63,18.48,5.6,29.1-4.66,6.16-11.24,10.88-17,16.21-1,1-2.26,1.74-3.39,2.61l-29.89,16.32,7.33,36.31c8-8.36,9.23-8.57,19.83-4.24a46,46,0,0,0,5.64,1.54c2.24.53,4.5,1.46,6.74,1.43,1.29,0,3.39-1.35,3.71-2.5,2.69-9.61,8.43-17.26,15.09-24.38,7.41-3.37,14.68-7.14,22.31-9.89,3-1.1,4.25-2.19,4.85-5.18,1.38-6.82,2.53-13.78,4.87-20.29C610.5,888.77,605.31,865.46,594.89,842.56Zm3.48,151.05c-1.73-11-3.46-22-5.4-34.36l-10,7.23a18.91,18.91,0,0,0-3.13,2.76c-5.58,7.67-8.29,16-4,25.1,5.25,11.18,14.69,17.28,27.87,21.08C601.71,1007.29,600,1000.45,598.37,993.61ZM1409.88,811.8l.76-1.07c8.07-22.67,12.64-46.08,15.06-70-2.67,4.76-4.69,9.72-7,14.53-10.86,22.61-25.55,42.7-41,62.31-1.49,1.89-3.06,4.28-3.21,6.53-.7,10.54-.91,21.12-1.3,31.68l3.07,33,2.63.44c5.13-10.13,11.11-19.94,15.21-30.48,6-15.4,10.63-31.34,15.85-47ZM588.61,1033.14a6.65,6.65,0,0,0-.88-.62c-14.74-7.29-26.8-17.17-32.74-33.19-.4-1.07-2.37-1.86-3.75-2.2-7.43-1.86-14.9-3.56-22.37-5.28-2.37-.55-4.78-1-7.17-1.47.41,2.28.68,4.59,1.26,6.82,5,19.23,10,38.48,15.28,57.64.63,2.3,2.44,5.18,4.45,6,16.6,7.13,33.39,13.85,50.12,20.69l4.74,1.68c2.14-15.79,4.17-30.87,6.21-46Zm670.64-318.06c-18.45-2-33.67-10.37-46.6-23.37-2.53-2.54-5-5.29-8-7.16-4-2.52-8.36-5.52-12.86-6.12-16.07-2.11-31.49-5.92-46.19-13a29,29,0,0,0-14.49-3c-10.75,1-21.38,3.32-32.4,5.16a35.1,35.1,0,0,1,2.56,3.84c3.23,6.53,7.08,12.88,9.33,19.74a37.16,37.16,0,0,0,9.67,15.68c6.49,6.36,12.89,13,18,20.47,2.91,4.23,3.18,10.26,4.64,15.49-2.5,4.52-5,9-7.74,14,12,3.11,22.35,2.35,32-2.08,18.35-8.44,36.85-8.86,56.14-3.88,15.35,4,31.23,6.16,46.87,2.59a95.17,95.17,0,0,1,51.9,2c4.68,1.52,10,1.25,16.35,2-4.34-6.64-7.45-12.31-14.13-13.13-13.33-1.63-23.87-8.16-33.27-17.21C1282.19,718.61,1271.42,714.94,1259.25,715.08Zm114.33,312.28c-.17,13.47-3.9,26.11-8.94,38.47a15.47,15.47,0,0,0-1.24,6.78c1,12.79,5.27,24.69,10.41,36.56a43.65,43.65,0,0,0,4.52-1.19c22.52-8.78,45-17.64,67.56-26.36a10.87,10.87,0,0,0,7.24-8.42c8.61-36.77,17.39-73.5,25.91-110.29.3-1.34-1.13-3.88-2.45-4.64-5.43-3.1-11.13-5.72-16.74-8.52-4.83-3.08-10.12-5.64-14.39-9.37-6.27-5.47-12.83-11.1-17.41-17.9-6.27-9.32-3.31-19.25,5.85-25.79,1.56-1.11,3.18-2.12,5.08-3.37-10.77-10.43-18.22-22.08-19.78-35.74-8.64,15.63-17.44,31.55-26.25,47.46-3.6,5.29-6.58,11.16-11,15.71-5.51,5.73-8,12.34-9.47,19.81-2.62,13.29-6.75,26.41-4.54,40.22,1.52,9.5,3.21,19,4.83,28.46Q1373.2,1018.3,1373.58,1027.36ZM955,733.94c-1-5.35-5.21-7.67-9.55-9.31-14.68-5.55-23.92-15.88-28.33-30.82a47.69,47.69,0,0,0-3.16-7.41c-4-8.14-8.68-13-19.7-12-27.54,2.47-54.75-1.56-81.16-9.73-18.47-5.71-36-5.5-53.67,3.35-13.1,6.58-27.4,7.93-42,6.14-7.45-.91-14.93-1.57-22.39-2.35-15.55-2.69-30.89-2.86-46.21,2.73,6.64,5.2,12.66,9.7,18.45,14.48,5.56,4.59,11.65,7.45,19,7.88,12.09.69,23.34,4.37,33,11.73,8.52,6.5,16.67,13.55,24.62,20.75a37,37,0,0,0,19.43,9.42c6.92,1.2,13.53,4.16,20.3,6.25,1.83.56,3.86,1.39,5.62,1.08,14.6-2.58,28.15,1,41.26,6.89s25.11,6.81,37.26-2.69c8.38-6.55,18.47-6.87,28.78-4.36,8.51,2.08,17.12,4.27,25.81,5,10.26.87,20.65.37,31,.12,1.44,0,4.13-2.09,4.05-3C956.93,743.35,955.81,738.66,955,733.94ZM1005,1412.42c.29,2.3.49,4.61.88,6.89,2.86,16.52,6.87,33,3.51,49.9-1.69,8.54-3,17.19-5.32,25.57-.79,2.9-3.58,5.9-6.27,7.52-5.95,3.58-12.82-.08-15.56-7.29-.69-1.81-2.81-4.7-3.74-4.5-3.62.74-7,2.53-11.93,4.49,21.61,9,41.72,17.38,61.77,25.88,9.35,4,9.86,3.94,15.67-4.33,6.08-8.66,11.84-10.85,22.11-8.49,3.09.71,6.21,1.28,9.42,1.93,7.77-22.37,21.55-41,34.15-60.22,2.5-3.83,5.06-7.62,7.6-11.42,5.22-4.85,10.53-9.61,15.6-14.62,1-1,1.32-2.85,1.4-4.35.45-8,.22-16.16,1.23-24.12a43.88,43.88,0,0,1,4.85-15.69,17.8,17.8,0,0,0,1.3-15.88c-1.4-3.87-3.1-7.66-4.22-11.61a30,30,0,0,1,1.9-22c2.76-5.63,7-7.51,13.23-6.2,5,2.47,8.7,6.49,6.69,11.93-2.65,7.18-.87,13.2,1.86,19.6,4.51,10.57,4.19,21-.42,31.73-2.25,5.26-2.22,11.51-3.48,18.79,14.32-9.08,28.27-14.11,43.2-15.58,21.14-2.09,40.37,1.53,53,21.13,12.5,17.59,10.15,37.6,8.71,57.27a7.17,7.17,0,0,0,1.64.26,4.48,4.48,0,0,0,1.53-.48c14.42-8,28.29-5.81,42.52,1.18,5.92,2.91,12.94,4.25,19.59,4.82,7.65.66,17.43-6.07,17.6-11.53.3-9.82.93-19.84-.58-29.46-3.22-20.4-4.61-40.14,7.11-58.69a17.27,17.27,0,0,0,.34-18c-8-14.65-12.14-30.12-11.07-46.87,1.45-5.72,2.51-11.58,4.43-17.14a111.88,111.88,0,0,0,1.58-69.66c-5.57-19-5.48-37.78,2.73-56.15a55.78,55.78,0,0,0,1.86-5.56c6-16.34,5.61-32.51-.41-48.85-3.45-9.38-6.12-19.08-8.74-28.74-2.36-8.67-2.52-17.56,1.33-25.83,9.75-21,8.76-42.52,4-64.23a98.11,98.11,0,0,1-.3-42.63c1.32-5.94,2.59-11.9,4-17.82a126.74,126.74,0,0,0,1.52-53.83,148.32,148.32,0,0,1-2.19-27.21c.08-14.86,1.23-29.71,1.6-44.58a70,70,0,0,0-6-30c-14,3.77-27.12,0-40.47-3a58.86,58.86,0,0,0-22.21-.62c-13.88,2.34-27.67,3.76-41.7,2.69-11.26-2-22.54-3.92-33.76-6.13-9.27-1.83-18-.44-26.86,2.59-9.59,3.26-19.61,5.31-29.49,7.66-2.5.6-5.2.37-8.54.56,1,2.41,1.68,4.19,2.43,6,2.08,4.95,4.47,9.79,6.2,14.86,2.69,7.87,2.11,15.21-4.92,20.92-1.54.44-3.07,1-4.64,1.3C1135,826,1127,821,1127.48,814.13s-2.59-12.06-4.74-17.81c-.93-2.51-2.29-4.86-3.46-7.28-6.19-12.84-9.83-26.48-4.08-39.93,4.38-10.24,1.36-16.5-6.21-22.5-1.54-1.22-2.86-2.72-4.38-4-7.43-6.09-12.57-13.56-14.71-23.08-3.24-14.42-12.08-24.11-25.87-29.14-11.55-4.22-21.34-10.68-26.32-22.22-5.78-13.4-17.54-13.25-28.65-9-7.51,2.9-12.71,2.41-18.74-2.07-2-1.5-5.6-2.47-7.87-1.76-14,4.39-27.69,2.28-41.16-1.79-7.74-2.34-14.55-1-21.88,1.67-5.15,1.91-11,1.79-16.63,2.51a30,30,0,0,1-3.7,0c-.14,5.88,3.55,8.44,7.53,10.52,15.59,8.16,25.86,21,31.33,37.33,3.11,9.26,8.41,15.07,17.36,18.88,21,8.94,24.87,24.89,24.49,45.3-.25,13,1.72,24.32,8,35.37,3.81,6.75,8.73,13.18,8.18,21.27l-4.78,3.14c-8,3.38-16.07.79-19.87-6.86-4.21-8.49-7.85-17.27-12-25.78-.69-1.41-3-3.15-4.35-3-20.14,3.06-39.74-.65-59.1-5.19-8-1.87-14.54-1.66-21.25,3.16-12.55,9-26.29,10.7-40.89,5.66-5.83-2-11.69-3.93-18.18-6.11.38,2.31.57,3.86.89,5.39,2.54,12,4.27,24.21,1.09,36.23-2.13,8-.74,14.91,2.41,22.28,8.09,18.95,9.41,38.24.34,57.32-6.54,13.77-7.28,27-.66,41.31a64.35,64.35,0,0,1,4.74,40,340.85,340.85,0,0,1-9,34.83c-5,15.85-6.38,31.08.19,47.17,5.46,13.4,6,28.14,3.56,42.43-2.3,13.38-5.91,26.55-9.18,39.76-2.63,10.65-2.42,21.18,2.36,31,7.88,16.19,8.77,32.8,3.79,49.73-6.41,21.8-6.42,42.8,3.7,63.82,6.3,13.1,6.2,27.5,3,41.67-1.33,5.93-3.07,11.77-4.62,17.65-7.37,15.43-8,31.24-2.72,47.41A151,151,0,0,1,823.2,1443c-.36,8.65-1.4,17.28-2.11,25.73,20.32,2.48,40.69,1.5,61.12-2a164.06,164.06,0,0,1,34.54-2.46c8.56.37,17.07,3.53,25.44,6,10.95,3.25,21.42,3.55,31.63-2.4,3.23-1.88,7-2.77,10.2-4.74,1.74-1.08,4-3.59,3.77-5.22-1.32-12-3.19-24-4.89-35.92-2.06-14.68-4.73-29.31-6-44.06-2-22.77-4.51-45.72,4.68-67.77,4.78-7.2,9.74-9.17,15.47-6.13s7,8.58,3.5,16.25c-4.29,9.43-3.25,19.23-2.55,29,.63,8.91.82,17.86,1.85,26.72C1001.23,1388.2,1003.25,1400.29,1005,1412.42Zm-216.23-151.9c-1.19-17,2.15-33.51,6.29-49.9a45.33,45.33,0,0,0-3-31.42,63.42,63.42,0,0,1-5.19-39.87,230.17,230.17,0,0,1,5.55-22.43c6.44-21.22,7.29-42.17-1.13-63.19a45.85,45.85,0,0,1-2.65-27c2.68-12.22,5.29-24.54,9.16-36.42,6.15-18.86,6.71-37.11-1.66-55.48-6-13.22-5.51-26.84-.56-40.36a70.25,70.25,0,0,1,2.91-7.51c7.69-15.29,6.65-30.52-.35-45.61-4.54-9.8-6.06-19.64-3.07-30.28,3.16-11.22,1.25-22.46-1.79-33.42-.73-2.66-2.95-6.43-5.1-6.91a55.71,55.71,0,0,1-20-8.45,7.21,7.21,0,0,0-3.63-.89c-16.83-.72-29.62-8.9-41.15-20.65-12-12.19-25.55-21.82-43.92-22.26-8.79-.2-16.52-4.47-23.42-9.92-3.65-2.89-6.93-6.44-11-8.63a134.11,134.11,0,0,0-18-7.62c-3.05-1.11-5.21.7-7.06,3.4-9.53,13.91-10.72,28.59-4.34,44,9.08,21.91,9.86,43.83.57,65.87-4.29,10.17-3.71,20.26.41,30.33,1.22,3,2.08,6.12,3.31,9.1,10.19,24.68,11.21,49.56,3,75.13-7.57,23.7-8.75,47.72-1.67,72a131,131,0,0,1,2.94,61.71c-1.95,10.35-2.4,21-3.75,31.46-.55,4.31.91,6.13,5.18,7.58,20.18,6.86,40.34,13.85,60.2,21.59A55,55,0,0,1,703.84,1126c14.21,13.82,9,37.5-9.72,43.7a56,56,0,0,1-22.65,2.72c-11.69-1.2-23.2-4.29-34.71-6.91-6.19-1.42-12.23-3.53-18.56-5.4-.52,2.38-.93,4.11-1.26,5.85q-2.85,15-5.67,30c-.38,1-1.12,1.93-1.08,2.87.44,10.18-.06,20.54,1.73,30.48,4.07,22.66,6.09,45.09-.93,67.48-2.82,9-2.58,18-.51,27.06,2.16,9.43,2.73,18.89-1.05,28-4.55,11-5.1,21.11.59,32.32,4.51,8.91,9.82,14.51,19.87,15.48,14.09,1.35,27.76,4.4,38.65,14.21,6,5.37,11.26,11.52,16.74,17.42a18.17,18.17,0,0,0,13.33,6c7.51.26,15,.65,22.54.87,10,.3,18.48,3.73,25.41,11,4.57,4.82,8.84,10,14,14.08a102.22,102.22,0,0,0,17.81,10.6c4.65,2.27,9,1.37,11.83-3.84a9.17,9.17,0,0,1,4-4.16c4.11-1.61,4.84-4.94,5.32-8.53,2.62-19.46,1.46-38.68-4.72-57.34-7.14-21.56-7.27-42.7,1.13-64,5.11-13,8.47-26.5,4.41-40.43C797,1283.73,792.69,1272.18,788.78,1260.52ZM541.87,895.13l-.35-1.72c-4.65-.7-9.29-1.49-14-2.08-5.14-.65-8.72-3.17-10.17-8.22-1.33-4.6.08-8.49,3.61-11.62,4.26-3.77,8.45-7.62,12.87-11.2,13.18-10.68,18-24.57,16.08-41.1a81.87,81.87,0,0,0-1.42-10.65c-2.63-10.38-4.2-21.32-12.18-29.39a14.78,14.78,0,0,0-7.68-4.12c-18.07-2.81-34.75,2.78-51.13,9.41-1.81.74-4,3.32-4,5.11A56.07,56.07,0,0,0,475,802.79c.19.88,2.76,2,4,1.78,4.59-.71,9.08-2.12,13.66-2.93a11,11,0,0,1,12.58,7.69c1.57,5.15-.58,11.4-5.69,13.07-9.14,3-18.4,6-28.39,4.56a11,11,0,0,0-7.1,1.77c-13.15,9.07-15.83,22.21-13.85,37,.92,6.9-3,12.41-9.37,13.41S429.13,875.83,428.2,869c-1.76-13-.94-25.76,4.78-37.87a24.36,24.36,0,0,0,.91-4.13c-3.78.92-7.45.76-9.54,2.49-7.89,6.57-16.43,9.19-26.5,6.81a4.5,4.5,0,0,0-3.72.82c-6.72,7.38-15.42,10.77-24.93,12.59,4.21,11,24.6,36.76,35.36,46.39,6.5,5.82,12.54,8.72,20.61,3.65,1.62-1,3.68-1.38,5.55-2,7-2.3,13.22.44,15.3,6.73,2,6-1.17,11.83-7.85,14.34-5.2,2-10.49,3.71-15.57,5.93-1.69.74-2.86,2.65-4.27,4,1.52,1.35,2.82,3.21,4.59,4,9.14,3.83,18.9,5.6,28.43,3,15.73-4.2,31.53-8.59,46.57-14.7,12.68-5.15,24.39-12.73,36.38-19.5C537.13,899.94,539.36,897.3,541.87,895.13Zm1015.05-47.36c.45,1.21.68,2.05,1,2.83,5.71,12.11,6.55,24.85,4.72,37.86-1.2,8.57-9.84,12.89-16.83,8.55-4.63-2.88-5.91-7.15-5.18-12.53,2-14.88-1.25-27.87-14.4-36.84-1.46-1-3.63-2-5.16-1.66-10.18,2.34-19.57-1.25-29-3.79-5.43-1.46-8.08-7.71-6.65-13.1a11.12,11.12,0,0,1,12.3-8.16c2.84.4,5.62,1.17,8.41,1.84,10.08,2.44,10.3,2.28,11.33-8.08.45-4.41.88-9-4.22-11-16.43-6.48-33.1-12.1-51.18-9.26a14.48,14.48,0,0,0-7.28,3.81c-7.78,7.52-9.69,17.84-12,27.73-6.5,27.75,1.81,48.79,24.46,63.28,5.7,3.65,7.65,7.6,6.36,12.87s-5.06,8-11.51,8.69c-4.3.49-8.54,1.41-13.62,2.28a22.6,22.6,0,0,0,2.38,3.17c2.61,2.18,5.17,4.47,8,6.37,24.58,16.68,52.14,26.11,80.79,32.6,10,2.27,20,.59,29.43-3.62,1.42-.63,3.19-2.32,3.27-3.61s-1.79-2.93-3.18-3.52c-5.77-2.42-11.74-4.4-17.56-6.73a11.16,11.16,0,0,1,7.17-21.12,22.12,22.12,0,0,1,6.07,2.15c8.84,5.6,15.27,2.17,22.46-4,14.81-12.8,24.26-29.33,35.16-45.55-10.4-1.93-19-5.43-25.82-12.77-.84-.9-3.25-.83-4.79-.51-8.66,1.79-16.63.15-23.16-5.64C1565.13,847.07,1561.74,846.44,1556.92,847.77Zm-42.56,542.84c-2.8.24-5.61.33-8.39.73-16.42,2.37-30.66,9.7-43.7,19.59-18.45,14-32.14,32.1-44.32,51.51-14.7,23.41-23.9,48.46-23.21,76.56a10.78,10.78,0,0,1-10.16,11.18,11.14,11.14,0,0,1-12.06-9.83,26.09,26.09,0,0,1-.23-5.37c.49-8,1.07-16,1.62-24.09-4.81-3.08-8-1.85-11,3.24-14,23.35-20.35,48.47-18.23,75.6a18.11,18.11,0,0,0,3.9,9.52,110.51,110.51,0,0,0,31,25.5,114.71,114.71,0,0,0,35.34,13.35c-2.93-15.07-2.34-29.52-.15-43.91,6.88-45,22.72-87,43.68-127.1C1473.08,1439,1489.77,1412.27,1514.36,1390.61Zm-445.08,141.76c-6.8-2.8-7-2.91-10.69,2.75a87.75,87.75,0,0,0-6.08,11.31c-9.57,20.68-14.7,42.27-12.47,65.18a15.56,15.56,0,0,0,3.1,8.21,119.48,119.48,0,0,0,61,38.37,36.82,36.82,0,0,0,4.29.75c0-8.59-.27-16.62,0-24.62,1.19-29,8.67-56.66,18.34-83.76,15-42,34-81.83,62.42-116.56,6.26-7.66,13.81-14.26,21.47-22.06-3.87.36-6.87.5-9.83,1-18.51,2.81-34.09,11.73-48.22,23.5-15.63,13-27.62,29.08-38.45,46.1-15.14,23.77-24.78,49.23-24.06,77.94a10.79,10.79,0,0,1-10.14,11.21,11.17,11.17,0,0,1-12.07-9.83,26.78,26.78,0,0,1-.24-5.37C1068.16,1548.43,1068.74,1540.43,1069.28,1532.37ZM471,954.45c.87,3.43,1.79,6.48,2.42,9.59,8.83,43,25.23,83.58,39.75,124.77a18,18,0,0,0,11,11.55c16.8,6.65,33.16,14.49,50.19,20.41,27.71,9.65,55.75,18.35,83.79,27a70.12,70.12,0,0,0,20.12,2.57c3.56,0,9.24.73,10.35-4.33,1.22-5.57-4-7.7-8-9.31-14-5.58-27.89-11.31-42.17-16-36.09-11.84-72.16-23.62-106.64-39.82-7.2-3.38-12-7.5-14-15.48-7.44-30.6-15.32-61.09-22.85-91.66-2-8.26-3.43-16.68-5.23-25.57Zm906.81,198.8c2.73-.61,5.14-1,7.46-1.69,28.84-8.75,56.34-20.94,83.77-33.23,3.32-1.49,6.23-5.32,7.9-8.76,3-6.25,5.12-13,7.35-19.58,8.82-26.12,17.85-52.17,26.16-78.45,3.87-12.22,6.26-24.9,9.42-37.77l-18.74-6.14c-.77,3.6-1.3,6.39-2,9.15-8.72,36-17.57,71.94-26.13,108-1.89,8-6.51,12.55-14,15.43-25.73,9.89-51.35,20.06-77,30.28-1.69.67-4,2.53-4.09,4C1377.55,1140.45,1377.82,1146.51,1377.82,1153.25ZM854.06,1492.77l-.48,1.76a1036.66,1036.66,0,0,1,166,75.46c3-8.58,5.62-16.31,8.41-24.44-2.25-1.09-4.12-2.06-6-2.92-35.48-15.89-71.19-31.3-106.34-47.91-11.27-5.32-21.75-9.44-34-5.13a9.91,9.91,0,0,1-2.14.2Zm684.3-17.45c1.52-7.26,3.31-14.53,4.53-21.9,2.22-13.43,4-27,1.3-40.54-1.83-9.13-4.63-10.46-12.32-5.6-12.79,8.1-21.7,19.92-30.59,32ZM1468.05,1501l-2.08,1.2c-3,7.45-6.24,14.85-9,22.4a5.79,5.79,0,0,0,1.3,4.9c12.32,12.27,24.8,24.38,37.27,36.5,1.5,1.46,3.18,2.72,5.33,4.54,3.87-7.83,7.55-15,10.85-22.28.46-1-.56-3.31-1.58-4.33-7.47-7.48-15.25-14.65-22.67-22.18C1480.81,1515,1474.5,1507.93,1468.05,1501Zm-266.61,80.9c3.34-7.16,6-13.6,9.3-19.67,2.59-4.72,1.64-7.86-1.88-11.73-9.87-10.85-19.27-22.15-28.84-33.28-3.13-3.65-6.23-7.32-10-11.69-2.92,6.16-5.37,11.69-8.15,17-1.51,2.9-1.38,5.08.62,7.77,7.49,10,14.62,20.36,22.12,30.4C1189.87,1567.71,1195.47,1574.4,1201.44,1581.9Zm318.94-56.76,2-1.21c2.54-7,5.15-14,7.53-21a3.86,3.86,0,0,0-.86-3.29c-13.49-13.29-27.07-26.49-41-40.06-3,5.32-6.06,11.12-9.42,16.77-1.68,2.81-1.29,4.61,1.09,6.91q17.58,17,34.79,34.33C1516.76,1519.81,1518.45,1522.6,1520.38,1525.14Zm-191.37-4c-1-.48-1.8-.9-2.61-1.21-18.88-7.2-37.81-14.26-56.62-21.63-12.44-4.88-12.28-5-15.6,7.87-1,3.89-.61,6.06,3.77,7.62,16.84,6,33.54,12.4,50.24,18.78,15.17,5.8,15.14,5.88,20.67-9.84A9.5,9.5,0,0,0,1329,1521.13ZM1149.78,1552c-2.74,8.39-5.35,16.16-7.73,24a4.79,4.79,0,0,0,1,3.71q12.93,16.11,26,32.06c2.78,3.4,5.64,6.73,8.88,10.59,3.71-5.94,7.16-11.15,10.21-16.59a5.18,5.18,0,0,0-.23-4.65C1175.54,1584.9,1163,1568.87,1149.78,1552Zm72.81-19.61c1.91-5.56,3.24-10.36,5.18-14.9,2.52-5.88,2.11-10.55-3-15.11-4.22-3.79-7.51-8.61-11.27-12.92-6.69-7.65-13.42-15.25-20.63-23.44-3.67,5.91-7.1,11.11-10.11,16.55-.57,1,0,3.36.92,4.41,11.22,13.46,22.59,26.8,34,40.14C1219,1528.65,1220.49,1530.11,1222.59,1532.34ZM356,769.39c-6.33,3.43-7.9,5.88-8.51,12.77-1,11.84,1.3,23.16,5,34.33,1.47,4.41,3.11,7.86,8.24,9.37s12.41,1.71,14.79-2.43c1.6-2.78.83-7.38.09-10.95-.79-3.78-3.74-7.21-4.11-11C370.28,788.86,363,779.48,356,769.39ZM1635,788.76c-2.46,3.49-5,6.93-7.36,10.43-7.73,11.31-8.64,25.15-13.74,37.45-.6,1.46-.55,4.53.28,5,3.42,2,7.3,4.61,10.93,4.49s9.54-2.16,10.85-5c6.1-13.33,9.18-27.51,7-42.37C1642.39,794.2,1640,790.87,1635,788.76ZM1236.92,1482.2c.92-5.3,1.81-9.42,2.33-13.59,1.56-12.45,3.1-24.94-.52-37.29-1.71-5.82-3.71-6.68-9-4-9.27,4.73-16,12.34-23,20.33C1216.68,1459.13,1226.39,1470.21,1236.92,1482.2Zm-101.43,123.55-1.86.41c-1,10.66-2.18,21.31-2.81,32a60.6,60.6,0,0,0,1.09,14.4c1.85,9.91,4.95,11.26,13.28,5.36,5.36-3.8,10-8.66,15-13,3-2.57,3.21-4.9.56-8.08-7.22-8.66-14.15-17.56-21.21-26.35C1138.21,1608.89,1136.83,1607.34,1135.49,1605.75Zm419.58-780.88c2.44-19.1,6.57-37.19,15.77-53.74a3.39,3.39,0,0,0,.4-2c-.52-3.55-7.5-8.84-11.71-9-6.63-.2-8.74,1.29-10.21,7.29-.73,3-1.42,5.92-2.1,8.89-3.09,13.36-5,26.75-1.76,40.42C1546.61,821.6,1548.83,824.85,1555.07,824.87Zm-1119-19.33c5.76,0,8.15-3.06,9.33-8,4-16.68.23-32.74-3.62-48.8-1.59-6.61-5.6-9.13-12.34-7.86s-10.62,8.48-7.58,14.53a121.46,121.46,0,0,1,11.73,36.13C434.33,796.12,435.22,800.67,436.09,805.54ZM1578.24,822.9c0,.72,0,1.43,0,2.15.29,4.62,2.62,8.13,7.1,8.92,4.92.87,5.08-3.68,6.46-6.93,5.85-13.81,11.92-27.53,17.9-41.29.48-1.11,1.63-2.75,1.26-3.29-2.12-3-4.33-7.63-7-8-3.56-.52-9.39,1.24-11.17,4C1584.1,791.86,1579.54,806.92,1578.24,822.9ZM412.81,805.47c-1.34-17.65-5.9-32.9-14.7-46.45-1.83-2.81-7.72-3.93-11.8-4.06-3.5-.11-6.07,9-4.57,12.4,6.09,13.91,11.86,27.95,17.95,41.86.9,2.06,2.78,5,4.38,5.13,2.15.14,5-1.62,6.57-3.4S412.44,806.5,412.81,805.47Zm1065.6,801.18c3.23-4.77,5.8-8.83,8.64-12.68,1.86-2.52,1.58-4.14-.73-6.32-11.85-11.17-23.51-22.52-35.26-33.79-.94-.9-2-1.64-3.47-2.78-1.47,5.05-2.88,9.48-4,14a4.84,4.84,0,0,0,.66,3.83C1455.33,1581.28,1466.53,1593.56,1478.41,1606.65Zm-41.2-12c-.54,4.15-1.31,7-1.22,9.81.32,10.12.36,20.31,1.65,30.32.72,5.68,3.59,6.76,8.4,3.74,6.41-4,12.25-8.93,18.78-13.78Zm85.69-811.84c2-9.31,6.26-18.26-2.28-26.59-3.51-3.41-6.89-4.82-11.5-3.12-8.12,3-13.92,11.62-13.91,20.79ZM497,754.15c-2.07-4.79-3.6-9.19-5.81-13.22-2.77-5-10.3-8.69-14.91-7.82-3.45.65-11.76,9.28-11.49,13.18.42,5.77,2,11.46,3.09,17.26Zm834.48,743.46c12.62,5.6,17.21,4.11,17.57-5.7Z"/><path class="cls-2" d="M1068.52,639.26c-7.08-.47-12.09-3-16.33-9.66-9.15-14.34-24-16.31-39.5-14.38-6.36.78-12.12,1.75-18.59-1.29-4.41-2.07-10.8-1.85-15.69-.49a48.55,48.55,0,0,1-28.51-.79c-13.41-4.28-26.4-4.1-39.17,2.17a7.81,7.81,0,0,1-4.64.81c-12.78-2.61-22.25,2.78-30.18,12.12l-41.38-28.7c-.88-.61-1.67-1.34-2.49-2,1.93-2.77,4.32-5.32,5.67-8.34,3-6.67-1.84-18.72-8.09-19.72-8.22-1.32-16.57-1.63-22,6.78-23.35-26-36.58-56.35-38.41-91.28-2.69-51.16,20.66-88.86,62.3-116.14,8.18-5.35,18.37-7.67,27.75-11.09,2-.71,4.39-.1,7.32-.1-2.07,5.1-4,9.48-5.64,13.93A156.67,156.67,0,0,0,851.28,415c-2.59,35.28,14.06,60.64,41.44,80.56,22.44,16.32,48,21.49,75.09,22,18.43.34,36.89-.73,55.19,3,37.67,7.78,55,31.65,52.83,70.33-.81,14.06-4.18,28-6.37,41.94C1069.13,635,1068.83,637.13,1068.52,639.26Z"/><path class="cls-3" d="M1367.82,1296.47c2.1-11.78,4.83-23.49,6.14-35.36,1.69-15.36-2-30.29-5.73-45.09-2.57-10.18-4-20.38-1.27-30.8a8,8,0,0,1,5.79-6.22c21.07-7,42.28-13.7,63-21.6,16.38-6.24,32.35-13.68,48.08-21.43,4.28-2.11,7.67-6.89,10.38-11.14,3.24-5.09,5.3-10.92,7.87-16.43q12.86,40.77,25.71,81.56a43.63,43.63,0,0,1,1,4.71c-14,5.79-27.87,11.92-42,17.27-10.19,3.85-20.93,6.23-31.15,10-21.65,8-35.44,27-33.18,51.36.13,1.42-1.7,4.11-3,4.38a77,77,0,0,1-15.34,1.78c-6.82,0-11.91,3.68-12.35,9.9s4.22,11.28,11.12,11a198,198,0,0,0,24.36-2.86c3-.49,4.94-.44,7.1,1.86,19.15,20.37,59.18,22.43,79.69,4.26,1-.88,2.56-1.09,3.86-1.61-5.23,7.18-10,14.75-15.77,21.49-31.23,36.5-71.91,53.39-119,56.59-3,.21-6,.49-9.06.73,5.19-14.57,2-28.06-5.12-41.13-1.42-2.62-2.17-5.61-3.23-8.43Q1366.72,1313.88,1367.82,1296.47Z"/><path class="cls-4" d="M566.49,1142.17c9.09,3.27,18.25,6.37,27.19,10,1.22.49,2.2,3.76,1.88,5.49-2.07,11.09-4.73,22.07-6.83,33.16-3.22,17.06-1,33.93,2.34,50.72,3.18,16.24,3.63,32.39-1.5,48.35-4.43,13.76-3.52,27.51-.74,41.45.83,4.18,0,8.83-.76,13.16-1.44,8.4-3.35,16.72-5.07,25.08-15.35-6.8-31.08-12.87-46-20.58-16.48-8.56-32.21-18.56-48.19-28.07-2.58-1.53-4.77-3.72-7.13-5.6,9.53.22,19.08.25,27.92-4,3.28-1.57,5.23-.49,8.07,1.38a139.3,139.3,0,0,0,21.42,12,10,10,0,0,0,13.69-5.89c2.11-6.21-.7-11.31-7.23-14.1a124.56,124.56,0,0,1-12.35-6.41c-3.18-1.79-3.31-4-1.93-7.6,2.43-6.27,4.79-12.88,5.36-19.5,1.64-19.17-8.31-33.21-22.15-44.9-17.65-14.91-36.51-28.58-50.76-47-10.58-13.71-20.28-28.1-30.38-42.19L445.6,1068l2.45,0c.82,2.52,1.59,5.06,2.48,7.56,5.39,15.32,9.62,31.2,16.53,45.81,8.65,18.28,22.81,31.69,43.44,36.17C531.69,1162.07,550.58,1157.36,566.49,1142.17Zm-9.37,42.66c0-5.13-6.65-12.36-11.54-12.47-8.12-.19-17.88,7.73-18,14.63-.11,5.57,9.07,15.21,14.58,15.29C548.1,1202.36,557.06,1191.93,557.12,1184.83Zm18.18,23.52c-.1-6.87-6-14.52-11.16-14.4s-15.52,9.89-15.6,14.57c-.1,5.47,10.83,15.61,16.63,15.45C570.51,1223.81,575.41,1216.26,575.3,1208.35Z"/><path class="cls-5" d="M433.39,1137.05c10.1,14.09,19.8,28.48,30.38,42.19,14.25,18.47,33.11,32.14,50.76,47,13.84,11.69,23.79,25.73,22.15,44.9-.57,6.62-2.93,13.23-5.36,19.5-1.38,3.57-1.25,5.81,1.93,7.6a124.56,124.56,0,0,0,12.35,6.41c6.53,2.79,9.34,7.89,7.23,14.1a10,10,0,0,1-13.69,5.89,139.3,139.3,0,0,1-21.42-12c-2.84-1.87-4.79-3-8.07-1.38-8.84,4.25-18.39,4.22-27.92,4-11.48-2.48-22.31-6.32-32-13.34-8.38-6.09-13.05-14.94-18.86-23-18.87-26.36-29.47-56.25-39-86.83-15.34-49-21.87-99.26-23-150.37a109.26,109.26,0,0,1,1.84-19.73c.91-5.62,4.73-9.22,10.35-10.33,5.8-1.14,10.75,2.25,12.94,9.55,2.79,9.25,4.68,18.77,7.35,28.06,6.08,21.15,11.85,42.42,18.87,63.26C423.14,1121.21,428.92,1128.91,433.39,1137.05Zm68.08,106.29-1.16-1.13q-10.68-8.89-21.36-17.79c-5-4.17-10.1-8.29-15.15-12.43v.09l-1.12-1.14.07.06-2.27-3.21c-5.36-6.23-10.92-12.3-16.05-18.71-17.94-22.43-34.74-45.6-45.68-72.45-.65-1.6-1.37-3.18-2.06-4.77a71.7,71.7,0,0,0,1.35,16.26c6.49,36.81,16.58,72.62,32,106.69,5.93,13.12,14.29,25.15,21.55,37.67l1.36,1.07h-.12c7.52,15.56,30.56,24.63,47.5,18.68,10.23-3.74,14.48-11.82,15.27-22,.82-10.5-5.05-21.25-13-25l0,.13-1.16-2.2Z"/><path class="cls-5" d="M1517.83,1302c-1.3.52-2.87.73-3.86,1.61-20.51,18.17-60.54,16.11-79.69-4.26-2.16-2.3-4.13-2.35-7.1-1.86a198,198,0,0,1-24.36,2.86c-6.9.29-11.55-4.89-11.12-11s5.53-9.91,12.35-9.9a77,77,0,0,0,15.34-1.78c1.3-.27,3.13-3,3-4.38-2.26-24.38,11.53-43.32,33.18-51.36,10.22-3.8,21-6.18,31.15-10,14.17-5.35,28-11.48,42-17.27,4.31-2.16,8.66-4.25,12.93-6.48,37.64-19.63,66.88-48.36,90.51-83.26,6-8.9,12.61-17.44,19.24-25.9,5.86-7.47,11.4-9.35,16.93-6.48s8.2,9.74,5.38,18a298.76,298.76,0,0,1-13.36,33.37c-25.64,52.78-57.83,101.16-99.48,142.73-11.21,11.19-24.46,20.35-36.78,30.43C1522.06,1298.72,1519.93,1300.36,1517.83,1302Zm-11.39-18.86c34.23-19.79,57.88-50.27,81.58-80.7l26.5-39.74.24-1-.68.61a36.15,36.15,0,0,0-3.85,2.68,314.82,314.82,0,0,1-102.76,62.36c-13.92,5.17-28.45,8.7-42.4,13.78-5.31,1.94-9.78,6.15-14.63,9.32-6.73,6.79-8.59,14.84-6.17,24,.93,7.53,5.77,12.26,12,15.47,12.85,6.64,26.12,7.07,39.28.92,3.43-1.61,6.33-4.34,9.47-6.56a1,1,0,0,0,.78-.45A.61.61,0,0,0,1506.44,1283.17Zm109.49-123,.17-.28-.26,0Z"/><path class="cls-6" d="M1117.37,316.14c-.71,6.64-1.23,13.3-2.16,19.91-1.92,13.61-4.53,27.14-6,40.8-1.49,13.94,5.6,23.64,17.53,30,7.9,4.21,16.29,7.56,23.92,12.19,18.56,11.25,31.65,27,35.74,48.76,2.62,14,1.59,27.68-9,38.75-11.06,11.55-29.49,14.25-47.05,6.95-32.29-13.44-50.65-38.22-57.51-71.91-6.08-29.87-3.13-59.32,6.92-87.85,6.2-17.58,18.79-30.11,35.4-38.39Z"/><path class="cls-6" d="M610.21,672.32l-12.2,15c-6.65-10.3-14.54-20-19.69-31.05-9.36-20-11.79-41.41-8.59-63.49,1.63-11.3,1.45-22.87,3-34.19,4.63-33.82,35.57-59.15,69.25-56.52a63.7,63.7,0,0,1,20.63,5.43C677,514,682.91,529.17,678.31,545.6c-5,17.75-16.77,30.46-30.8,41.57-7.43,5.88-15.18,11.52-21.76,18.28-14.14,14.54-18.58,32.65-17.08,52.47C609,662.73,609.69,667.52,610.21,672.32Z"/><path class="cls-7" d="M594.89,842.56c10.42,22.9,15.61,46.21,6.67,71-2.34,6.51-3.49,13.47-4.87,20.29-.6,3-1.83,4.08-4.85,5.18-7.63,2.75-14.9,6.52-22.31,9.89-6-35.78-2.35-69.67,19.79-99.86C591,846.78,593,844.72,594.89,842.56Z"/><path class="cls-4" d="M544,974.39a46,46,0,0,1-5.64-1.54c-10.6-4.33-11.85-4.12-19.83,4.24l-7.33-36.31,29.89-16.32c1.57,11.86,3.48,23.7,4.55,35.62C546.05,964.76,544.59,969.62,544,974.39Z"/><path class="cls-8" d="M1581.31,1287.23c2.23.21,4.85,0,7.18.78,2,.63,4.3,1.93,5.22,3.62,4.12,7.58.84,22.61-5.8,28.32-5.89,5-11.74,4.68-16.93-1.1q-1.62-1.8-3.15-3.68c-4.54-5.53-7.64-11.39-4.21-18.71S1573.67,1287.36,1581.31,1287.23Zm-2.11,27.43,2.17,1.15c.83-1.62,2-3.15,2.4-4.87.94-4.43,1.5-9,2.21-13.43-3.27-.23-6.66-1.1-9.79-.53-4.73.86-6.27,4.79-3.74,9C1574.34,1309.06,1576.92,1311.77,1579.2,1314.66Z"/><path class="cls-8" d="M1569.57,1063.14c5,1.28,10.24,1.92,14.88,4,7.39,3.29,8.36,10,2.54,15.51-7,6.65-15.6,8.61-24.87,6.64-6.59-1.41-8.3-6.17-5-12.06a8.83,8.83,0,0,0,1-3.42C1558.68,1066,1561.38,1063.55,1569.57,1063.14Zm-2.75,19,14.21-5.19-.38-2.36-13.29-2C1567.18,1075.69,1567.06,1078,1566.82,1082.1Z"/><path class="cls-8" d="M807.63,575.76c5.42-8.41,13.77-8.1,22-6.78,6.25,1,11.07,13,8.09,19.72-1.35,3-3.74,5.57-5.67,8.34C815.63,601.23,804.88,591.85,807.63,575.76Zm14.5.67c-2,1.52-5.06,2.63-5.92,4.65-1.12,2.63,4.43,8.18,7.5,8.35,3.91.21,5.8-2.24,5.82-5.54C829.55,579.86,827.47,577.07,822.13,576.43Z"/><path class="cls-8" d="M1565.11,1058.31c-9.36.13-12.58-4.1-10.88-12a63,63,0,0,0,.85-9.54c.49-8.58,10-14,17-9.16a37.38,37.38,0,0,1,10.05,10.79c1.29,2,1,6.19-.21,8.46A22.45,22.45,0,0,1,1565.11,1058.31Zm-1.61-9.52.93,1.44c3.09-2.41,6.59-4.49,9-7.48.51-.64-2.68-4.91-4.81-6.79-2.29-2-4.36-1.14-4.57,2.22C1563.78,1041.71,1563.66,1045.25,1563.5,1048.79Z"/><path class="cls-8" d="M1342.62,665.9c6.25,1.93,12.88,1.5,15.57,7.54a15.06,15.06,0,0,1-4.31,17.95c-6.32,5.08-12.17,5.54-18.73,1.4a50.25,50.25,0,0,1-4.8-3.41c-6.29-5.12-6.37-8-.56-13.77,1.77-1.75,3.14-4,5.12-5.45A62.92,62.92,0,0,1,1342.62,665.9Zm-6.18,16.38c5.75,5.07,9.66,5.56,12.42,1.19,1-1.55,1-5.34-.09-6.27C1344.55,673.6,1341.76,674.92,1336.44,682.28Z"/><path class="cls-8" d="M1620.71,1252c4.49.07,6.91,1,9.27,4.83,1.66,2.71,5.18,4.61,6.34,8.37,1.61,5.23.56,9.46-3.57,13.06s-8.43,5.5-13.73,2.81a59.3,59.3,0,0,1-8-4.33c-6.47-4.66-6.17-6.32-3.15-13.77C1610.54,1256.36,1613.36,1251.22,1620.71,1252Zm-5.23,16.46.27,2a82,82,0,0,0,10.15,1.5c.37,0,1.55-3.54,1.22-5.21-.54-2.75-1-5.87-5.34-5.91C1615.9,1260.76,1617.77,1266.08,1615.48,1268.44Z"/><path class="cls-8" d="M557.52,713.18c-12.88-.77-13.64-4.45-15.83-16.58-.32-1.77.83-4.28,2.09-5.76,3.35-3.92,17.89-5.83,22.25-3.27,4.73,2.79,6.52,9.27,4.49,16.33S564.71,713.56,557.52,713.18ZM551,696.54c1.31,7,3.07,8.58,7.85,7.56,4.08-.87,3.94-4.85,2.85-6.81C559,692.3,555,697.3,551,696.54Z"/><path class="cls-8" d="M470.43,1339.64c0,5.86-7,11.25-14.67,11.27-6.36,0-14.29-10.75-14.14-19.19.07-4.27,8.58-10.51,14.43-10.61C462.39,1321,470.42,1331.36,470.43,1339.64Zm-19.41-6.8c2.19,8.42,5.46,11.3,10.52,5.6l-5-8.06Z"/><path class="cls-8" d="M808.13,600.17c7,0,16.48,8.69,16.61,15.09.13,5.86-8,13.07-14.76,13.09-6.34,0-13.76-8-13.78-14.79C796.19,608.66,803.78,600.14,808.13,600.17Zm1.61,9.11c-3.19,2.93-5.46,5.94-1.61,8.61,1.54,1.08,5-.58,7.57-1l.11-1.89Z"/><path class="cls-8" d="M1617.66,1302.37c8.55.09,12.12,4.86,12,16,0,5.87-5.22,11.82-10.27,11.84-6.84,0-15-7.55-14.79-13.79C1604.8,1309.47,1611.44,1302.3,1617.66,1302.37Zm4.22,14.54-4.29-5.57c-1.29,1.65-3.78,3.46-3.57,4.89.23,1.64,2.8,3,4.55,4.21C1618.73,1320.55,1620.31,1318.61,1621.88,1316.91Z"/><path class="cls-8" d="M802.29,590.64c.09,6.34-5.11,12.2-11,12.37-7.51.21-15.42-6.81-15.35-13.63.06-5.58,7.51-13.26,12.84-13.23C795.73,576.18,802.19,583.11,802.29,590.64Zm-7.75-.31c-2-2-3.46-4.52-4.63-4.4-1.64.17-3.08,2.3-4.6,3.59,1.62,1.45,3.09,3.2,5,4.16C790.82,594,792.53,592,794.54,590.33Z"/><path class="cls-8" d="M505.82,1354.6c0,6.48-5.12,10.85-12.71,10.88-7.3,0-13.37-6.5-13.48-14.5-.09-6.07,6.3-12.14,12.66-12C498.36,1339.07,505.84,1347.72,505.82,1354.6Zm-13.15-6.89-2,.11c-.54,1.69-1.85,3.61-1.41,5s2.42,2.79,4,3.4c.83.32,2.3-1,3.47-1.66C495.39,1352.26,494,1350,492.67,1347.71Z"/><path class="cls-9" d="M1307.92,711.69c-9.28-7.41-18.74-14.56-30.77-16.89-6.14-1.19-12.38-1.93-18.57-2.87a24.49,24.49,0,0,1,33.82-3.41C1300,694.51,1305.74,702,1307.92,711.69Z"/><path class="cls-10" d="M611.27,1195.93q2.84-15,5.67-30c.33-1.74.74-3.47,1.26-5.85,6.33,1.87,12.37,4,18.56,5.4,11.51,2.62,23,5.71,34.71,6.91a56,56,0,0,0,22.65-2.72c18.68-6.2,23.93-29.88,9.72-43.7a55,55,0,0,0-17.94-11.47c-19.86-7.74-40-14.73-60.2-21.59-4.27-1.45-5.73-3.27-5.18-7.58,1.35-10.48,1.8-21.11,3.75-31.46a131,131,0,0,0-2.94-61.71c-7.08-24.29-5.9-48.31,1.67-72,8.18-25.57,7.16-50.45-3-75.13-1.23-3-2.09-6.11-3.31-9.1-4.12-10.07-4.7-20.16-.41-30.33,9.29-22,8.51-44-.57-65.87-6.38-15.38-5.19-30.06,4.34-44,1.85-2.7,4-4.51,7.06-3.4a134.11,134.11,0,0,1,18,7.62c4,2.19,7.31,5.74,11,8.63,6.9,5.45,14.63,9.72,23.42,9.92,18.37.44,32,10.07,43.92,22.26,11.53,11.75,24.32,19.93,41.15,20.65a7.21,7.21,0,0,1,3.63.89,55.71,55.71,0,0,0,20,8.45c2.15.48,4.37,4.25,5.1,6.91,3,11,5,22.2,1.79,33.42-3,10.64-1.47,20.48,3.07,30.28,7,15.09,8,30.32.35,45.61a70.25,70.25,0,0,0-2.91,7.51c-5,13.52-5.47,27.14.56,40.36,8.37,18.37,7.81,36.62,1.66,55.48-3.87,11.88-6.48,24.2-9.16,36.42a45.85,45.85,0,0,0,2.65,27c8.42,21,7.57,42,1.13,63.19a230.17,230.17,0,0,0-5.55,22.43,63.42,63.42,0,0,0,5.19,39.87,45.33,45.33,0,0,1,3,31.42c-4.14,16.39-7.48,32.85-6.29,49.9-2.22,1.22-5.24,1.89-6.51,3.75a118.72,118.72,0,0,0-8.57,15.41c-4.41,9.27-9.11,18.07-20.81,19.43-4.43.51-8.87,1-13.31,1.26-7.6.51-10.91,3-13.2,10.23-.81,2.55-1.07,5.33-2.23,7.68-.9,1.83-2.53,4-4.32,4.58-8.37,2.88-13.14-.19-17.09-9.66-5-11.91-10.33-23.6-20.14-32.62-1.36-1.25-1.94-4-1.86-6,.21-5.68,1.49-11.36,1.33-17-.13-5.08-.69-10.94-6.1-13.45-7.57-3.52-15.32-7.11-23.38-9.08-15.83-3.87-28.4-11.17-34.89-26.93C616,1203.86,613.44,1200,611.27,1195.93ZM717.7,877.81c.63-10.77-2-19.5-8.48-26.86a11.12,11.12,0,0,0-15.05-1.72c-4.63,3.48-6.27,10.09-2.72,14.83,4.06,5.43,4.39,11.13,3.35,17.32-1.53,9,1.74,16.13,8.89,21.59,2.42,1.84,5.13,3.34,7.34,5.4a10.83,10.83,0,0,1,3.23,5.19c1.6,7.45,6.49,11.81,12.75,10.83,6.63-1,10.62-6.92,9.7-14.4a27,27,0,0,0-12.51-19.81C719,886.8,715.56,883.35,717.7,877.81Zm24.79,257.49a40.92,40.92,0,0,0-19.43-33.4,11.15,11.15,0,0,0-13.87,17.31c1.37,1.41,2.92,2.63,4.4,3.93a17.76,17.76,0,0,1,6.55,13.52c.22,7.46,5.13,12.19,11.65,11.94C738.66,1148.34,742.74,1143.27,742.49,1135.3Zm-20.38,44.55c6.46.08,12.33-6,12.58-13,.21-6-5-11.42-11.13-11.57-6.44-.15-12.19,5.94-12.38,13.11A10.81,10.81,0,0,0,722.11,1179.85Z"/><path class="cls-10" d="M818.15,1342.2c1.55-5.88,3.29-11.72,4.62-17.65,3.16-14.17,3.26-28.57-3-41.67-10.12-21-10.11-42-3.7-63.82,5-16.93,4.09-33.54-3.79-49.73-4.78-9.84-5-20.37-2.36-31,3.27-13.21,6.88-26.38,9.18-39.76,2.46-14.29,1.9-29-3.56-42.43-6.57-16.09-5.15-31.32-.19-47.17a340.85,340.85,0,0,0,9-34.83,64.35,64.35,0,0,0-4.74-40c-6.62-14.27-5.88-27.54.66-41.31,9.07-19.08,7.75-38.37-.34-57.32-3.15-7.37-4.54-14.25-2.41-22.28,3.18-12,1.45-24.21-1.09-36.23-.32-1.53-.51-3.08-.89-5.39,6.49,2.18,12.35,4.1,18.18,6.11,14.6,5,28.34,3.35,40.89-5.66,6.71-4.82,13.28-5,21.25-3.16,19.36,4.54,39,8.25,59.1,5.19,1.31-.2,3.66,1.54,4.35,3,4.19,8.51,7.83,17.29,12,25.78,3.8,7.65,11.89,10.24,19.87,6.86q1.07,3.58,2.12,7.17c-11.58-1.18-23.15-2.42-34.74-3.5a11.15,11.15,0,0,0-3,22.1c3.17.54,6.41.63,9.61,1,8.33,1,16.65,2.07,25,3.11q1.08,7.58,2.17,15.17c-21,3.1-37.54,13.57-49.65,30.87A228.27,228.27,0,0,0,929.35,907a26,26,0,0,0-2.69,10.66c-1.12,18.41-1.77,36.84-2.87,55.24-2.17,36.23-3.1,72.32,7.06,107.77,5.75,20.06,17.41,34.67,37.86,40.29,9.64,2.65,19.95,2.85,30,4.16l2.1,13.68c-12.29-.87-24.6-1.53-36.87-2.67-17.17-1.59-33.72.34-49.18,8.25-12.44,6.36-20.76,16.3-21.65,30.59-1.57,25,8.07,46.07,27.12,61.55,19.57,15.91,40.3,30.6,64.72,38.73q-1.68,17.45-3.37,34.89c-9.19,22-6.71,45-4.68,67.77,1.31,14.75,4,29.38,6,44.06-2.15,1.85-4.33,3.67-6.44,5.56-6.42,5.73-16.64,7.14-24.06,3a93.54,93.54,0,0,1-11.21-7.34c-17-13-34.81-20.44-56.24-10.69-2.21,1-6.22-.52-8.79-2-13.84-7.7-22.72-20.08-27.62-34.49C843.08,1360,833.5,1348.79,818.15,1342.2Zm85-239a29.84,29.84,0,0,0-5.88,2.42c-4.51,2.89-8.82,6.11-13.18,9.25-12.08,8.71-19.08,20.6-21.89,35.11-1.93,10,.77,16,8,17.61s12.21-2.9,14-13c1.59-8.87,5.52-16.2,13-21.48,4.52-3.21,9.17-6.25,13.57-9.63,4.07-3.12,5.65-7.37,4-12.38S909.49,1103.68,903.19,1103.23Zm-18.7,88.27c.18-8.94-4.81-15.67-11.82-16-6.28-.27-11.86,4.5-11.62,10.75.38,9.4,3.51,15.82,12,16.18A11,11,0,0,0,884.49,1191.5Z"/><path class="cls-10" d="M1351.47,1161.48a55.78,55.78,0,0,1-1.86,5.56c-8.21,18.37-8.3,37.17-2.73,56.15a111.88,111.88,0,0,1-1.58,69.66c-1.92,5.56-3,11.42-4.43,17.14-1.8,3.22-4,6.29-5.34,9.7-6.81,17.6-16.54,32.64-35.12,39.63-10.62,4-15.15,12.24-17.71,22.47-4.88,19.5-12.88,27.5-29.22,29.72-12.67-19.6-31.9-23.22-53-21.13-14.93,1.47-28.88,6.5-43.2,15.58,1.26-7.28,1.23-13.53,3.48-18.79,4.61-10.76,4.93-21.16.42-31.73-2.73-6.4-4.51-12.42-1.86-19.6,2-5.44-1.71-9.46-6.69-11.93,2.34-6.39,5.51-12.62,6.75-19.22,1-5.55-.17-11.53-.38-17.32,21-5.76,40.62-14.62,60.38-23.58,16.73-7.59,30.11-18.51,41.79-32,8.63-10,14.84-21.29,14-35a106.26,106.26,0,0,0-9.16-37.9,38,38,0,0,0-20.85-20c-13.62-5.5-27.76-8.26-42.53-6.66-7.29.79-14.57,1.66-21.86,2.5-4.67-2.25-4.07-6.65-4.38-10.69a135.6,135.6,0,0,0,40.08-6.89c20.45-6.77,33.68-20.22,37.32-41.72,2.52-14.8,4-29.77,5.83-44.68a358.44,358.44,0,0,0-.59-91.63c-2.12-15.72-4.74-31.67-9.72-46.65-7.59-22.8-24.74-36-48.64-39.32-13.93-1.92-27.44,1.27-40.45,6.38q-1.25-4.66-2.47-9.33a425.05,425.05,0,0,1,73.59-21.44c7.68-1.45,11.84-7,10.5-13.55s-7.4-10.32-15-8.41q-27.32,6.91-54.47,14.47c-8.08,2.25-16,5.13-24,7.73l-1.38-5.74c7-5.71,7.61-13,4.92-20.92-1.73-5.07-4.12-9.91-6.2-14.86-.75-1.77-1.45-3.55-2.43-6,3.34-.19,6,0,8.54-.56,9.88-2.35,19.9-4.4,29.49-7.66,8.9-3,17.59-4.42,26.86-2.59,11.22,2.21,22.5,4.1,33.76,6.13,3,.86,5.88,2.18,8.91,2.48,10.11,1,20.58.33,30.33,2.71a193.41,193.41,0,0,1,36.59,13.22c5.32,2.53,9.47,8.45,13,13.61,5.77,8.37,6.73,18.45,6.8,28.26.11,18.6-1.16,37.21-.71,55.8a218.58,218.58,0,0,1-8.61,67.18c-6.27,21.47-6.16,42.43,3.65,63.12,6.07,12.78,5.36,26.22,1.65,39.74a98.75,98.75,0,0,0-3.23,19.46c-.83,12.67,4.53,23.69,10.59,34.33,5.41,9.5,8.62,19.5,8.78,30.54C1349.79,1152,1350.86,1156.75,1351.47,1161.48Z"/><path class="cls-11" d="M1147,823.25l1.38,5.74c-4.37,2-8.79,3.82-13.09,5.91-6.46,3.14-8.69,9-6,15.08,2.49,5.6,8.64,7.91,14.9,5.52,4.5-1.72,9-3.54,13.46-5.31q1.23,4.66,2.47,9.33c-1.19.78-2.36,1.58-3.56,2.34-13.71,8.62-25.57,19-32.61,34-5.78,12.34-10.7,24.7-10.85,38.78-.19,18.24-1.85,36.46-2.21,54.71-.25,13,.2,26.15,1.07,39.19a390,390,0,0,0,4.21,40c2.28,13.31,6.93,26.1,16,36.49,11.58,13.25,27.09,18,44.11,19,.31,4-.29,8.44,4.38,10.69-2.26.43-4.51.89-6.77,1.3-33.91,6.12-68,10.06-102.52,8.36-23.58-1.16-47.1-3.67-70.64-5.58l-2.1-13.68c4.44-.46,8.91-.75,13.33-1.39,18.26-2.65,34.78-8.29,42.67-27.08a147.1,147.1,0,0,0,7.46-21.83c5.93-24.32,6.26-49.28,7.36-74.11.76-17.18,1.46-34.38,1.35-51.57a317.32,317.32,0,0,0-2.43-40.55c-3.3-24.35-17.07-40.59-40.35-49.06-11.69-4.26-23.45-6.12-35.76-4.83q-1.09-7.59-2.17-15.17c3,.27,6.07.4,9.07.84,12,1.75,24,3.7,36.07,5.38,7,1,12.89-3.32,13.87-9.72A11.21,11.21,0,0,0,1040,823.5l-46.71-6.69q-1-3.59-2.12-7.17l4.78-3.14c.55-8.09-4.37-14.52-8.18-21.27-6.24-11.05-8.21-22.39-8-35.37.38-20.41-3.54-36.36-24.49-45.3-8.95-3.81-14.25-9.62-17.36-18.88-5.47-16.35-15.74-29.17-31.33-37.33-4-2.08-7.67-4.64-7.53-10.52a30,30,0,0,0,3.7,0c5.58-.72,11.48-.6,16.63-2.51,7.33-2.7,14.14-4,21.88-1.67,13.47,4.07,27.14,6.18,41.16,1.79,2.27-.71,5.86.26,7.87,1.76,6,4.48,11.23,5,18.74,2.07,11.11-4.29,22.87-4.44,28.65,9,5,11.54,14.77,18,26.32,22.22,13.79,5,22.63,14.72,25.87,29.14,2.14,9.52,7.28,17,14.71,23.08,1.52,1.25,2.84,2.75,4.38,4,7.57,6,10.59,12.26,6.21,22.5-5.75,13.45-2.11,27.09,4.08,39.93,1.17,2.42,2.53,4.77,3.46,7.28,2.15,5.75,5.26,11,4.74,17.81s7.56,11.86,14.88,10.42C1143.93,824.24,1145.46,823.69,1147,823.25Zm-70,295.06c9.67,4,19.8,4.39,30,3.86,7.71,2.42,17.27-3.61,14-13.62-3.19-9.76-9.11-18.42-19.32-22.56-14-5.7-28-.63-38.23,13.45-4.28,5.93-4.82,11.49-1.55,15.85S1069.83,1120.65,1077.05,1118.31Z"/><path class="cls-12" d="M611.27,1195.93c2.17,4,4.7,7.93,6.43,12.15,6.49,15.76,19.06,23.06,34.89,26.93,8.06,2,15.81,5.56,23.38,9.08,5.41,2.51,6,8.37,6.1,13.45.16,5.65-1.12,11.33-1.33,17-.08,2,.5,4.78,1.86,6,9.81,9,15.18,20.71,20.14,32.62,4,9.47,8.72,12.54,17.09,9.66,1.79-.61,3.42-2.75,4.32-4.58,1.16-2.35,1.42-5.13,2.23-7.68,2.29-7.26,5.6-9.72,13.2-10.23,4.44-.3,8.88-.75,13.31-1.26,11.7-1.36,16.4-10.16,20.81-19.43a118.72,118.72,0,0,1,8.57-15.41c1.27-1.86,4.29-2.53,6.51-3.75,3.91,11.66,8.21,23.21,11.65,35,4.06,13.93.7,27.48-4.41,40.43-8.4,21.3-8.27,42.44-1.13,64,6.18,18.66,7.34,37.88,4.72,57.34-.48,3.59-1.21,6.92-5.32,8.53a9.17,9.17,0,0,0-4,4.16c-2.79,5.21-7.18,6.11-11.83,3.84a102.22,102.22,0,0,1-17.81-10.6c-5.2-4-9.47-9.26-14-14.08-6.93-7.3-15.45-10.73-25.41-11-7.52-.22-15-.61-22.54-.87a18.17,18.17,0,0,1-13.33-6c-5.48-5.9-10.77-12-16.74-17.42C657.65,1404,644,1401,629.89,1399.62c-10-1-15.36-6.57-19.87-15.48-5.69-11.21-5.14-21.37-.59-32.32,3.78-9.11,3.21-18.57,1.05-28-2.07-9.06-2.31-18,.51-27.06,7-22.39,5-44.82.93-67.48-1.79-9.94-1.29-20.3-1.73-30.48C610.15,1197.86,610.89,1196.89,611.27,1195.93Zm113.05,173.22c16.2-1,28.38-5.92,31.26-25.16,1.12-7.47-2-13.23-8.16-14.53-7.14-1.51-12.25,2.24-13.67,10.51-.82,4.76-3.27,7.09-8,6.51-5.83-.72-11.63-1.7-17.42-2.74-6.86-1.23-12.63,2.1-14.1,8.33s2.24,12.09,9.07,13.55C710.8,1367.22,718.42,1368.18,724.32,1369.15Z"/><path class="cls-13" d="M1159,1287.37c.21,5.79,1.42,11.77.38,17.32-1.24,6.6-4.41,12.83-6.75,19.22-6.27-1.31-10.47.57-13.23,6.2a30,30,0,0,0-1.9,22c1.12,4,2.82,7.74,4.22,11.61a17.8,17.8,0,0,1-1.3,15.88,43.88,43.88,0,0,0-4.85,15.69c-1,8-.78,16.08-1.23,24.12-.08,1.5-.43,3.39-1.4,4.35-5.07,5-10.38,9.77-15.6,14.62-2.06.55-4.17.94-6.15,1.67-7.65,2.83-14.59,2.83-21.53-2.66a23.38,23.38,0,0,0-12.34-4.41c-13.46-.86-27-1.43-40.47-1.09-10.29.26-17.41-4-23-11.95-1.23-1.75-2.26-3.74-3.83-5.12-1.31-1.17-3.26-1.61-4.93-2.37-1.76-12.13-3.78-24.22-5.2-36.39-1-8.86-1.22-17.81-1.85-26.72-.7-9.82-1.74-19.62,2.55-29,3.49-7.67,2.15-13.25-3.5-16.25s-10.69-1.07-15.47,6.13q1.68-17.45,3.37-34.89c1.93.37,3.85.78,5.79,1.11,19.55,3.37,39,7.21,58.69,9.92,15.4,2.12,31,3,46.51,4.12,9.27.66,18.63,1.32,27.89.81C1135.55,1290.55,1147.24,1288.7,1159,1287.37Z"/><path class="cls-14" d="M541.87,895.13c-2.51,2.17-4.74,4.81-7.57,6.41-12,6.77-23.7,14.35-36.38,19.5-15,6.11-30.84,10.5-46.57,14.7-9.53,2.56-19.29.79-28.43-3-1.77-.74-3.07-2.6-4.59-4,1.41-1.38,2.58-3.29,4.27-4,5.08-2.22,10.37-4,15.57-5.93,6.68-2.51,9.85-8.3,7.85-14.34-2.08-6.29-8.28-9-15.3-6.73-1.87.61-3.93,1-5.55,2-8.07,5.07-14.11,2.17-20.61-3.65-10.76-9.63-31.15-35.39-35.36-46.39,9.51-1.82,18.21-5.21,24.93-12.59a4.5,4.5,0,0,1,3.72-.82c10.07,2.38,18.61-.24,26.5-6.81,2.09-1.73,5.76-1.57,9.54-2.49a24.36,24.36,0,0,1-.91,4.13c-5.72,12.11-6.54,24.84-4.78,37.87.93,6.87,6.5,11.2,12.72,10.23s10.29-6.51,9.37-13.41c-2-14.84.7-28,13.85-37a11,11,0,0,1,7.1-1.77c10,1.39,19.25-1.57,28.39-4.56,5.11-1.67,7.26-7.92,5.69-13.07a11,11,0,0,0-12.58-7.69c-4.58.81-9.07,2.22-13.66,2.93-1.28.2-3.85-.9-4-1.78a56.07,56.07,0,0,1-1.53-13.24c.06-1.79,2.22-4.37,4-5.11,16.38-6.63,33.06-12.22,51.13-9.41a14.78,14.78,0,0,1,7.68,4.12c8,8.07,9.55,19,12.18,29.39A81.87,81.87,0,0,1,550,819.19c1.88,16.53-2.9,30.42-16.08,41.1-4.42,3.58-8.61,7.43-12.87,11.2-3.53,3.13-4.94,7-3.61,11.62,1.45,5,5,7.57,10.17,8.22,4.67.59,9.31,1.38,14,2.08Zm-57.06-9.43c-2.95.82-7.73,1.71-12.16,3.48-5.08,2-7.33,7.73-5.84,13a10.94,10.94,0,0,0,12.29,8,82.89,82.89,0,0,0,11.42-2.85,11.09,11.09,0,0,0,7.4-12.23C497,889.46,492.37,885.62,484.81,885.7Z"/><path class="cls-14" d="M1556.92,847.77c4.82-1.33,8.21-.7,11.79,2.47,6.53,5.79,14.5,7.43,23.16,5.64,1.54-.32,4-.39,4.79.51,6.78,7.34,15.42,10.84,25.82,12.77-10.9,16.22-20.35,32.75-35.16,45.55-7.19,6.22-13.62,9.65-22.46,4a22.12,22.12,0,0,0-6.07-2.15,11.16,11.16,0,0,0-7.17,21.12c5.82,2.33,11.79,4.31,17.56,6.73,1.39.59,3.24,2.38,3.18,3.52s-1.85,3-3.27,3.61c-9.41,4.21-19.41,5.89-29.43,3.62-28.65-6.49-56.21-15.92-80.79-32.6-2.8-1.9-5.36-4.19-8-6.37a22.6,22.6,0,0,1-2.38-3.17c5.08-.87,9.32-1.79,13.62-2.28,6.45-.73,10.21-3.41,11.51-8.69s-.66-9.22-6.36-12.87c-22.65-14.49-31-35.53-24.46-63.28,2.31-9.89,4.22-20.21,12-27.73a14.48,14.48,0,0,1,7.28-3.81c18.08-2.84,34.75,2.78,51.18,9.26,5.1,2,4.67,6.61,4.22,11-1,10.36-1.25,10.52-11.33,8.08-2.79-.67-5.57-1.44-8.41-1.84a11.12,11.12,0,0,0-12.3,8.16c-1.43,5.39,1.22,11.64,6.65,13.1,9.43,2.54,18.82,6.13,29,3.79,1.53-.35,3.7.66,5.16,1.66,13.15,9,16.42,22,14.4,36.84-.73,5.38.55,9.65,5.18,12.53,7,4.34,15.63,0,16.83-8.55,1.83-13,1-25.75-4.72-37.86C1557.6,849.82,1557.37,849,1556.92,847.77Zm-50.82,57.31c-7.57-.09-12.2,3.76-13.11,9.36a11.08,11.08,0,0,0,7.4,12.23,85.1,85.1,0,0,0,11.42,2.85A11,11,0,0,0,1524,922c1.79-5.36-.43-11.33-5.71-13.46C1513.83,906.78,1509,905.89,1506.1,905.08Z"/><path class="cls-10" d="M695,671.83c7.46.78,14.94,1.44,22.39,2.35,14.57,1.79,28.87.44,42-6.14,17.62-8.85,35.2-9.06,53.67-3.35,26.41,8.17,53.62,12.2,81.16,9.73,11-1,15.69,3.84,19.7,12a47.69,47.69,0,0,1,3.16,7.41c4.41,14.94,13.65,25.27,28.33,30.82,4.34,1.64,8.57,4,9.54,9.31a39,39,0,0,0-4.72.91c-9.28,3.06-18.63,4.69-28.42,2.63A90.56,90.56,0,0,0,907,735.36c-14.3-.63-28,2.47-41.41,7.23a26.89,26.89,0,0,1-20.23-.28c-10.69-4.38-21.45-9.5-33.32-9-10.09.39-18.11-3-25-9.95-7.18-7.2-15.36-10.75-25.69-7.62a27.25,27.25,0,0,1-9,1.1c-15.16-.7-28.15-6.19-37.63-18.42C708,689.68,701.58,680.69,695,671.83Z"/><path class="cls-14" d="M1514.36,1390.61c-24.59,21.66-41.28,48.4-55.95,76.48-21,40.12-36.8,82.1-43.68,127.1-2.19,14.39-2.78,28.84.15,43.91a114.71,114.71,0,0,1-35.34-13.35,110.51,110.51,0,0,1-31-25.5,18.11,18.11,0,0,1-3.9-9.52c-2.12-27.13,4.24-52.25,18.23-75.6,3.06-5.09,6.21-6.32,11-3.24-.55,8.08-1.13,16.08-1.62,24.09a26.09,26.09,0,0,0,.23,5.37,11.14,11.14,0,0,0,12.06,9.83,10.78,10.78,0,0,0,10.16-11.18c-.69-28.1,8.51-53.15,23.21-76.56,12.18-19.41,25.87-37.53,44.32-51.51,13-9.89,27.28-17.22,43.7-19.59C1508.75,1390.94,1511.56,1390.85,1514.36,1390.61Z"/><path class="cls-14" d="M1069.28,1532.37c-.54,8.06-1.12,16.06-1.61,24.07a26.78,26.78,0,0,0,.24,5.37,11.17,11.17,0,0,0,12.07,9.83,10.79,10.79,0,0,0,10.14-11.21c-.72-28.71,8.92-54.17,24.06-77.94,10.83-17,22.82-33.08,38.45-46.1,14.13-11.77,29.71-20.69,48.22-23.5,3-.45,6-.59,9.83-1-7.66,7.8-15.21,14.4-21.47,22.06-28.4,34.73-47.46,74.61-62.42,116.56-9.67,27.1-17.15,54.78-18.34,83.76-.32,8,0,16,0,24.62a36.82,36.82,0,0,1-4.29-.75,119.48,119.48,0,0,1-61-38.37,15.56,15.56,0,0,1-3.1-8.21c-2.23-22.91,2.9-44.5,12.47-65.18a87.75,87.75,0,0,1,6.08-11.31C1062.31,1529.46,1062.48,1529.57,1069.28,1532.37Z"/><path class="cls-12" d="M818.15,1342.2c15.35,6.59,24.93,17.8,30.39,33.84,4.9,14.41,13.78,26.79,27.62,34.49,2.57,1.43,6.58,3,8.79,2,21.43-9.75,39.27-2.32,56.24,10.69a93.54,93.54,0,0,0,11.21,7.34c7.42,4.16,17.64,2.75,24.06-3,2.11-1.89,4.29-3.71,6.44-5.56,1.7,12,3.57,23.91,4.89,35.92.18,1.63-2,4.14-3.77,5.22-3.16,2-7,2.86-10.2,4.74-10.21,6-20.68,5.65-31.63,2.4-8.37-2.48-16.88-5.64-25.44-6a164.06,164.06,0,0,0-34.54,2.46c-20.43,3.51-40.8,4.49-61.12,2,.71-8.45,1.75-17.08,2.11-25.73a151,151,0,0,0-7.77-53.37C810.15,1373.44,810.78,1357.63,818.15,1342.2Z"/><path class="cls-12" d="M1253.48,1411.51c16.34-2.22,24.34-10.22,29.22-29.72,2.56-10.23,7.09-18.47,17.71-22.47,18.58-7,28.31-22,35.12-39.63,1.32-3.41,3.54-6.48,5.34-9.7-1.07,16.75,3.1,32.22,11.07,46.87a17.27,17.27,0,0,1-.34,18c-11.72,18.55-10.33,38.29-7.11,58.69,1.51,9.62.88,19.64.58,29.46-.17,5.46-10,12.19-17.6,11.53-6.65-.57-13.67-1.91-19.59-4.82-14.23-7-28.1-9.22-42.52-1.18a4.48,4.48,0,0,1-1.53.48,7.17,7.17,0,0,1-1.64-.26C1263.63,1449.11,1266,1429.1,1253.48,1411.51Z"/><path class="cls-10" d="M1142.93,742.84c-1.46-5.23-1.73-11.26-4.64-15.49-5.12-7.44-11.52-14.11-18-20.47a37.16,37.16,0,0,1-9.67-15.68c-2.25-6.86-6.1-13.21-9.33-19.74a35.1,35.1,0,0,0-2.56-3.84c11-1.84,21.65-4.16,32.4-5.16a29,29,0,0,1,14.49,3c14.7,7,30.12,10.86,46.19,13,4.5.6,8.84,3.6,12.86,6.12,3,1.87,5.46,4.62,8,7.16,12.93,13,28.15,21.39,46.6,23.37.78,2.54,1.69,5,2.34,7.63,1.37,5.4-.7,8.25-6.29,8.21-3.35,0-6.72-1.24-10-1.06-4.43.23-9.06.65-13.15,2.19-3.37,1.26-6.08,4.26-9.09,6.49-9,6.65-16.38,7.37-25.1,1.42-10.22-7-19.91-7.29-30.2-.15C1160.18,745.05,1151.81,746.9,1142.93,742.84Z"/><path class="cls-15" d="M1005,1412.42c1.67.76,3.62,1.2,4.93,2.37,1.57,1.38,2.6,3.37,3.83,5.12,5.63,7.93,12.75,12.21,23,11.95,13.48-.34,27,.23,40.47,1.09a23.38,23.38,0,0,1,12.34,4.41c6.94,5.49,13.88,5.49,21.53,2.66,2-.73,4.09-1.12,6.15-1.67-2.54,3.8-5.1,7.59-7.6,11.42-12.6,19.26-26.38,37.85-34.15,60.22-3.21-.65-6.33-1.22-9.42-1.93-10.27-2.36-16-.17-22.11,8.49-5.81,8.27-6.32,8.29-15.67,4.33-20-8.5-40.16-16.84-61.77-25.88,4.9-2,8.31-3.75,11.93-4.49.93-.2,3,2.69,3.74,4.5,2.74,7.21,9.61,10.87,15.56,7.29,2.69-1.62,5.48-4.62,6.27-7.52,2.31-8.38,3.63-17,5.32-25.57,3.36-17-.65-33.38-3.51-49.9C1005.5,1417,1005.3,1414.72,1005,1412.42Z"/><path class="cls-16" d="M1351.47,1161.48c-.61-4.73-1.68-9.46-1.75-14.2-.16-11-3.37-21-8.78-30.54-6.06-10.64-11.42-21.66-10.59-34.33a98.75,98.75,0,0,1,3.23-19.46c3.71-13.52,4.42-27-1.65-39.74-9.81-20.69-9.92-41.65-3.65-63.12a218.58,218.58,0,0,0,8.61-67.18c-.45-18.59.82-37.2.71-55.8-.07-9.81-1-19.89-6.8-28.26-3.56-5.16-7.71-11.08-13-13.61A193.41,193.41,0,0,0,1281.18,782c-9.75-2.38-20.22-1.72-30.33-2.71-3-.3-5.95-1.62-8.91-2.48,14,1.07,27.82-.35,41.7-2.69a58.86,58.86,0,0,1,22.21.62c13.35,3,26.42,6.77,40.47,3a70,70,0,0,1,6,30c-.37,14.87-1.52,29.72-1.6,44.58a148.32,148.32,0,0,0,2.19,27.21,126.74,126.74,0,0,1-1.52,53.83c-1.45,5.92-2.72,11.88-4,17.82a98.11,98.11,0,0,0,.3,42.63c4.73,21.71,5.72,43.28-4,64.23-3.85,8.27-3.69,17.16-1.33,25.83,2.62,9.66,5.29,19.36,8.74,28.74C1357.08,1129,1357.52,1145.14,1351.47,1161.48Z"/><path class="cls-7" d="M1373.58,1027.36c1.39,12.53,4.67,24.27,14.35,33.18,10.92,10.06,19.32,9.36,27.35-1.8,8.63-12,13.47-25.65,17.71-39.53,7.27-23.82,14.89-47.48,26.86-69.47,5.61,2.81,11.31,5.43,16.74,8.53,1.32.76,2.75,3.3,2.45,4.64-8.52,36.79-17.3,73.52-25.91,110.29a10.87,10.87,0,0,1-7.24,8.42c-22.55,8.72-45,17.58-67.56,26.36a43.65,43.65,0,0,1-4.52,1.19c-5.14-11.87-9.37-23.77-10.41-36.56a15.47,15.47,0,0,1,1.24-6.78C1369.68,1053.47,1373.41,1040.83,1373.58,1027.36Z"/><path class="cls-17" d="M471,954.45l18.78-6.29c1.8,8.89,3.2,17.31,5.23,25.57,7.53,30.57,15.41,61.06,22.85,91.66,1.94,8,6.77,12.1,14,15.48,34.48,16.2,70.55,28,106.64,39.82,14.28,4.67,28.21,10.4,42.17,16,4,1.61,9.22,3.74,8,9.31-1.11,5.06-6.79,4.34-10.35,4.33a70.12,70.12,0,0,1-20.12-2.57c-28-8.62-56.08-17.32-83.79-27-17-5.92-33.39-13.76-50.19-20.41a18,18,0,0,1-11-11.55C498.66,1047.62,482.26,1007,473.43,964,472.8,960.93,471.88,957.88,471,954.45Z"/><path class="cls-16" d="M695,671.83c6.56,8.86,13,17.85,19.72,26.56,9.48,12.23,22.47,17.72,37.63,18.42a27.25,27.25,0,0,0,9-1.1c10.33-3.13,18.51.42,25.69,7.62,6.9,6.92,14.92,10.34,25,9.95,11.87-.47,22.63,4.65,33.32,9a26.89,26.89,0,0,0,20.23.28c13.37-4.76,27.11-7.86,41.41-7.23a90.56,90.56,0,0,1,14.79,2.12c9.79,2.06,19.14.43,28.42-2.63a39,39,0,0,1,4.72-.91c.87,4.72,2,9.41,2.39,14.16.08.93-2.61,3-4.05,3-10.33.25-20.72.75-31-.12-8.69-.74-17.3-2.93-25.81-5-10.31-2.51-20.4-2.19-28.78,4.36-12.15,9.5-24.28,8.54-37.26,2.69s-26.66-9.47-41.26-6.89c-1.76.31-3.79-.52-5.62-1.08-6.77-2.09-13.38-5.05-20.3-6.25a37,37,0,0,1-19.43-9.42c-8-7.2-16.1-14.25-24.62-20.75-9.64-7.36-20.89-11-33-11.73-7.33-.43-13.42-3.29-19-7.88-5.79-4.78-11.81-9.28-18.45-14.48C664.13,669,679.47,669.14,695,671.83Z"/><path class="cls-17" d="M1377.82,1153.25c0-6.74-.27-12.8.2-18.82.11-1.45,2.4-3.31,4.09-4,25.6-10.22,51.22-20.39,77-30.28,7.47-2.88,12.09-7.45,14-15.43,8.56-36,17.41-72,26.13-108,.67-2.76,1.2-5.55,2-9.15l18.74,6.14c-3.16,12.87-5.55,25.55-9.42,37.77-8.31,26.28-17.34,52.33-26.16,78.45-2.23,6.61-4.32,13.33-7.35,19.58-1.67,3.44-4.58,7.27-7.9,8.76-27.43,12.29-54.93,24.48-83.77,33.23C1383,1152.27,1380.55,1152.64,1377.82,1153.25Z"/><path class="cls-17" d="M854.06,1492.77l25.41-3a9.91,9.91,0,0,0,2.14-.2c12.29-4.31,22.77-.19,34,5.13,35.15,16.61,70.86,32,106.34,47.91,1.93.86,3.8,1.83,6,2.92-2.79,8.13-5.45,15.86-8.41,24.44a1036.66,1036.66,0,0,0-166-75.46Z"/><path class="cls-16" d="M1142.93,742.84c8.88,4.06,17.25,2.21,24.79-3,10.29-7.14,20-6.81,30.2.15,8.72,5.95,16.15,5.23,25.1-1.42,3-2.23,5.72-5.23,9.09-6.49,4.09-1.54,8.72-2,13.15-2.19,3.32-.18,6.69,1,10,1.06,5.59,0,7.66-2.81,6.29-8.21-.65-2.58-1.56-5.09-2.34-7.63,12.17-.14,22.94,3.53,31.8,12.06,9.4,9.05,19.94,15.58,33.27,17.21,6.68.82,9.79,6.49,14.13,13.13-6.4-.71-11.67-.44-16.35-2a95.17,95.17,0,0,0-51.9-2c-15.64,3.57-31.52,1.37-46.87-2.59-19.29-5-37.79-4.56-56.14,3.88-9.65,4.43-20,5.19-32,2.08C1137.92,751.89,1140.43,747.36,1142.93,742.84Z"/><path class="cls-18" d="M1538.36,1475.32l-37.08-36c8.89-12.1,17.8-23.92,30.59-32,7.69-4.86,10.49-3.53,12.32,5.6,2.73,13.59.92,27.11-1.3,40.54C1541.67,1460.79,1539.88,1468.06,1538.36,1475.32Z"/><path class="cls-19" d="M1373.21,855.83c.39-10.56.6-21.14,1.3-31.68.15-2.25,1.72-4.64,3.21-6.53,15.43-19.61,30.12-39.7,41-62.31,2.31-4.81,4.33-9.77,7-14.53-2.42,23.87-7,47.28-15.06,70l-.76,1.07.09-.09a21,21,0,0,0-2.8,2.4Q1390.15,834.95,1373.21,855.83Z"/><path class="cls-18" d="M1468.05,1501c6.45,6.93,12.76,14,19.4,20.75,7.42,7.53,15.2,14.7,22.67,22.18,1,1,2,3.3,1.58,4.33-3.3,7.31-7,14.45-10.85,22.28-2.15-1.82-3.83-3.08-5.33-4.54-12.47-12.12-25-24.23-37.27-36.5a5.79,5.79,0,0,1-1.3-4.9c2.78-7.55,6-14.95,9-22.4Z"/><path class="cls-18" d="M1201.44,1581.9c-6-7.5-11.57-14.19-16.78-21.17-7.5-10-14.63-20.36-22.12-30.4-2-2.69-2.13-4.87-.62-7.77,2.78-5.34,5.23-10.87,8.15-17,3.72,4.37,6.82,8,10,11.69,9.57,11.13,19,22.43,28.84,33.28,3.52,3.87,4.47,7,1.88,11.73C1207.42,1568.3,1204.78,1574.74,1201.44,1581.9Z"/><path class="cls-20" d="M1520.38,1525.14c-1.93-2.54-3.62-5.33-5.85-7.57q-17.25-17.31-34.79-34.33c-2.38-2.3-2.77-4.1-1.09-6.91,3.36-5.65,6.45-11.45,9.42-16.77,13.94,13.57,27.52,26.77,41,40.06a3.86,3.86,0,0,1,.86,3.29c-2.38,7-5,14-7.53,21Z"/><path class="cls-17" d="M1329,1521.13a9.5,9.5,0,0,1-.15,1.59c-5.53,15.72-5.5,15.64-20.67,9.84-16.7-6.38-33.4-12.77-50.24-18.78-4.38-1.56-4.76-3.73-3.77-7.62,3.32-12.92,3.16-12.75,15.6-7.87,18.81,7.37,37.74,14.43,56.62,21.63C1327.21,1520.23,1328,1520.65,1329,1521.13Z"/><path class="cls-18" d="M1149.78,1552c13.2,16.92,25.76,33,38.16,49.11a5.18,5.18,0,0,1,.23,4.65c-3.05,5.44-6.5,10.65-10.21,16.59-3.24-3.86-6.1-7.19-8.88-10.59q-13.08-16-26-32.06a4.79,4.79,0,0,1-1-3.71C1144.43,1568.11,1147,1560.34,1149.78,1552Z"/><path class="cls-18" d="M1222.59,1532.34c-2.1-2.23-3.59-3.69-4.93-5.27-11.36-13.34-22.73-26.68-34-40.14-.88-1-1.49-3.39-.92-4.41,3-5.44,6.44-10.64,10.11-16.55,7.21,8.19,13.94,15.79,20.63,23.44,3.76,4.31,7,9.13,11.27,12.92,5.08,4.56,5.49,9.23,3,15.11C1225.83,1522,1224.5,1526.78,1222.59,1532.34Z"/><path class="cls-18" d="M356,769.39c7,10.09,14.29,19.47,15.53,32.14.37,3.74,3.32,7.17,4.11,11,.74,3.57,1.51,8.17-.09,10.95-2.38,4.14-9.71,3.92-14.79,2.43s-6.77-5-8.24-9.37c-3.73-11.17-6.07-22.49-5-34.33C348.09,775.27,349.66,772.82,356,769.39Z"/><path class="cls-18" d="M1635,788.76c4.94,2.11,7.35,5.44,8,10,2.13,14.86-1,29-7,42.37-1.31,2.85-7.07,4.89-10.85,5s-7.51-2.49-10.93-4.49c-.83-.48-.88-3.55-.28-5,5.1-12.3,6-26.14,13.74-37.45C1630.08,795.69,1632.58,792.25,1635,788.76Z"/><path class="cls-18" d="M1236.92,1482.2c-10.53-12-20.24-23.07-30.28-34.51,7-8,13.78-15.6,23-20.33,5.33-2.72,7.33-1.86,9,4,3.62,12.35,2.08,24.84.52,37.29C1238.73,1472.78,1237.84,1476.9,1236.92,1482.2Z"/><path class="cls-18" d="M1135.49,1605.75c1.34,1.59,2.72,3.14,4,4.76,7.06,8.79,14,17.69,21.21,26.35,2.65,3.18,2.43,5.51-.56,8.08-5,4.31-9.61,9.17-15,13-8.33,5.9-11.43,4.55-13.28-5.36a60.6,60.6,0,0,1-1.09-14.4c.63-10.68,1.84-21.33,2.81-32Z"/><path class="cls-9" d="M1393,905c.75,19.28-4.1,37.55-9.78,55.73-3.52,11.24-6.65,22.63-9.38,34.08-1.1,4.62-.69,9.6-1,14.4-1.62-9.49-3.31-19-4.83-28.47-2.21-13.81,1.92-26.93,4.54-40.22,1.47-7.47,4-14.08,9.47-19.81C1386.37,916.2,1389.35,910.33,1393,905Z"/><path class="cls-20" d="M1555.07,824.87c-6.24,0-8.46-3.27-9.61-8.16-3.21-13.67-1.33-27.06,1.76-40.42.68-3,1.37-5.93,2.1-8.89,1.47-6,3.58-7.49,10.21-7.29,4.21.14,11.19,5.43,11.71,9a3.39,3.39,0,0,1-.4,2C1561.64,787.68,1557.51,805.77,1555.07,824.87Z"/><path class="cls-20" d="M436.09,805.54c-.87-4.87-1.76-9.42-2.48-14a121.46,121.46,0,0,0-11.73-36.13c-3-6,.78-13.25,7.58-14.53s10.75,1.25,12.34,7.86c3.85,16.06,7.63,32.12,3.62,48.8C444.24,802.48,441.85,805.52,436.09,805.54Z"/><path class="cls-20" d="M1578.25,822.9c1.29-16,5.85-31,14.5-44.46,1.78-2.77,7.61-4.53,11.17-4,2.72.4,4.93,5.05,7,8,.37.54-.78,2.18-1.26,3.29-6,13.76-12,27.48-17.9,41.29-1.38,3.25-1.54,7.8-6.46,6.93-4.48-.79-6.81-4.3-7.1-8.92C1578.2,824.33,1578.24,823.62,1578.25,822.9Z"/><path class="cls-20" d="M412.81,805.47c-.37,1-.67,3.8-2.17,5.48s-4.42,3.54-6.57,3.4c-1.6-.11-3.48-3.07-4.38-5.13-6.09-13.91-11.86-28-17.95-41.86-1.5-3.43,1.07-12.51,4.57-12.4,4.08.13,10,1.25,11.8,4.06C406.91,772.57,411.47,787.82,412.81,805.47Z"/><path class="cls-21" d="M1373.21,855.83q17-20.87,34-41.72a21,21,0,0,1,2.8-2.4c-5.22,15.71-9.86,31.65-15.85,47-4.1,10.54-10.08,20.35-15.21,30.48l-2.63-.44Z"/><path class="cls-20" d="M1478.41,1606.65c-11.88-13.09-23.08-25.37-34.14-37.77a4.84,4.84,0,0,1-.66-3.83c1.1-4.49,2.51-8.92,4-14,1.44,1.14,2.53,1.88,3.47,2.78,11.75,11.27,23.41,22.62,35.26,33.79,2.31,2.18,2.59,3.8.73,6.32C1484.21,1597.82,1481.64,1601.88,1478.41,1606.65Z"/><path class="cls-21" d="M598.37,993.61c1.67,6.84,3.34,13.68,5.33,21.81-13.18-3.8-22.62-9.9-27.87-21.08-4.25-9.06-1.54-17.43,4-25.1a18.59,18.59,0,0,1,3.14-2.76c1.51,2.58,3,5.15,4.51,7.76Q593,983.92,598.37,993.61Z"/><path class="cls-20" d="M1437.21,1594.7l27.61,30.09c-6.53,4.85-12.37,9.77-18.78,13.78-4.81,3-7.68,1.94-8.4-3.74-1.29-10-1.33-20.2-1.65-30.32C1435.9,1601.7,1436.67,1598.85,1437.21,1594.7Z"/><path class="cls-20" d="M1522.9,782.86l-27.69-8.92c0-9.17,5.79-17.8,13.91-20.79,4.61-1.7,8-.29,11.5,3.12C1529.16,764.6,1525,773.55,1522.9,782.86Z"/><path class="cls-20" d="M497,754.15l-29.12,9.4c-1.1-5.8-2.67-11.49-3.09-17.26-.27-3.9,8-12.53,11.49-13.18,4.61-.87,12.14,2.77,14.91,7.82C493.35,745,494.88,749.36,497,754.15Z"/><path class="cls-9" d="M592.81,1081.57l-4.2-48.43,15.15,4.16c-2,15.08-4.07,30.16-6.21,46Z"/><path class="cls-19" d="M598.37,993.61q-5.42-9.69-10.85-19.37c-1.46-2.61-3-5.18-4.51-7.76l10-7.23C594.91,971.63,596.64,982.62,598.37,993.61Z"/><path class="cls-10" d="M1367.82,1296.47q-1.11,17.41-2.21,34.81C1361.38,1319.36,1363.65,1307.85,1367.82,1296.47Z"/><path class="cls-21" d="M1409.88,811.8l.76-1.07Z"/><path class="cls-5" d="M557.12,1184.83c-.06,7.1-9,17.53-15,17.45-5.51-.08-14.69-9.72-14.58-15.29.14-6.9,9.9-14.82,18-14.63C550.47,1172.47,557.17,1179.7,557.12,1184.83Zm-14.93,8.88c2.55-4.07,7.79-6.2,4.29-10.61-2.78-3.5-6.39-.32-8.19,1.86C534.62,1189.39,540.71,1189.93,542.19,1193.71Z"/><path class="cls-5" d="M575.3,1208.35c.11,7.91-4.79,15.46-10.13,15.62-5.8.16-16.73-10-16.63-15.45.08-4.68,10.56-14.46,15.6-14.57S575.2,1201.48,575.3,1208.35Zm-10.33-5-7.55,5.4,6.8,5.64,1.6-.7C565.56,1210.43,565.29,1207.2,565,1203.31Z"/><path class="cls-19" d="M451.58,1272.48C444.32,1260,436,1247.93,430,1234.81c-15.4-34.07-25.49-69.88-32-106.69a71.7,71.7,0,0,1-1.35-16.26c.69,1.59,1.41,3.17,2.06,4.77,10.94,26.85,27.74,50,45.68,72.45,5.13,6.41,10.69,12.48,16.05,18.71l2.27,3.21-.07-.06,1.12,1.14V1212c1.88,3.18,3.42,6.62,5.69,9.49a88.73,88.73,0,0,1,17.4,36.32c.37,1.67-.65,4.15-1.84,5.57-8.53,10.2-19.49,13.1-32.23,10.19h.12Z"/><path class="cls-21" d="M452.82,1273.56c12.74,2.91,23.7,0,32.23-10.19,1.19-1.42,2.21-3.9,1.84-5.57a88.73,88.73,0,0,0-17.4-36.32c-2.27-2.87-3.81-6.31-5.69-9.49,5.05,4.14,10.12,8.26,15.15,12.43q10.69,8.86,21.36,17.79l1.16,1.13-.06-.09,1.16,2.2,0-.13a6.85,6.85,0,0,0,.35,2.07c7.18,14.13,5.42,27.81-1.92,41.27-.55,1-.48,2.38-.7,3.58C483.38,1298.19,460.34,1289.12,452.82,1273.56Z"/><path class="cls-22" d="M500.32,1292.24c.22-1.2.15-2.56.7-3.58,7.34-13.46,9.1-27.14,1.92-41.27a6.85,6.85,0,0,1-.35-2.07c8,3.72,13.82,14.47,13,25C514.8,1280.42,510.55,1288.5,500.32,1292.24Z"/><path class="cls-21" d="M462.76,1211l-2.27-3.21Z"/><path class="cls-22" d="M502.57,1245.45l-1.16-2.2Z"/><path class="cls-21" d="M451.58,1272.48l1.36,1.07Z"/><path class="cls-22" d="M501.47,1243.34l-1.16-1.13Z"/><path class="cls-21" d="M463.81,1212.08l-1.12-1.14Z"/><path class="cls-19" d="M1614.52,1162.74q-13.24,19.86-26.5,39.73a77.82,77.82,0,0,0-7.76,5.21c-16.82,14.31-33.93,28.32-50.2,43.25-12.84,11.79-27.17,20.28-44,24.14-13.22,3-26.7-3.19-30.6-16.74-.82-2.87-3.28-5.27-5-7.88,4.85-3.17,9.32-7.38,14.63-9.32,14-5.08,28.48-8.61,42.4-13.78A314.82,314.82,0,0,0,1610.23,1165a36.15,36.15,0,0,1,3.85-2.68Z"/><path class="cls-21" d="M1450.44,1250.45c1.7,2.61,4.16,5,5,7.88,3.9,13.55,17.38,19.77,30.6,16.74,16.87-3.86,31.2-12.35,44-24.14,16.27-14.93,33.38-28.94,50.2-43.25a77.82,77.82,0,0,1,7.76-5.21c-23.7,30.43-47.35,60.91-81.58,80.7l-.67.64a1,1,0,0,1-.78.45c-4.9.92-9.78,2-14.7,2.73-17.21,2.71-34.15,4.35-46-12.56C1441.85,1265.29,1443.71,1257.24,1450.44,1250.45Z"/><path class="cls-22" d="M1444.27,1274.43c11.87,16.91,28.81,15.27,46,12.56,4.92-.78,9.8-1.81,14.7-2.73-3.14,2.22-6,5-9.47,6.56-13.16,6.15-26.43,5.72-39.28-.92C1450,1286.69,1445.2,1282,1444.27,1274.43Z"/><path class="cls-19" d="M1614.08,1162.31l.68-.61-.24,1C1614.37,1162.6,1614.23,1162.45,1614.08,1162.31Z"/><polygon class="cls-19" points="1615.93 1160.15 1615.84 1159.84 1616.1 1159.87 1615.93 1160.15"/><path class="cls-22" d="M1505.77,1283.81l.67-.64A.61.61,0,0,1,1505.77,1283.81Z"/><path class="cls-22" d="M1579.2,1314.66c-2.28-2.89-4.86-5.6-6.75-8.72-2.53-4.17-1-8.1,3.74-9,3.13-.57,6.52.3,9.79.53-.71,4.48-1.27,9-2.21,13.43-.36,1.72-1.57,3.25-2.4,4.87Z"/><path class="cls-22" d="M1566.82,1082.1c.24-4.14.36-6.41.54-9.53l13.29,2,.38,2.36Z"/><path class="cls-22" d="M822.13,576.43c5.34.64,7.42,3.43,7.4,7.46,0,3.3-1.91,5.75-5.82,5.54-3.07-.17-8.62-5.72-7.5-8.35C817.07,579.06,820.08,578,822.13,576.43Z"/><path class="cls-22" d="M1563.5,1048.79c.16-3.54.28-7.08.51-10.61.21-3.36,2.28-4.25,4.57-2.22,2.13,1.88,5.32,6.15,4.81,6.79-2.37,3-5.87,5.07-9,7.48Z"/><path class="cls-22" d="M1336.44,682.28c5.32-7.36,8.11-8.68,12.33-5.08,1.1.93,1.07,4.72.09,6.27C1346.1,687.84,1342.19,687.35,1336.44,682.28Z"/><path class="cls-22" d="M1615.48,1268.44c2.29-2.36.42-7.68,6.3-7.64,4.3,0,4.8,3.16,5.34,5.91.33,1.67-.85,5.23-1.22,5.21a82,82,0,0,1-10.15-1.5Z"/><path class="cls-22" d="M551,696.54c3.94.76,7.92-4.24,10.7.75,1.09,2,1.23,5.94-2.85,6.81C554.1,705.12,552.34,703.52,551,696.54Z"/><path class="cls-22" d="M451,1332.84l5.55-2.46,5,8.06C456.48,1344.14,453.21,1341.26,451,1332.84Z"/><path class="cls-22" d="M809.74,609.28l6.07,5.73-.11,1.89c-2.58.41-6,2.07-7.57,1C804.28,615.22,806.55,612.21,809.74,609.28Z"/><path class="cls-22" d="M1621.88,1316.91c-1.57,1.7-3.15,3.64-3.31,3.53-1.75-1.2-4.32-2.57-4.55-4.21-.21-1.43,2.28-3.24,3.57-4.89Z"/><path class="cls-22" d="M794.54,590.33c-2,1.63-3.72,3.63-4.27,3.35-1.87-1-3.34-2.71-5-4.16,1.52-1.29,3-3.42,4.6-3.59C791.08,585.81,792.53,588.31,794.54,590.33Z"/><path class="cls-22" d="M492.67,1347.71c1.36,2.28,2.72,4.55,4.07,6.83-1.17.61-2.64,2-3.47,1.66-1.6-.61-3.56-1.94-4-3.4s.87-3.29,1.41-5Z"/><path class="cls-5" d="M717.7,877.81c-2.14,5.54,1.32,9,6.5,12.37A27,27,0,0,1,736.71,910c.92,7.48-3.07,13.37-9.7,14.4-6.26,1-11.15-3.38-12.75-10.83a10.83,10.83,0,0,0-3.23-5.19c-2.21-2.06-4.92-3.56-7.34-5.4-7.15-5.46-10.42-12.55-8.89-21.59,1-6.19.71-11.89-3.35-17.32-3.55-4.74-1.91-11.35,2.72-14.83A11.12,11.12,0,0,1,709.22,851C715.66,858.31,718.33,867,717.7,877.81Z"/><path class="cls-5" d="M742.49,1135.3c.25,8-3.83,13-10.7,13.3-6.52.25-11.43-4.48-11.65-11.94a17.76,17.76,0,0,0-6.55-13.52c-1.48-1.3-3-2.52-4.4-3.93a11.15,11.15,0,0,1,13.87-17.31A40.92,40.92,0,0,1,742.49,1135.3Z"/><path class="cls-5" d="M722.11,1179.85a10.81,10.81,0,0,1-10.93-11.46c.19-7.17,5.94-13.26,12.38-13.11,6.1.15,11.34,5.6,11.13,11.57C734.44,1173.86,728.57,1179.93,722.11,1179.85Z"/><path class="cls-23" d="M1159,1287.37c-11.72,1.33-23.41,3.18-35.17,3.84-9.26.51-18.62-.15-27.89-.81-15.53-1.1-31.11-2-46.51-4.12-19.65-2.71-39.14-6.55-58.69-9.92-1.94-.33-3.86-.74-5.79-1.11-24.42-8.13-45.15-22.82-64.72-38.73C901.14,1221,891.5,1200,893.07,1175c.89-14.29,9.21-24.23,21.65-30.59,15.46-7.91,32-9.84,49.18-8.25,12.27,1.14,24.58,1.8,36.87,2.67,23.54,1.91,47.06,4.42,70.64,5.58,34.48,1.7,68.61-2.24,102.52-8.36,2.26-.41,4.51-.87,6.77-1.3,7.29-.84,14.57-1.71,21.86-2.5,14.77-1.6,28.91,1.16,42.53,6.66a38,38,0,0,1,20.85,20,106.26,106.26,0,0,1,9.16,37.9c.87,13.76-5.34,25.09-14,35-11.68,13.49-25.06,24.41-41.79,32C1199.58,1272.75,1179.92,1281.61,1159,1287.37ZM1109.51,1270c.6-7-3.08-10.56-7.63-13.33-30.62-18.64-63.18-28.57-99.43-22.06-8.66,1.56-13.52,6.29-15.13,15.06-.5,2.73.15,4,2.81,4.64,7,1.66,13.81,4.15,20.86,5,27.51,3.49,55.07,6.54,82.63,9.65C1098.72,1269.59,1103.89,1269.67,1109.51,1270Zm70.73-11.32c-13-14-34-19.56-52.42-8.29,1.85,6.26,3.64,12.34,5.54,18.78C1149.59,1269.23,1164.55,1263.47,1180.24,1258.68Zm19.56-103.51a35.62,35.62,0,0,0,10.71,25.11c2.69,2.71,5.64,2.56,8.69.39,7.76-5.52,10.41-14,14-22.51C1221.8,1154.73,1211.27,1152.76,1199.8,1155.17Zm-190.1,7.35c-7.63-.8-14.35-1.59-21.08-2.2-11.51-1-12.47.11-10.17,11.68,1.59,8,4.55,11.28,10.88,12,9.41,1.13,12-.27,15.82-9C1006.78,1171.31,1008,1167.36,1009.7,1162.52Zm25.06,2.32c-2.46,7.42-2.25,14,2.86,19.57,2.69,2.94,12,4.59,15.23,2.52,7.07-4.48,8.06-12,9.56-19.8Zm52.9,2.06c-.75,7.43,2,12.13,7.8,14.69,5.25,2.32,11,3.21,15.8-.67,4.57-3.73,3.81-9.12,3-14Zm-134.41-8.81c-13.09,0-24.61,2.39-35,11.05,8,6.33,16,5.88,24.07,3.79C949.26,1171.11,951.07,1164.83,953.25,1158.09Zm190.22,5.27c1.84,7.28,8.7,12.36,15.24,11.87,5.26-.39,8.85-6,9.5-15.41Z"/><path class="cls-23" d="M992.3,854.7c12.31-1.29,24.07.57,35.76,4.83,23.28,8.47,37,24.71,40.35,49.06a317.32,317.32,0,0,1,2.43,40.55c.11,17.19-.59,34.39-1.35,51.57-1.1,24.83-1.43,49.79-7.36,74.11a147.1,147.1,0,0,1-7.46,21.83c-7.89,18.79-24.41,24.43-42.67,27.08-4.42.64-8.89.93-13.33,1.39-10-1.31-20.32-1.51-30-4.16-20.45-5.62-32.11-20.23-37.86-40.29-10.16-35.45-9.23-71.54-7.06-107.77,1.1-18.4,1.75-36.83,2.87-55.24A26,26,0,0,1,929.35,907a228.27,228.27,0,0,1,13.3-21.43C954.76,868.27,971.28,857.8,992.3,854.7Zm50.76,44.57c-2-2.73-4.11-6.85-7.35-9.6-19.08-16.17-48.36-19.11-67.72.81-6.53,6.72-11.47,15-16.69,22.94-1.55,2.33-2,5.66-2.2,8.58-1,16.8-1.71,33.63-2.75,50.43-2.13,34.05-3.63,68,5.88,101.43,2.63,9.26,6.42,17.75,15.25,22.47,18.44,9.87,37.32,6.89,56.31,1.29-13-1.86-19.87-10-23.13-21.84a54.34,54.34,0,0,1-1.71-7.32c-3.24-24.4-4.65-48.89-2.38-73.45.4-4.28,1.65-9.2,4.28-12.35s7.49-4.53,11-6.47c-4.77-5.92-10.67-12.23-15.38-19.33-8.51-12.85-7.39-26.08,3.09-37.41,3.93-4.25,8.75-8.35,14-10.57C1022.8,905,1032.69,902.55,1043.06,899.27Z"/><path class="cls-23" d="M993.27,816.81,1040,823.5a11.21,11.21,0,0,1,9.16,12.53c-1,6.4-6.87,10.7-13.87,9.72-12-1.68-24-3.63-36.07-5.38-3-.44-6.05-.57-9.07-.84-8.33-1-16.65-2.1-25-3.11-3.2-.38-6.44-.47-9.61-1a11.15,11.15,0,0,1,3-22.1C970.12,814.39,981.69,815.63,993.27,816.81Z"/><path class="cls-5" d="M903.19,1103.23c6.3.45,9.95,2.94,11.6,7.89s.08,9.26-4,12.38c-4.4,3.38-9,6.42-13.57,9.63-7.43,5.28-11.36,12.61-13,21.48-1.81,10.11-6.8,14.59-14,13s-10-7.59-8-17.61c2.81-14.51,9.81-26.4,21.89-35.11,4.36-3.14,8.67-6.36,13.18-9.25A29.84,29.84,0,0,1,903.19,1103.23Z"/><path class="cls-5" d="M884.49,1191.5a11,11,0,0,1-11.47,11c-8.46-.36-11.59-6.78-12-16.18-.24-6.25,5.34-11,11.62-10.75C879.68,1175.83,884.67,1182.56,884.49,1191.5Z"/><path class="cls-23" d="M1176.32,1124c-17-1-32.53-5.78-44.11-19-9.08-10.39-13.73-23.18-16-36.49a390,390,0,0,1-4.21-40c-.87-13-1.32-26.14-1.07-39.19.36-18.25,2-36.47,2.21-54.71.15-14.08,5.07-26.44,10.85-38.78,7-15,18.9-25.4,32.61-34,1.2-.76,2.37-1.56,3.56-2.34,13-5.11,26.52-8.3,40.45-6.38,23.9,3.28,41.05,16.52,48.64,39.32,5,15,7.6,30.93,9.72,46.65a358.44,358.44,0,0,1,.59,91.63c-1.83,14.91-3.31,29.88-5.83,44.68-3.64,21.5-16.87,34.95-37.32,41.72A135.6,135.6,0,0,1,1176.32,1124Zm-30.21-37.22c2.25,2.28,4.55,6.24,7.93,7.71,7,3,14.36,5.88,21.8,6.63,12.07,1.22,23.85-1.89,35.28-5.93,10.56-3.73,18.15-10.43,20.05-21.83,2.33-13.94,4.36-28,5.94-42,3.72-33.12,3.77-66.25-1.77-99.19-1.92-11.45-4-23-7.77-34-4.29-12.56-14.26-20.53-27.36-22.48-21.24-3.17-38.1,5.51-51.33,21.88a49,49,0,0,0-3.44,5.86c2,0,3.24.07,4.44,0,19.54-1.3,44.25,21,33.33,46-4.2,9.64-9.9,18.63-15,27.86-1.35,2.43-3.07,4.65-4.86,7.33,4.22,0,7.6-.14,11,0,7.84.37,13,4.89,12.83,11.67-.31,15.77-.69,31.54-1.34,47.31-.59,14.65-7.19,26.29-19.56,34C1160.28,1081.43,1153.37,1083.59,1146.11,1086.81Z"/><path class="cls-1" d="M1157.68,850.19c-4.49,1.77-9,3.59-13.46,5.31-6.26,2.39-12.41.08-14.9-5.52-2.72-6.12-.49-11.94,6-15.08,4.3-2.09,8.72-3.95,13.09-5.91,8-2.6,15.89-5.48,24-7.73q27.17-7.51,54.47-14.47c7.55-1.91,13.6,1.83,15,8.41s-2.82,12.1-10.5,13.55A425.05,425.05,0,0,0,1157.68,850.19Z"/><path class="cls-23" d="M1077.05,1118.31c-7.22,2.34-11.72,1.44-15.06-3s-2.73-9.92,1.55-15.85c10.19-14.08,24.2-19.15,38.23-13.45,10.21,4.14,16.13,12.8,19.32,22.56,3.28,10-6.28,16-14,13.62-3.21-3.65-6.71-7.09-9.55-11-4.45-6.12-9.93-6.44-14.62-.41Z"/><path class="cls-10" d="M1077.05,1118.31l5.88-7.56c4.69-6,10.17-5.71,14.62.41,2.84,3.92,6.34,7.36,9.55,11C1096.85,1122.7,1086.72,1122.29,1077.05,1118.31Z"/><path class="cls-23" d="M724.32,1369.15c-5.9-1-13.52-1.93-21-3.53-6.83-1.46-10.51-7.4-9.07-13.55s7.24-9.56,14.1-8.33c5.79,1,11.59,2,17.42,2.74,4.72.58,7.17-1.75,8-6.51,1.42-8.27,6.53-12,13.67-10.51,6.2,1.3,9.28,7.06,8.16,14.53C752.7,1363.23,740.52,1368.19,724.32,1369.15Z"/><path class="cls-5" d="M484.81,885.7c7.56-.08,12.19,3.76,13.11,9.36a11.09,11.09,0,0,1-7.4,12.23,82.89,82.89,0,0,1-11.42,2.85,10.94,10.94,0,0,1-12.29-8c-1.49-5.22.76-10.91,5.84-13C477.08,887.41,481.86,886.52,484.81,885.7Z"/><path class="cls-5" d="M1506.1,905.08c2.94.81,7.73,1.7,12.15,3.48,5.28,2.13,7.5,8.1,5.71,13.46a11,11,0,0,1-12.15,7.5,85.1,85.1,0,0,1-11.42-2.85,11.08,11.08,0,0,1-7.4-12.23C1493.9,908.84,1498.53,905,1506.1,905.08Z"/><path class="cls-22" d="M542.19,1193.71c-1.48-3.78-7.57-4.32-3.9-8.75,1.8-2.18,5.41-5.36,8.19-1.86C550,1187.51,544.74,1189.64,542.19,1193.71Z"/><path class="cls-22" d="M565,1203.31c.32,3.89.59,7.12.85,10.34l-1.6.7-6.8-5.64Z"/><path class="cls-19" d="M1109.51,1270c-5.62-.33-10.79-.41-15.89-1-27.56-3.11-55.12-6.16-82.63-9.65-7-.9-13.9-3.39-20.86-5-2.66-.63-3.31-1.91-2.81-4.64,1.61-8.77,6.47-13.5,15.13-15.06,36.25-6.51,68.81,3.42,99.43,22.06C1106.43,1259.44,1110.11,1263,1109.51,1270Z"/><path class="cls-19" d="M1180.24,1258.68c-15.69,4.79-30.65,10.55-46.88,10.49-1.9-6.44-3.69-12.52-5.54-18.78C1146.19,1239.12,1167.25,1244.69,1180.24,1258.68Z"/><path class="cls-20" d="M1199.8,1155.17c11.47-2.41,22-.44,33.4,3-3.59,8.55-6.24,17-14,22.51-3,2.17-6,2.32-8.69-.39A35.62,35.62,0,0,1,1199.8,1155.17Z"/><path class="cls-20" d="M1009.7,1162.52c-1.74,4.84-2.92,8.79-4.55,12.55-3.78,8.7-6.41,10.1-15.82,9-6.33-.76-9.29-4-10.88-12-2.3-11.57-1.34-12.71,10.17-11.68C995.35,1160.93,1002.07,1161.72,1009.7,1162.52Z"/><path class="cls-20" d="M1034.76,1164.84l27.65,2.29c-1.5,7.8-2.49,15.32-9.56,19.8-3.27,2.07-12.54.42-15.23-2.52C1032.51,1178.81,1032.3,1172.26,1034.76,1164.84Z"/><path class="cls-20" d="M1087.66,1166.9h26.58c.83,4.9,1.59,10.29-3,14-4.78,3.88-10.55,3-15.8.67C1089.63,1179,1086.91,1174.33,1087.66,1166.9Z"/><path class="cls-20" d="M953.25,1158.09c-2.18,6.74-4,13-11,14.84-8,2.09-16.11,2.54-24.07-3.79C928.64,1160.48,940.16,1158.12,953.25,1158.09Z"/><path class="cls-20" d="M1143.47,1163.36l24.74-3.54c-.65,9.38-4.24,15-9.5,15.41C1152.17,1175.72,1145.31,1170.64,1143.47,1163.36Z"/><path class="cls-24" d="M1043.06,899.27c-10.37,3.28-20.26,5.69-29.51,9.61-5.24,2.22-10.06,6.32-14,10.57-10.48,11.33-11.6,24.56-3.09,37.41,4.71,7.1,10.61,13.41,15.38,19.33-3.51,1.94-8.36,3.29-11,6.47S997,990.73,996.57,995c-2.27,24.56-.86,49,2.38,73.45a54.34,54.34,0,0,0,1.71,7.32c3.26,11.88,10.11,20,23.13,21.84-19,5.6-37.87,8.58-56.31-1.29-8.83-4.72-12.62-13.21-15.25-22.47-9.51-33.39-8-67.38-5.88-101.43,1-16.8,1.71-33.63,2.75-50.43.18-2.92.65-6.25,2.2-8.58,5.22-7.89,10.16-16.22,16.69-22.94,19.36-19.92,48.64-17,67.72-.81C1039,892.42,1041,896.54,1043.06,899.27Z"/><path class="cls-24" d="M1146.11,1086.81c7.26-3.22,14.17-5.38,20.11-9.09,12.37-7.72,19-19.36,19.56-34,.65-15.77,1-31.54,1.34-47.31.13-6.78-5-11.3-12.83-11.67-3.36-.16-6.74,0-11,0,1.79-2.68,3.51-4.9,4.86-7.33,5.12-9.23,10.82-18.22,15-27.86,10.92-25-13.79-47.34-33.33-46-1.2.08-2.4,0-4.44,0a49,49,0,0,1,3.44-5.86c13.23-16.37,30.09-25,51.33-21.88,13.1,2,23.07,9.92,27.36,22.48,3.74,10.94,5.85,22.52,7.77,34,5.54,32.94,5.49,66.07,1.77,99.19-1.58,14-3.61,28.06-5.94,42-1.9,11.4-9.49,18.1-20.05,21.83-11.43,4-23.21,7.15-35.28,5.93-7.44-.75-14.85-3.62-21.8-6.63C1150.66,1093.05,1148.36,1089.09,1146.11,1086.81Z"/></svg>